<?xml version="1.0" encoding="UTF-8" ?>
<svg version="1.1" id="svg100"
  width="384mm" height="384mm"
  viewBox="-20 -20 384 384"
  xmlns="http://www.w3.org/2000/svg"
  xmlns:svg="http://www.w3.org/2000/svg"
  xmlns:xlink="http://www.w3.org/1999/xlink"
  xmlns:sodipodi="http://sodipodi.sourceforge.net/DTD/sodipodi-0.dtd"
  xmlns:inkscape="http://www.inkscape.org/namespaces/inkscape" >

<title>pn3-tbp24-v2.svg</title>
<desc>
  Tiled Backplane (TBP) for 24 (6x4) Project Azide Generation 2 (pn3_gen2) nodes, version 2.
  Each node contains a Raspberry Pi Zero and ER-TFT035-6 LCD module.
  http://ProjectAzide.github.io/
  Copyright 2016 Michael Weiblen http://mew.cx/
  Keywords: ProjectAzide plenoptic display PN3 N=N=N
</desc>

<sodipodi:namedview
  pagecolor="#fff"
  bordercolor="#da0"
  borderopacity="1"
  showgrid="false"
  inkscape:pageopacity="1.0"
  inkscape:pageshadow="2"
  inkscape:zoom="1"
  inkscape:cx="700"
  inkscape:cy="950"
  inkscape:document-units="mm"
  inkscape:window-width="1650"
  inkscape:window-height="1050"
  inkscape:window-x="70"
  inkscape:window-y="-20"
  inkscape:window-maximized="0" />

<!-- Definitions ========================================================= -->

<defs id="defs100" >

  <g id="lcd_alignment_hole" fill="none" stroke="#00f" stroke-width="0.01" >
    <path d="m0,1.62 1.62,-1.62 -1.62,-1.62 -1.62,1.62 z" />
  </g>

  <g id="m2.5_hole" fill="none" stroke="#00f" stroke-width="0.01" >
    <title>hole for M2.5 screw</title>
    <circle cx="0" cy="0" r="1.3" />
  </g>

  <g id="lcd_cable_slot" fill="none" stroke="#00f" stroke-width="0.01" >
    <title>slot for LCD flex cable</title>
    <rect width="41" height="3" ry="1" />
  </g>

  <g id="lcd_access_hole" fill="none" stroke="#00f" stroke-width="0.01" >
    <title>hole for rear access to LCD</title>
    <rect width="25" height="25" ry="3" />
  </g>

  <g id="expansion_header40" fill="none" stroke="#00f" stroke-width="0.01" >
    <title>outline of 40-pin expansion header</title>
    <rect width="5" height="50.8" />
  </g>

  <g id="pn3_node" fill="none" stroke="#00f" stroke-width="0.01" >
    <title>PN3 Gen2 node</title>
    <desc>Per-node mounting, alignment, and cable holes</desc>
    <use xlink:href="#m2.5_hole" x="3.50" y="3.50" />
    <use xlink:href="#m2.5_hole" x="26.50" y="3.50" />
    <use xlink:href="#m2.5_hole" x="52.50" y="3.50" />
    <use xlink:href="#m2.5_hole" x="3.50" y="61.50" />
    <use xlink:href="#m2.5_hole" x="52.50" y="61.50" />
    <use xlink:href="#lcd_cable_slot" x="3" y="82.06" />
    <use xlink:href="#lcd_access_hole" x="15" y="20" />
    <use xlink:href="#lcd_alignment_hole" x="0" y="0" />
  </g>

  <g id="raspi0" fill="none" stroke="#00f" stroke-width="0.01" >
    <title>Raspberry Pi Zero outline</title>
    <desc>RasPi0 outline and mounting holes</desc>
    <use xlink:href="#m2.5_hole" x="3.50" y="3.50" />
    <use xlink:href="#m2.5_hole" x="3.50" y="61.50" />
    <use xlink:href="#m2.5_hole" x="26.50" y="3.50" />
    <use xlink:href="#m2.5_hole" x="26.50" y="61.50" />
    <use xlink:href="expandion_header40" x="1" y="7.1" />
    <rect y="0" x="0" width="30" height="65" ry="3" />
  </g>

  <g id="raspi_hat" fill="none" stroke="#00f" stroke-width="0.01" >
    <title>Raspberry Pi HAT outline</title>
    <desc>HAT outline and mounting holes</desc>
    <use xlink:href="#m2.5_hole" x="3.50" y="3.50" />
    <use xlink:href="#m2.5_hole" x="3.50" y="61.50" />
    <use xlink:href="#m2.5_hole" x="52.50" y="3.50" />
    <use xlink:href="#m2.5_hole" x="52.50" y="61.50" />
    <use xlink:href="expandion_header40" x="1" y="7.1" />
    <rect x="0" y="0" width="56" height="65" ry="3" />
  </g>

  <g id="tbp1" fill="none" stroke="#00f" stroke-width="0.01" >
    <title>TBP1 panel</title>
    <desc>Single-node backplane</desc>
    <use xlink:href="#m2.5_hole" x="3.50" y="3.50" />
    <use xlink:href="#m2.5_hole" x="3.50" y="106.5" />
    <use xlink:href="#m2.5_hole" x="76.5" y="3.5" />
    <use xlink:href="#m2.5_hole" x="76.5" y="106.5" />
    <use xlink:href="#pn3_node"  x="11.68" y="12.47" />
    <rect x="0" y="0" width="80" height="110" ry="3" />
  </g>

</defs>

<!-- Instances =========================================================== -->

<g id="tbp24" inkscape:groupmode="layer" inkscape:label="tbp24"
  transform="translate(0 0)" >

<g id="label_text" inkscape:groupmode="layer" inkscape:label="label_text"
  font-family="OCRA" font-size="8"
  fill="none" stroke="#f00" stroke-width="0.01" >
  <title>Label text</title>

  <text   x="0" y="350" >pn3-tbp24-v2</text>
  <text x="100" y="350" >2016-11-26e</text>
  <text x="200" y="350" >N=N=N</text>

  <text x="-340" y="352" transform="rotate(-90)" >http://ProjectAzide.github.io/</text>

  <text  x="25" y="-3" >A</text>
  <text  x="82" y="-3" >B</text>
  <text x="139" y="-3" >C</text>
  <text x="195" y="-3" >D</text>
  <text x="252" y="-3" >E</text>
  <text x="309" y="-3" >F</text>

  <text x="-8"  y="43" >1</text>
  <text x="-8" y="128" >2</text>
  <text x="-8" y="213" >3</text>
  <text x="-8" y="298" >4</text>
</g>

<g id="node_array" inkscape:groupmode="layer" inkscape:label="node_array">
  <title>Array of PN3 nodes</title>
  <desc>TODO</desc>

  <use xlink:href="#pn3_node" x="0" y="0" />
  <use xlink:href="#pn3_node" x="56.64" y="0" />
  <use xlink:href="#pn3_node" x="113.28" y="0" />
  <use xlink:href="#pn3_node" x="169.92" y="0" />
  <use xlink:href="#pn3_node" x="226.56" y="0" />
  <use xlink:href="#pn3_node" x="283.20" y="0" />
  <use xlink:href="#lcd_alignment_hole" x="339.84" y="0" />

  <use xlink:href="#pn3_node" x="0" y="85.06" />
  <use xlink:href="#pn3_node" x="56.64" y="85.06" />
  <use xlink:href="#pn3_node" x="113.28" y="85.06" />
  <use xlink:href="#pn3_node" x="169.92" y="85.06" />
  <use xlink:href="#pn3_node" x="226.56" y="85.06" />
  <use xlink:href="#pn3_node" x="283.20" y="85.06" />
  <use xlink:href="#lcd_alignment_hole" x="339.84" y="85.06" />

  <use xlink:href="#pn3_node" x="0" y="170.12" />
  <use xlink:href="#pn3_node" x="56.64" y="170.12" />
  <use xlink:href="#pn3_node" x="113.28" y="170.12" />
  <use xlink:href="#pn3_node" x="169.92" y="170.12" />
  <use xlink:href="#pn3_node" x="226.56" y="170.12" />
  <use xlink:href="#pn3_node" x="283.20" y="170.12" />
  <use xlink:href="#lcd_alignment_hole" x="339.84" y="170.12" />

  <use xlink:href="#pn3_node" x="0" y="255.18" />
  <use xlink:href="#pn3_node" x="56.64" y="255.18" />
  <use xlink:href="#pn3_node" x="113.28" y="255.18" />
  <use xlink:href="#pn3_node" x="169.92" y="255.18" />
  <use xlink:href="#pn3_node" x="226.56" y="255.18" />
  <use xlink:href="#pn3_node" x="283.20" y="255.18" />
  <use xlink:href="#lcd_alignment_hole" x="339.84" y="255.18" />

  <use xlink:href="#lcd_alignment_hole" x="0" y="340.24" />
  <use xlink:href="#lcd_alignment_hole" x="56.64" y="340.24" />
  <use xlink:href="#lcd_alignment_hole" x="113.28" y="340.24" />
  <use xlink:href="#lcd_alignment_hole" x="169.92" y="340.24" />
  <use xlink:href="#lcd_alignment_hole" x="226.56" y="340.24" />
  <use xlink:href="#lcd_alignment_hole" x="283.20" y="340.24" />
  <use xlink:href="#lcd_alignment_hole" x="339.84" y="340.24" />
</g>

<g id="node_boundaries" inkscape:groupmode="layer" inkscape:label="node_boundaries"
  fill="none" stroke="#f00" stroke-width="0.01" >
  <title>boundaries between the PN3 nodes.  DO NOT CUT.</title>
  <desc>TODO</desc>
  <path d="m     0,0 v340.24" />
  <path d="m 56.64,0 v340.24" />
  <path d="m113.28,0 v340.24" />
  <path d="m169.92,0 v340.24" />
  <path d="m226.56,0 v340.24" />
  <path d="m283.20,0 v340.24" />
  <path d="m339.84,0 v340.24" />

  <path d="m     0,0 h339.84" />
  <path d="m 0,85.06 h339.84" />
  <path d="m0,170.12 h339.84" />
  <path d="m0,255.18 h339.84" />
  <path d="m0,340.24 h339.84" />
</g>

<g id="panel_outline" inkscape:groupmode="layer" inkscape:label="panel_outline"
  fill="none" stroke="#00f" stroke-width="0.01" >
  <title>panel outline</title>
  <desc>panel outline and mounting holes</desc>
  <rect x="-18" y="-18" width="380" height="380" />
</g>

</g>

</svg>
