<?xml version="1.0" encoding="UTF-8"?>
<!-- Copyright 2016 Michael Weiblen http://mew.cx/ -->

<svg
  xmlns="http://www.w3.org/2000/svg"
  xmlns:svg="http://www.w3.org/2000/svg"
  xmlns:xlink="http://www.w3.org/1999/xlink"
  xmlns:sodipodi="http://sodipodi.sourceforge.net/DTD/sodipodi-0.dtd"
  xmlns:inkscape="http://www.inkscape.org/namespaces/inkscape"
  width="384mm" height="384mm"
  viewBox="-20 -20 384 384"
  version="1.1" >

<title>pn3-tbp24-v1.svg</title>
<desc>
  Tiled Backplane (TBP) for 24 (6x4) PN3 nodes.
  See http://ProjectAzide.github.io
  Panel geometry designed for ER-TFT035-6 from http://www.buydisplay.com
  Copyright 2016 Michael Weiblen http://mew.cx/
  Keywords: PN3 N=N=N plenoptic display raspberrypi lefdy holographic
</desc>

<sodipodi:namedview
  pagecolor="#ffffff"
  bordercolor="#d0a000"
  borderopacity="1"
  showgrid="false"
  inkscape:pageopacity="0.0"
  inkscape:pageshadow="2"
  inkscape:zoom="1"
  inkscape:cx="700"
  inkscape:cy="950"
  inkscape:document-units="mm"
  inkscape:window-width="1650"
  inkscape:window-height="1050"
  inkscape:window-x="70"
  inkscape:window-y="-20"
  inkscape:window-maximized="0" />

<defs>
  <g id="pn3_node" style="fill:none;stroke:#0000ff;stroke-width:0.01" >
    <title>PN3 node</title>
    <desc>TODO</desc>
    <path d="M 0,1.62 1.62,0 0,-1.62 -1.62,0 Z" />
    <rect width="2.5" height="2.5" x="2.25" y="2.25" />
    <rect width="2.5" height="2.5" x="25.25" y="2.25" />
    <rect width="2.5" height="2.5" x="51.25" y="2.25" />
    <rect width="2.5" height="2.5" x="2.25" y="60.25" />
    <rect width="2.5" height="2.5" x="51.25" y="60.25" />
    <rect width="42" height="3" x="3" y="82.06" />
    <rect width="25" height="25" x="15" y="20" />
  </g>
</defs>

<g inkscape:groupmode="layer" inkscape:label="version_label" style="font-size:8.46666px;font-family:OCRB;-inkscape-font-specification:'OCRB, Normal';fill:#000000;stroke-width:1px" sodipodi:linespacing="100%" sodipodi:role="line" xml:space="preserve" >
  <title>TODO</title>
  <desc>TODO</desc>
  <text x="0" y="350"><tspan x="0" y="350">pn3-tbp24-v1   2016-09-03a   N=N=N</tspan></text>
</g>

<g inkscape:groupmode="layer" inkscape:label="project_label" style="font-size:10px;font-family:'DejaVu Sans';-inkscape-font-specification:'DejaVu Sans, Normal';fill:#000000;stroke-width:1px;writing-mode:lr" sodipodi:linespacing="100%" sodipodi:role="line" xml:space="preserve" >
  <title>TODO</title>
  <desc>TODO</desc>
  <text x="-340" y="352" transform="matrix(0,-1,1,0,0,0)"><tspan x="-340" y="352">http://ProjectAzide.github.io</tspan></text>
</g>

<g inkscape:groupmode="layer" inkscape:label="pn3_node_labels" style="font-size:8.46666px;font-family:OCRB;-inkscape-font-specification:'OCRB, Normal';text-anchor:middle;fill:#000000;stroke-width:1px" sodipodi:linespacing="100%" sodipodi:role="line" xml:space="preserve" >
  <title>TODO</title>
  <desc>TODO</desc>
  <text  x="28" y="-3"><tspan  x="28" y="-3">A</tspan></text>
  <text  x="85" y="-3"><tspan  x="85" y="-3">B</tspan></text>
  <text x="142" y="-3"><tspan x="142" y="-3">C</tspan></text>
  <text x="198" y="-3"><tspan x="198" y="-3">D</tspan></text>
  <text x="255" y="-3"><tspan x="255" y="-3">E</tspan></text>
  <text x="312" y="-3"><tspan x="312" y="-3">F</tspan></text>

  <text x="-5"  y="43"><tspan x="-5"  y="43">1</tspan></text>
  <text x="-5" y="127"><tspan x="-5" y="127">2</tspan></text>
  <text x="-5" y="213"><tspan x="-5" y="213">3</tspan></text>
  <text x="-5" y="297"><tspan x="-5" y="297">4</tspan></text>
</g>

<g inkscape:groupmode="layer" inkscape:label="pn3_node_edge_alignment" style="fill:none;stroke:#0000ff;stroke-width:0.01" >
  <title>TODO</title>
  <desc>TODO</desc>
  <path d="m339.84,1.62   0,-3.24 -1.62,1.62 z" />
  <path d="m339.84,86.68  0,-3.24 -1.62,1.62 z" />
  <path d="m339.84,171.74 0,-3.24 -1.62,1.62 z" />
  <path d="m339.84,256.80 0,-3.24 -1.62,1.62 z" />
  <path d="m339.84,341.86 0,-3.24 -1.62,1.62 z" />

  <path d="m     0,338.62 1.62,1.62 -3.24,0 z" />
  <path d="m 56.64,338.62 1.62,1.62 -3.24,0 z" />
  <path d="m113.28,338.62 1.62,1.62 -3.24,0 z" />
  <path d="m169.92,338.62 1.62,1.62 -3.24,0 z" />
  <path d="m226.56,338.62 1.62,1.62 -3.24,0 z" />
  <path d="m283.20,338.62 1.62,1.62 -3.24,0 z" />
</g>

<g inkscape:groupmode="layer" inkscape:label="pn3_node_array">
  <title>TODO</title>
  <desc>TODO</desc>
  <use xlink:href="#pn3_node" transform="translate(0,0)" />
  <use xlink:href="#pn3_node" transform="translate(56.64,0)" />
  <use xlink:href="#pn3_node" transform="translate(113.28,0)" />
  <use xlink:href="#pn3_node" transform="translate(169.92,0)" />
  <use xlink:href="#pn3_node" transform="translate(226.56,0)" />
  <use xlink:href="#pn3_node" transform="translate(283.20,0)" />

  <use xlink:href="#pn3_node" transform="translate(0,85.06)" />
  <use xlink:href="#pn3_node" transform="translate(56.64,85.06)" />
  <use xlink:href="#pn3_node" transform="translate(113.28,85.06)" />
  <use xlink:href="#pn3_node" transform="translate(169.92,85.06)" />
  <use xlink:href="#pn3_node" transform="translate(226.56,85.06)" />
  <use xlink:href="#pn3_node" transform="translate(283.20,85.06)" />

  <use xlink:href="#pn3_node" transform="translate(0,170.12)" />
  <use xlink:href="#pn3_node" transform="translate(56.64,170.12)" />
  <use xlink:href="#pn3_node" transform="translate(113.28,170.12)" />
  <use xlink:href="#pn3_node" transform="translate(169.92,170.12)" />
  <use xlink:href="#pn3_node" transform="translate(226.56,170.12)" />
  <use xlink:href="#pn3_node" transform="translate(283.20,170.12)" />

  <use xlink:href="#pn3_node" transform="translate(0,255.18)" />
  <use xlink:href="#pn3_node" transform="translate(56.64,255.18)" />
  <use xlink:href="#pn3_node" transform="translate(113.28,255.18)" />
  <use xlink:href="#pn3_node" transform="translate(169.92,255.18)" />
  <use xlink:href="#pn3_node" transform="translate(226.56,255.18)" />
  <use xlink:href="#pn3_node" transform="translate(283.20,255.18)" />
</g>

<g inkscape:groupmode="layer" inkscape:label="pn3_node_outlines" style="fill:none;stroke:#ff0000;stroke-width:0.01" >
  <title>TODO</title>
  <desc>TODO</desc>
  <path d="M     0,0 v340.24" />
  <path d="M 56.64,0 v340.24" />
  <path d="M113.28,0 v340.24" />
  <path d="M169.92,0 v340.24" />
  <path d="M226.56,0 v340.24" />
  <path d="M283.20,0 v340.24" />
  <path d="M339.84,0 v340.24" />

  <path d="M     0,0 h339.84" />
  <path d="M 0,85.06 h339.84" />
  <path d="M0,170.12 h339.84" />
  <path d="M0,255.18 h339.84" />
  <path d="M0,340.24 h339.84" />
</g>

<g inkscape:groupmode="layer" inkscape:label="mounting_holes">
  <title>TODO</title>
  <desc>TODO</desc>
</g>

<g inkscape:groupmode="layer" inkscape:label="panel_outline">
  <title>TODO</title>
  <desc>TODO</desc>
  <rect style="fill:none;stroke:#0000ff;stroke-width:0.01" x="-18" y="-18" width="380" height="380" />
</g>

</svg>

