<?xml version="1.0" encoding="UTF-8" standalone="no"?>
<!-- https://github.com/ProjectAzide/ -->

<svg
   xmlns:dc="http://purl.org/dc/elements/1.1/"
   xmlns:cc="http://creativecommons.org/ns#"
   xmlns:rdf="http://www.w3.org/1999/02/22-rdf-syntax-ns#"
   xmlns:svg="http://www.w3.org/2000/svg"
   xmlns="http://www.w3.org/2000/svg"
   xmlns:sodipodi="http://sodipodi.sourceforge.net/DTD/sodipodi-0.dtd"
   xmlns:inkscape="http://www.inkscape.org/namespaces/inkscape"
   width="384mm"
   height="384mm"
   viewBox="-20 -20 384 384"
   id="svg1"
   version="1.1"
   inkscape:version="0.91 r13725"
   sodipodi:docname="pn3-tbp24-v1.svg">
  <defs
     id="defs2" />
  <sodipodi:namedview
     id="base"
     pagecolor="#ffffff"
     bordercolor="#d0a000"
     borderopacity="1"
     inkscape:pageopacity="0.0"
     inkscape:pageshadow="2"
     inkscape:zoom="1"
     inkscape:cx="333.417"
     inkscape:cy="931.682"
     inkscape:document-units="mm"
     inkscape:current-layer="layer1"
     showgrid="false"
     inkscape:window-width="1248"
     inkscape:window-height="1057"
     inkscape:window-x="321"
     inkscape:window-y="-19"
     inkscape:window-maximized="0" />
  <metadata
     id="metadata3">
    <rdf:RDF>
      <cc:Work
         rdf:about="">
        <dc:format>image/svg+xml</dc:format>
        <dc:type
           rdf:resource="http://purl.org/dc/dcmitype/StillImage" />
        <dc:title />
      </cc:Work>
    </rdf:RDF>
  </metadata>
  <g
     inkscape:groupmode="layer"
     id="layer1"
     inkscape:label="Your Design">

<rect style="fill:none;stroke:#000000;stroke-width:0.01" x="-19" y="-19" width="382" height="382" />

<g>
    <path style="fill:none;fill-rule:evenodd;stroke:#000000;stroke-width:0.01" d="m     0,0 0,340.24" />
    <path style="fill:none;fill-rule:evenodd;stroke:#000000;stroke-width:0.01" d="m  56.64,0 0,340.24" />
    <path style="fill:none;fill-rule:evenodd;stroke:#000000;stroke-width:0.01" d="m 113.28,0 0,340.24" />
    <path style="fill:none;fill-rule:evenodd;stroke:#000000;stroke-width:0.01" d="m 169.92,0 0,340.24" />
    <path style="fill:none;fill-rule:evenodd;stroke:#000000;stroke-width:0.01" d="m 226.56,0 0,340.24" />
    <path style="fill:none;fill-rule:evenodd;stroke:#000000;stroke-width:0.01" d="m 283.20,0 0,340.24" />
    <path style="fill:none;fill-rule:evenodd;stroke:#000000;stroke-width:0.01" d="m 339.84,0 0,340.24" />

    <path style="fill:none;fill-rule:evenodd;stroke:#000000;stroke-width:0.01" d="m     0,0 339.84,0" />
    <path style="fill:none;fill-rule:evenodd;stroke:#000000;stroke-width:0.01" d="m  0,85.06 339.84,0" />
    <path style="fill:none;fill-rule:evenodd;stroke:#000000;stroke-width:0.01" d="m 0,170.12 339.84,0" />
    <path style="fill:none;fill-rule:evenodd;stroke:#000000;stroke-width:0.01" d="m 0,255.18 339.84,0" />
    <path style="fill:none;fill-rule:evenodd;stroke:#000000;stroke-width:0.01" d="m 0,340.24 339.84,0" />
</g>

<g>
    <path style="fill:none;fill-rule:evenodd;stroke:#000000;stroke-width:0.01" d="m 0,1.62 1.62,-1.62 -1.62,-1.62 -1.62,1.62 z" />
    <path style="fill:none;fill-rule:evenodd;stroke:#000000;stroke-width:0.01" d="m 56.64,1.62 1.62,-1.62 -1.62,-1.62 -1.62,1.62 z" />
    <path style="fill:none;fill-rule:evenodd;stroke:#000000;stroke-width:0.01" d="m 113.28,1.62 1.62,-1.62 -1.62,-1.62 -1.62,1.62 z" />
    <path style="fill:none;fill-rule:evenodd;stroke:#000000;stroke-width:0.01" d="m 169.92,1.62 1.62,-1.62 -1.62,-1.62 -1.62,1.62 z" />
    <path style="fill:none;fill-rule:evenodd;stroke:#000000;stroke-width:0.01" d="m 226.56,1.62 1.62,-1.62 -1.62,-1.62 -1.62,1.62 z" />
    <path style="fill:none;fill-rule:evenodd;stroke:#000000;stroke-width:0.01" d="m 283.20,1.62 1.62,-1.62 -1.62,-1.62 -1.62,1.62 z" />
    <path style="fill:none;fill-rule:evenodd;stroke:#000000;stroke-width:0.01" d="m 339.84,1.62 1.62,-1.62 -1.62,-1.62 -1.62,1.62 z" />

    <path style="fill:none;fill-rule:evenodd;stroke:#000000;stroke-width:0.01" d="m 0,86.68 1.62,-1.62 -1.62,-1.62 -1.62,1.62 z" />
    <path style="fill:none;fill-rule:evenodd;stroke:#000000;stroke-width:0.01" d="m 56.64,86.68 1.62,-1.62 -1.62,-1.62 -1.62,1.62 z" />
    <path style="fill:none;fill-rule:evenodd;stroke:#000000;stroke-width:0.01" d="m 113.28,86.68 1.62,-1.62 -1.62,-1.62 -1.62,1.62 z" />
    <path style="fill:none;fill-rule:evenodd;stroke:#000000;stroke-width:0.01" d="m 169.92,86.68 1.62,-1.62 -1.62,-1.62 -1.62,1.62 z" />
    <path style="fill:none;fill-rule:evenodd;stroke:#000000;stroke-width:0.01" d="m 226.56,86.68 1.62,-1.62 -1.62,-1.62 -1.62,1.62 z" />
    <path style="fill:none;fill-rule:evenodd;stroke:#000000;stroke-width:0.01" d="m 283.20,86.68 1.62,-1.62 -1.62,-1.62 -1.62,1.62 z" />
    <path style="fill:none;fill-rule:evenodd;stroke:#000000;stroke-width:0.01" d="m 339.84,86.68 1.62,-1.62 -1.62,-1.62 -1.62,1.62 z" />

    <path style="fill:none;fill-rule:evenodd;stroke:#000000;stroke-width:0.01" d="m 0,171.74 1.62,-1.62 -1.62,-1.62 -1.62,1.62 z" />
    <path style="fill:none;fill-rule:evenodd;stroke:#000000;stroke-width:0.01" d="m 56.64,171.74 1.62,-1.62 -1.62,-1.62 -1.62,1.62 z" />
    <path style="fill:none;fill-rule:evenodd;stroke:#000000;stroke-width:0.01" d="m 113.28,171.74 1.62,-1.62 -1.62,-1.62 -1.62,1.62 z" />
    <path style="fill:none;fill-rule:evenodd;stroke:#000000;stroke-width:0.01" d="m 169.92,171.74 1.62,-1.62 -1.62,-1.62 -1.62,1.62 z" />
    <path style="fill:none;fill-rule:evenodd;stroke:#000000;stroke-width:0.01" d="m 226.56,171.74 1.62,-1.62 -1.62,-1.62 -1.62,1.62 z" />
    <path style="fill:none;fill-rule:evenodd;stroke:#000000;stroke-width:0.01" d="m 283.20,171.74 1.62,-1.62 -1.62,-1.62 -1.62,1.62 z" />
    <path style="fill:none;fill-rule:evenodd;stroke:#000000;stroke-width:0.01" d="m 339.84,171.74 1.62,-1.62 -1.62,-1.62 -1.62,1.62 z" />

    <path style="fill:none;fill-rule:evenodd;stroke:#000000;stroke-width:0.01" d="m 0,256.80 1.62,-1.62 -1.62,-1.62 -1.62,1.62 z" />
    <path style="fill:none;fill-rule:evenodd;stroke:#000000;stroke-width:0.01" d="m 56.64,256.80 1.62,-1.62 -1.62,-1.62 -1.62,1.62 z" />
    <path style="fill:none;fill-rule:evenodd;stroke:#000000;stroke-width:0.01" d="m 113.28,256.80 1.62,-1.62 -1.62,-1.62 -1.62,1.62 z" />
    <path style="fill:none;fill-rule:evenodd;stroke:#000000;stroke-width:0.01" d="m 169.92,256.80 1.62,-1.62 -1.62,-1.62 -1.62,1.62 z" />
    <path style="fill:none;fill-rule:evenodd;stroke:#000000;stroke-width:0.01" d="m 226.56,256.80 1.62,-1.62 -1.62,-1.62 -1.62,1.62 z" />
    <path style="fill:none;fill-rule:evenodd;stroke:#000000;stroke-width:0.01" d="m 283.20,256.80 1.62,-1.62 -1.62,-1.62 -1.62,1.62 z" />
    <path style="fill:none;fill-rule:evenodd;stroke:#000000;stroke-width:0.01" d="m 339.84,256.80 1.62,-1.62 -1.62,-1.62 -1.62,1.62 z" />

    <path style="fill:none;fill-rule:evenodd;stroke:#000000;stroke-width:0.01" d="m 0,341.86 1.62,-1.62 -1.62,-1.62 -1.62,1.62 z" />
    <path style="fill:none;fill-rule:evenodd;stroke:#000000;stroke-width:0.01" d="m 56.64,341.86 1.62,-1.62 -1.62,-1.62 -1.62,1.62 z" />
    <path style="fill:none;fill-rule:evenodd;stroke:#000000;stroke-width:0.01" d="m 113.28,341.86 1.62,-1.62 -1.62,-1.62 -1.62,1.62 z" />
    <path style="fill:none;fill-rule:evenodd;stroke:#000000;stroke-width:0.01" d="m 169.92,341.86 1.62,-1.62 -1.62,-1.62 -1.62,1.62 z" />
    <path style="fill:none;fill-rule:evenodd;stroke:#000000;stroke-width:0.01" d="m 226.56,341.86 1.62,-1.62 -1.62,-1.62 -1.62,1.62 z" />
    <path style="fill:none;fill-rule:evenodd;stroke:#000000;stroke-width:0.01" d="m 283.20,341.86 1.62,-1.62 -1.62,-1.62 -1.62,1.62 z" />
    <path style="fill:none;fill-rule:evenodd;stroke:#000000;stroke-width:0.01" d="m 339.84,341.86 1.62,-1.62 -1.62,-1.62 -1.62,1.62 z" />
</g>

<g>
    <text xml:space="preserve"
       style="font-size:8.46666px;font-family:OCRB;-inkscape-font-specification:'OCRB, Normal';text-anchor:middle;fill:#000000;stroke-width:1px"
x="28" y="-3" sodipodi:linespacing="100%"><tspan sodipodi:role="line"
x="28" y="-3">A</tspan></text>
    <text xml:space="preserve"
       style="font-size:8.46666px;font-family:OCRB;-inkscape-font-specification:'OCRB, Normal';text-anchor:middle;fill:#000000;stroke-width:1px"
x="85" y="-3" sodipodi:linespacing="100%"><tspan sodipodi:role="line"
x="85" y="-3">B</tspan></text>
    <text xml:space="preserve"
       style="font-size:8.46666px;font-family:OCRB;-inkscape-font-specification:'OCRB, Normal';text-anchor:middle;fill:#000000;stroke-width:1px"
x="142" y="-3" sodipodi:linespacing="100%"><tspan sodipodi:role="line"
x="142" y="-3">C</tspan></text>
    <text xml:space="preserve"
       style="font-size:8.46666px;font-family:OCRB;-inkscape-font-specification:'OCRB, Normal';text-anchor:middle;fill:#000000;stroke-width:1px"
x="198" y="-3" sodipodi:linespacing="100%"><tspan sodipodi:role="line"
x="198" y="-3">D</tspan></text>
    <text xml:space="preserve"
       style="font-size:8.46666px;font-family:OCRB;-inkscape-font-specification:'OCRB, Normal';text-anchor:middle;fill:#000000;stroke-width:1px"
x="255" y="-3" sodipodi:linespacing="100%"><tspan sodipodi:role="line"
x="255" y="-3">E</tspan></text>
    <text xml:space="preserve"
       style="font-size:8.46666px;font-family:OCRB;-inkscape-font-specification:'OCRB, Normal';text-anchor:middle;fill:#000000;stroke-width:1px"
x="312" y="-3" sodipodi:linespacing="100%"><tspan sodipodi:role="line"
x="312" y="-3">F</tspan></text>

    <text xml:space="preserve"
       style="font-size:8.46666px;font-family:OCRB;-inkscape-font-specification:'OCRB, Normal';text-anchor:middle;fill:#000000;stroke-width:1px"
x="-5" y="43" sodipodi:linespacing="100%"><tspan sodipodi:role="line"
x="-5" y="43">1</tspan></text>
    <text xml:space="preserve"
       style="font-size:8.46666px;font-family:OCRB;-inkscape-font-specification:'OCRB, Normal';text-anchor:middle;fill:#000000;stroke-width:1px"
x="-5" y="127" sodipodi:linespacing="100%"><tspan sodipodi:role="line"
x="-5" y="127">2</tspan></text>
    <text xml:space="preserve"
       style="font-size:8.46666px;font-family:OCRB;-inkscape-font-specification:'OCRB, Normal';text-anchor:middle;fill:#000000;stroke-width:1px"
x="-5" y="213" sodipodi:linespacing="100%"><tspan sodipodi:role="line"
x="-5" y="213">3</tspan></text>
    <text xml:space="preserve"
       style="font-size:8.46666px;font-family:OCRB;-inkscape-font-specification:'OCRB, Normal';text-anchor:middle;fill:#000000;stroke-width:1px"
x="-5" y="297" sodipodi:linespacing="100%"><tspan sodipodi:role="line"
x="-5" y="297">4</tspan></text>
</g>

    <text xml:space="preserve"
       style="font-size:8.46666px;font-family:OCRB;-inkscape-font-specification:'OCRB, Normal';text-anchor:start;fill:#000000;stroke-width:1px"
x="0" y="350" sodipodi:linespacing="100%"><tspan sodipodi:role="line"
x="0" y="350">pn3-tbp24-v1   2016-08-27a   N=N=N</tspan></text>

    <text xml:space="preserve"
       style="font-size:10px;font-family:'DejaVu Sans';-inkscape-font-specification:'DejaVu Sans, Normal';fill:#000000;stroke-width:1px;writing-mode:lr"
x="-340" y="352" sodipodi:linespacing="100%" transform="matrix(0,-1,1,0,0,0)"><tspan sodipodi:role="line"
x="-340" y="352">http://ProjectAzide.github.io/             (ER-TFT-035-6)</tspan></text>



    <rect style="fill:none;stroke:#000000;stroke-width:0.01" x="3" y="167" width="40" height="3" />
    <rect style="fill:none;stroke:#000000;stroke-width:0.01" x="59.64" y="167" width="40" height="3" />
    <rect style="fill:none;stroke:#000000;stroke-width:0.01" x="116.28" y="167" width="40" height="3" />
    <rect style="fill:none;stroke:#000000;stroke-width:0.01" x="172.92" y="167" width="40" height="3" />
    <rect style="fill:none;stroke:#000000;stroke-width:0.01" x="229.56" y="167" width="40" height="3" />
    <rect style="fill:none;stroke:#000000;stroke-width:0.01" x="286.20" y="167" width="40" height="3" />

    <rect style="fill:none;stroke:#000000;stroke-width:0.01" x="3" y="252" width="40" height="3" />
    <rect style="fill:none;stroke:#000000;stroke-width:0.01" x="59.64" y="252" width="40" height="3" />
    <rect style="fill:none;stroke:#000000;stroke-width:0.01" x="116.28" y="252" width="40" height="3" />
    <rect style="fill:none;stroke:#000000;stroke-width:0.01" x="172.92" y="252" width="40" height="3" />
    <rect style="fill:none;stroke:#000000;stroke-width:0.01" x="229.56" y="252" width="40" height="3" />
    <rect style="fill:none;stroke:#000000;stroke-width:0.01" x="286.20" y="252" width="40" height="3" />

    <rect style="fill:none;stroke:#000000;stroke-width:0.01" x="3" y="337" width="40" height="3" />
    <rect style="fill:none;stroke:#000000;stroke-width:0.01" x="59.64" y="337" width="40" height="3" />
    <rect style="fill:none;stroke:#000000;stroke-width:0.01" x="116.28" y="337" width="40" height="3" />
    <rect style="fill:none;stroke:#000000;stroke-width:0.01" x="172.92" y="337" width="40" height="3" />
    <rect style="fill:none;stroke:#000000;stroke-width:0.01" x="229.56" y="337" width="40" height="3" />
    <rect style="fill:none;stroke:#000000;stroke-width:0.01" x="286.20" y="337" width="40" height="3" />

<g>
    <rect style="fill:none;stroke:#000000;stroke-width:0.01" width="30" height="65" x="20" y="3" />
    <ellipse style="fill:none;stroke:#000000;stroke-width:0.01" cx="23.5" cy="6.5" rx="1.3" ry="1.3" />
    <ellipse style="fill:none;stroke:#000000;stroke-width:0.01" cx="46.5" cy="6.5" rx="1.3" ry="1.3" />
    <ellipse style="fill:none;stroke:#000000;stroke-width:0.01" cx="23.5" cy="64.5" rx="1.3" ry="1.3" />
    <ellipse style="fill:none;stroke:#000000;stroke-width:0.01" cx="46.5" cy="64.5" rx="1.3" ry="1.3" />
    <rect style="fill:none;stroke:#000000;stroke-width:0.01" x="3" y="82.06" width="40" height="3" />
</g>


  </g>
</svg>
