<?xml version="1.0" encoding="UTF-8" standalone="no"?>
<!-- http://ProjectAzide.github.io/ -->

<!-- Layout using ER-TFT035-6 LCD from http://www.buydisplay.com/ -->

<svg
   xmlns:dc="http://purl.org/dc/elements/1.1/"
   xmlns:cc="http://creativecommons.org/ns#"
   xmlns:rdf="http://www.w3.org/1999/02/22-rdf-syntax-ns#"
   xmlns:svg="http://www.w3.org/2000/svg"
   xmlns="http://www.w3.org/2000/svg"
   xmlns:sodipodi="http://sodipodi.sourceforge.net/DTD/sodipodi-0.dtd"
   xmlns:inkscape="http://www.inkscape.org/namespaces/inkscape"
   width="384mm"
   height="384mm"
   viewBox="-20 -20 384 384"
   id="svg1"
   version="1.1"
   inkscape:version="0.91 r13725"
   sodipodi:docname="pn3-tbp24-v1a.svg">
  <defs
     id="defs2" />
  <sodipodi:namedview
     id="base"
     pagecolor="#ffffff"
     bordercolor="#d0a000"
     borderopacity="1"
     inkscape:pageopacity="0.0"
     inkscape:pageshadow="2"
     inkscape:zoom="0.62"
     inkscape:cx="696.541"
     inkscape:cy="687.698"
     inkscape:document-units="mm"
     inkscape:current-layer="g488"
     showgrid="false"
     inkscape:window-width="1650"
     inkscape:window-height="1050"
     inkscape:window-x="70"
     inkscape:window-y="-20"
     inkscape:window-maximized="0" />
  <metadata
     id="metadata3">
    <rdf:RDF>
      <cc:Work
         rdf:about="">
        <dc:format>image/svg+xml</dc:format>
        <dc:type
           rdf:resource="http://purl.org/dc/dcmitype/StillImage" />
        <dc:title />
      </cc:Work>
    </rdf:RDF>
  </metadata>
  <g
     inkscape:groupmode="layer"
     inkscape:label="text"
     id="g6">
    <g
       style="font-size:8.46666px;font-family:OCRB;-inkscape-font-specification:'OCRB, Normal';fill:none;stroke:#ff0000;stroke-width:0.01"
       id="text8">
      <path
         d="m 5.19006,347.824 q 0,0.457 -0.11853,0.838 -0.21167,0.771 -0.80433,1.16 -0.27094,0.178 -0.61807,0.254 -0.32173,0.07 -0.60113,0.06 -0.31327,-0.02 -0.62654,-0.16 -0.2794,-0.127 -0.52493,-0.322 l 0,1.482 q 0,0.169 -0.11853,0.304 -0.13547,0.119 -0.3048,0.119 -0.1778,0 -0.29633,-0.119 -0.127,-0.144 -0.127,-0.304 l 0,-2.778 0,-1.185 0,-1.287 q 0,-0.169 0.127,-0.296 0.127,-0.127 0.29633,-0.127 0.16087,0 0.3048,0.127 0.11853,0.118 0.11853,0.296 l 0,0.03 q 0.26247,-0.212 0.52493,-0.322 0.32174,-0.144 0.62654,-0.152 0.2794,-0.02 0.6096,0.06 0.33866,0.08 0.60113,0.237 0.4064,0.263 0.635,0.669 0.29633,0.525 0.29633,1.414 z m -3.29353,-0.567 0,0.999 0.0931,0.186 q 0.2032,0.339 0.39794,0.517 0.16933,0.16 0.37253,0.245 0.1778,0.08 0.33867,0.08 0.1778,0 0.3556,-0.04 0.22013,-0.04 0.3556,-0.135 0.31326,-0.203 0.44873,-0.677 0.0847,-0.288 0.0847,-0.61 0,-0.669 -0.18627,-1.007 -0.13547,-0.229 -0.33867,-0.348 -0.16933,-0.101 -0.36406,-0.144 -0.18627,-0.05 -0.3556,-0.04 -0.16087,0 -0.33867,0.09 -0.19473,0.09 -0.381,0.246 -0.29633,0.254 -0.4826,0.635 z"
         id="path4619" />
      <path
         d="m 11.19,349.687 q 0,0.169 -0.127,0.296 -0.127,0.127 -0.2963,0.127 -0.1778,0 -0.3048,-0.127 -0.1186,-0.118 -0.1186,-0.296 l 0,-2.108 q 0,-0.568 -0.093,-0.813 -0.1016,-0.263 -0.29632,-0.364 -0.1016,-0.06 -0.34713,-0.09 l -0.1778,-0.03 q -0.0762,0 -0.16933,0.03 -0.21167,0.02 -0.37254,0.11 -0.16933,0.08 -0.36406,0.271 -0.3302,0.338 -0.4826,0.736 l 0,2.261 q 0,0.178 -0.127,0.296 -0.11854,0.127 -0.29634,0.127 -0.1778,0 -0.29633,-0.127 -0.127,-0.118 -0.127,-0.296 l 0,-2.346 0,-1.456 q 0,-0.186 0.127,-0.296 0.127,-0.127 0.29633,-0.127 0.16934,0 0.29634,0.127 0.127,0.11 0.127,0.296 l 0,0.102 q 0.23706,-0.22 0.4826,-0.339 0.27093,-0.127 0.59266,-0.178 0.22014,-0.03 0.31327,-0.03 0.11006,0 0.31326,0.03 0.38099,0.06 0.61809,0.195 0.4741,0.254 0.6773,0.796 0.1524,0.398 0.1524,1.118 l 0,2.108 z"
         id="path4621" />
      <path
         d="m 17.3508,348.087 q -0.025,0.685 -0.4572,1.219 -0.5588,0.652 -1.5324,0.779 -0.2117,0.03 -0.4403,0.03 -0.7705,0 -1.4732,-0.305 -0.051,-0.02 -0.1355,-0.08 -0.1185,-0.136 -0.1185,-0.305 0,-0.178 0.1185,-0.297 0.144,-0.127 0.3048,-0.127 0.059,0 0.1609,0.03 0.5334,0.237 1.143,0.237 0.1609,0 0.3302,-0.02 0.6435,-0.07 0.9906,-0.474 0.2455,-0.296 0.2625,-0.72 0.025,-0.398 -0.1863,-0.703 -0.3048,-0.423 -1.0753,-0.55 -0.2709,-0.04 -0.4741,-0.04 -0.1609,0 -0.2879,-0.127 -0.127,-0.11 -0.127,-0.297 0,-0.177 0.1101,-0.287 l 0.01,-0 1.524,-1.6 -2.3538,0 q -0.1608,0 -0.3048,-0.127 -0.1185,-0.136 -0.1185,-0.296 0,-0.17 0.1185,-0.305 0.1355,-0.119 0.3048,-0.119 l 3.0734,0 q 0.1609,0 0.2964,0.119 0.127,0.144 0.127,0.305 l 0,0.287 q 0,0.17 -0.1186,0.288 l -1.3631,1.431 q 0.9059,0.22 1.3547,0.838 0.381,0.534 0.3386,1.237 z"
         id="path4623" />
      <path
         d="m 21.0902,347.325 -1.3547,0 q -0.1693,0 -0.3048,-0.119 -0.1185,-0.135 -0.1185,-0.305 l 0,-0.237 q 0,-0.169 0.1185,-0.305 0.1355,-0.118 0.3048,-0.118 l 3.3867,0 q 0.1778,0 0.2963,0.118 0.127,0.127 0.127,0.305 l 0,0.237 q 0,0.178 -0.127,0.305 -0.1185,0.119 -0.2963,0.119 l -1.3547,0 -0.6773,0 z"
         id="path4625" />
      <path
         d="m 29.029,349.221 q 0.127,0.119 0.127,0.296 0,0.178 -0.127,0.297 -0.059,0.06 -0.1185,0.08 -0.4234,0.204 -0.8721,0.212 -0.3387,0.02 -0.6435,-0.102 -0.2286,-0.08 -0.3725,-0.228 -0.2625,-0.237 -0.3725,-0.644 -0.059,-0.237 -0.059,-0.838 l 0,-0.719 0.017,-1.194 -0.635,0 q -0.1778,0 -0.2963,-0.127 -0.127,-0.119 -0.127,-0.297 0,-0.177 0.127,-0.296 0.1185,-0.127 0.2963,-0.127 l 0.652,0 0.017,-0.855 q 0,-0.186 0.1185,-0.305 0.1355,-0.118 0.3048,-0.118 0.1778,0 0.2964,0.118 0.127,0.127 0.127,0.305 l -0.017,0.855 1.2616,0 q 0.1778,0 0.2963,0.127 0.127,0.119 0.127,0.296 0,0.178 -0.127,0.297 -0.1185,0.127 -0.2963,0.127 l -1.2785,0 -0.017,1.194 0,0.736 q 0,0.483 0.034,0.61 0.051,0.169 0.1186,0.228 0.042,0.04 0.11,0.07 0.127,0.04 0.3133,0.04 0.2963,-0.02 0.5334,-0.127 0.1016,-0.04 0.1863,-0.04 0.1778,0 0.2963,0.127 z"
         id="path4627" />
      <path
         d="m 35.7825,347.57 q 0,0.263 -0.025,0.533 -0.059,0.627 -0.2625,1.025 -0.237,0.432 -0.6265,0.694 -0.5757,0.373 -1.2446,0.305 -0.6265,-0.06 -1.1345,-0.474 l 0,0.03 q 0,0.178 -0.1186,0.296 -0.127,0.127 -0.3048,0.127 -0.1862,0 -0.2963,-0.127 -0.127,-0.127 -0.127,-0.296 l 0,-1.33 0,-1.21 0,-3.268 q 0,-0.17 0.127,-0.297 0.127,-0.127 0.2963,-0.127 0.1609,0 0.3048,0.127 0.1186,0.119 0.1186,0.297 l 0,2.04 q 0.2624,-0.212 0.5249,-0.322 0.3217,-0.144 0.6265,-0.152 0.2794,-0.02 0.6096,0.06 0.3472,0.08 0.6012,0.246 0.3979,0.245 0.635,0.652 0.2794,0.491 0.2963,1.168 z m -3.2935,-0.322 0,1.033 q 0.1524,0.39 0.4826,0.669 0.3471,0.305 0.7366,0.339 0.3556,0.04 0.6942,-0.178 0.2286,-0.161 0.3387,-0.373 0.1185,-0.22 0.1693,-0.711 0.025,-0.228 0.025,-0.44 -0.017,-0.457 -0.1862,-0.762 -0.144,-0.237 -0.3387,-0.356 -0.1693,-0.101 -0.3641,-0.144 -0.1862,-0.05 -0.3556,-0.04 -0.1608,0 -0.3386,0.09 -0.1948,0.09 -0.381,0.246 -0.2879,0.245 -0.4826,0.626 z"
         id="path4629" />
      <path
         d="m 41.901,347.824 q 0,0.457 -0.1186,0.838 -0.2116,0.771 -0.8043,1.16 -0.2709,0.178 -0.6181,0.254 -0.3217,0.07 -0.6011,0.06 -0.3133,-0.02 -0.6265,-0.16 -0.2794,-0.127 -0.525,-0.322 l 0,1.482 q 0,0.169 -0.1185,0.304 -0.1355,0.119 -0.3048,0.119 -0.1778,0 -0.2963,-0.119 -0.127,-0.144 -0.127,-0.304 l 0,-2.778 0,-1.185 0,-1.287 q 0,-0.169 0.127,-0.296 0.127,-0.127 0.2963,-0.127 0.1609,0 0.3048,0.127 0.1185,0.118 0.1185,0.296 l 0,0.03 q 0.2625,-0.212 0.525,-0.322 0.3217,-0.144 0.6265,-0.152 0.2794,-0.02 0.6096,0.06 0.3387,0.08 0.6011,0.237 0.4064,0.263 0.635,0.669 0.2964,0.525 0.2964,1.414 z m -3.2936,-0.567 0,0.999 0.093,0.186 q 0.2032,0.339 0.3979,0.517 0.1693,0.16 0.3725,0.245 0.1778,0.08 0.3387,0.08 0.1778,0 0.3556,-0.04 0.2201,-0.04 0.3556,-0.135 0.3133,-0.203 0.4487,-0.677 0.085,-0.288 0.085,-0.61 0,-0.669 -0.1863,-1.007 -0.1354,-0.229 -0.3386,-0.348 -0.1694,-0.101 -0.3641,-0.144 -0.1863,-0.05 -0.3556,-0.04 -0.1609,0 -0.3387,0.09 -0.1947,0.09 -0.381,0.246 -0.2963,0.254 -0.4826,0.635 z"
         id="path4631" />
      <path
         d="m 47.7231,349.263 q 0.127,0.127 0.127,0.305 0,0.178 -0.127,0.297 -0.127,0.127 -0.2963,0.127 l -2.9803,0 q -0.1693,0 -0.2963,-0.127 -0.127,-0.127 -0.127,-0.297 0,-0.821 0.093,-1.134 0.1524,-0.525 0.5504,-0.932 0.4064,-0.406 1.0075,-0.796 0.8297,-0.533 1.0499,-0.829 0.2286,-0.297 0.2286,-0.618 0,-0.229 -0.085,-0.398 -0.1609,-0.373 -0.6096,-0.5 -0.1693,-0.06 -0.3556,-0.06 -0.2117,0 -0.4318,0.02 -0.4826,0.05 -0.8721,0.339 -0.1354,0.08 -0.2455,0.08 -0.1693,0 -0.2963,-0.127 -0.127,-0.118 -0.127,-0.296 0,-0.178 0.127,-0.305 0.034,-0.03 0.051,-0.04 0.5672,-0.398 1.253,-0.491 0.2625,-0.03 0.5419,-0.03 0.2879,0 0.6096,0.09 0.8128,0.254 1.1261,0.949 0.1608,0.347 0.1608,0.762 0,0.592 -0.3979,1.126 -0.1524,0.203 -0.3895,0.406 -0.237,0.203 -0.4064,0.313 -0.1608,0.11 -0.4741,0.314 -0.3302,0.211 -0.5165,0.347 -0.1862,0.135 -0.3979,0.381 -0.2117,0.245 -0.2879,0.516 -0.051,0.178 -0.051,0.483 l 2.5485,0 q 0.1778,0 0.2963,0.118 z"
         id="path4633" />
      <path
         d="m 53.2659,349.661 q 0,0.187 -0.127,0.297 -0.1101,0.127 -0.2964,0.127 -0.1862,0 -0.2963,-0.127 -0.127,-0.11 -0.127,-0.297 l 0,-1.05 -2.0913,0 q -0.1608,0 -0.3048,-0.127 -0.1185,-0.118 -0.1185,-0.296 l 0,-0.364 q 0,-0.08 0.025,-0.152 0.017,-0.04 0.042,-0.09 l 1.8119,-3.861 q 0.034,-0.08 0.085,-0.118 0.11,-0.127 0.2963,-0.127 0.1863,0 0.2963,0.127 0.127,0.11 0.127,0.296 0,0.09 -0.042,0.178 l -1.7272,3.683 1.6002,0 0,-0.982 q 0,-0.187 0.127,-0.297 0.1101,-0.127 0.2963,-0.127 0.1863,0 0.2964,0.127 0.127,0.11 0.127,0.297 l 0,0.982 0.4487,0 q 0.1778,0 0.2963,0.118 0.127,0.127 0.127,0.305 0,0.186 -0.127,0.296 -0.127,0.127 -0.2963,0.127 l -0.4487,0 0,1.05 z"
         id="path4635" />
      <path
         d="m 57.8011,347.325 -1.3547,0 q -0.1693,0 -0.3048,-0.119 -0.1185,-0.135 -0.1185,-0.305 l 0,-0.237 q 0,-0.169 0.1185,-0.305 0.1355,-0.118 0.3048,-0.118 l 3.3867,0 q 0.1778,0 0.2963,0.118 0.127,0.127 0.127,0.305 l 0,0.237 q 0,0.178 -0.127,0.305 -0.1185,0.119 -0.2963,0.119 l -1.3547,0 -0.6773,0 z"
         id="path4637" />
      <path
         d="m 66.3495,345.885 q 0,0.09 -0.025,0.144 l -1.3462,3.785 -0.01,0.02 q -0.025,0.08 -0.1016,0.152 -0.11,0.127 -0.2963,0.127 l -0.6265,0 q -0.1778,0 -0.3048,-0.127 -0.059,-0.06 -0.085,-0.135 -0.017,-0.02 -0.017,-0.04 l -1.3462,-3.776 q -0.025,-0.06 -0.025,-0.144 0,-0.178 0.1185,-0.296 0.1439,-0.127 0.3048,-0.127 0.1693,0 0.2963,0.127 0.059,0.06 0.1016,0.161 l 1.2531,3.513 0.034,0 1.253,-3.513 q 0.025,-0.102 0.1016,-0.161 0.127,-0.127 0.2964,-0.127 0.1693,0 0.2963,0.127 0.127,0.11 0.127,0.296 z"
         id="path4639" />
      <path
         d="m 71.1641,349.661 q 0,0.17 -0.127,0.297 -0.11,0.127 -0.2963,0.127 -0.1778,0 -0.3048,-0.127 -0.1185,-0.119 -0.1185,-0.297 l 0,-5.063 -1.0922,0.932 q -0.1101,0.101 -0.2794,0.101 -0.1778,0 -0.2964,-0.118 -0.127,-0.144 -0.127,-0.305 0,-0.186 0.1524,-0.322 l 1.524,-1.304 q 0.034,-0.03 0.1016,-0.07 0.068,-0.03 0.1694,-0.03 l 0.2709,0 q 0.1863,0 0.2963,0.127 0.127,0.127 0.127,0.296 l 0,5.757 z"
         id="path4641" />
      <path
         d="m 78.2986,349.687 q 0,0.169 -0.127,0.296 -0.1101,0.127 -0.2963,0.127 -0.1778,0 -0.3048,-0.127 -0.1186,-0.118 -0.1186,-0.296 l 0,-0.07 q -0.076,0.06 -0.2455,0.178 -0.5757,0.381 -1.2277,0.338 -0.4064,-0.03 -0.7535,-0.237 -0.3471,-0.211 -0.5503,-0.558 -0.1778,-0.314 -0.1778,-0.644 0,-0.372 0.1778,-0.694 0.2201,-0.39 0.6688,-0.61 0.3895,-0.186 1.1261,-0.237 l 0.9821,-0.02 q -0.051,-0.5 -0.254,-0.686 -0.2116,-0.203 -0.7027,-0.203 -0.5249,0 -0.9229,0.322 -0.11,0.08 -0.2624,0.08 -0.1694,0 -0.3048,-0.118 -0.1186,-0.136 -0.1186,-0.305 0,-0.178 0.1186,-0.296 0.01,-0 0.017,-0.02 0.017,-0 0.025,-0.02 0.6435,-0.5 1.4478,-0.5 0.8213,0 1.2785,0.423 0.4572,0.432 0.5164,1.245 0.025,0.212 0.01,0.457 l 0,0.03 0,0.02 0,0 0,0.846 0,1.262 z m -0.8467,-1.38 0,-0.331 q -0.4741,0 -0.9398,0.03 -0.5503,0.03 -0.8043,0.152 -0.2032,0.102 -0.2963,0.263 -0.068,0.11 -0.068,0.279 0,0.11 0.068,0.22 0.1947,0.347 0.6265,0.373 0.3725,0.03 0.7112,-0.203 0.1778,-0.119 0.3895,-0.356 0.1524,-0.169 0.3132,-0.423 z"
         id="path4643" />
      <path
         d="m 81.5808,349.661 0,-0.33 0,-0.161 0,-0.33 q 0,-0.169 0.127,-0.296 0.1185,-0.127 0.2963,-0.127 l 1.2107,0 q 0.1778,0 0.3048,0.127 0.1186,0.118 0.1186,0.296 l 0,0.821 q 0,0.178 -0.1186,0.297 -0.127,0.127 -0.3048,0.127 l -1.2107,0 q -0.1778,0 -0.2963,-0.127 -0.127,-0.127 -0.127,-0.297 z"
         id="path4645" />
      <path
         d="m 90.561,348.738 q 0,0.229 -0.076,0.441 -0.1524,0.423 -0.5673,0.677 -0.2709,0.152 -0.6265,0.22 -0.2371,0.04 -0.5504,0.06 -0.3132,0 -0.5503,-0.03 -0.3471,-0.04 -0.6265,-0.187 -0.3387,-0.177 -0.5504,-0.516 -0.059,-0.09 -0.059,-0.22 0,-0.178 0.1185,-0.297 0.127,-0.127 0.3048,-0.127 0.1778,0 0.2963,0.127 0.025,0.02 0.059,0.07 0.093,0.144 0.2286,0.22 0.1355,0.06 0.3471,0.09 0.1355,0.03 0.4149,0.03 0.2879,-0.02 0.4149,-0.04 0.237,-0.05 0.3386,-0.118 0.144,-0.08 0.2117,-0.237 0.025,-0.08 0.025,-0.153 0,-0.152 -0.085,-0.237 -0.034,-0.03 -0.1185,-0.08 -0.1524,-0.08 -0.4064,-0.136 l -0.4826,-0.135 -0.4995,-0.136 q -0.4064,-0.127 -0.6181,-0.288 -0.2201,-0.16 -0.3556,-0.431 -0.1439,-0.271 -0.1439,-0.585 0,-0.414 0.2201,-0.719 0.1185,-0.178 0.2963,-0.297 0.4149,-0.296 1.2108,-0.296 l 0.2624,0 q 0.4911,0.03 0.8806,0.263 0.3894,0.237 0.4995,0.652 0.017,0.08 0.017,0.11 0,0.16 -0.127,0.304 -0.1354,0.119 -0.2963,0.119 -0.1693,0 -0.3048,-0.119 -0.085,-0.101 -0.1101,-0.194 -0.059,-0.254 -0.6011,-0.288 l -0.2201,0 q -0.525,0 -0.7197,0.135 -0.042,0.03 -0.093,0.09 -0.068,0.09 -0.068,0.237 0,0.09 0.042,0.195 0.051,0.08 0.127,0.153 0.1016,0.08 0.3471,0.144 l 0.4741,0.135 0.4826,0.127 q 0.4064,0.127 0.5588,0.203 0.2371,0.119 0.3641,0.254 0.3133,0.322 0.3133,0.821 z"
         id="path4647" />
      <path
         d="m 96.9419,345.885 q 0,0.09 -0.025,0.144 l -1.3462,3.785 -0.01,0.02 q -0.025,0.08 -0.1016,0.152 -0.1101,0.127 -0.2964,0.127 l -0.6265,0 q -0.1778,0 -0.3048,-0.127 -0.059,-0.06 -0.085,-0.135 -0.017,-0.02 -0.017,-0.04 l -1.3462,-3.776 q -0.025,-0.06 -0.025,-0.144 0,-0.178 0.1185,-0.296 0.144,-0.127 0.3048,-0.127 0.1694,0 0.2964,0.127 0.059,0.06 0.1016,0.161 l 1.253,3.513 0.034,0 1.2531,-3.513 q 0.025,-0.102 0.1016,-0.161 0.127,-0.127 0.2963,-0.127 0.1693,0 0.2963,0.127 0.127,0.11 0.127,0.296 z"
         id="path4649" />
      <path
         d="m 102.866,347.24 0,0.897 0,1.355 q 0.101,0.601 -0.161,1.168 -0.195,0.432 -0.542,0.661 -0.246,0.169 -0.635,0.228 -0.33,0.06 -0.559,0.06 -0.262,0 -0.525,-0.03 -0.398,-0.03 -0.6178,-0.135 -0.4234,-0.186 -0.6012,-0.601 -0.034,-0.07 -0.034,-0.17 0,-0.177 0.1185,-0.296 0.127,-0.127 0.3048,-0.127 0.1778,0 0.2963,0.127 0.051,0.04 0.093,0.127 0.05,0.119 0.169,0.169 0.08,0.04 0.347,0.06 0.221,0.02 0.441,0.02 0.186,0 0.415,-0.04 0.211,-0.03 0.33,-0.11 0.135,-0.09 0.228,-0.297 0.144,-0.321 0.102,-0.686 -0,-0 -0.02,-0.03 0,-0.02 0,-0.03 l 0,-0.05 0,-0.16 q -0.169,0.16 -0.373,0.27 -0.279,0.136 -0.609,0.187 -0.153,0.02 -0.313,0.02 -0.161,0 -0.314,-0.02 -0.381,-0.08 -0.6346,-0.229 -0.3895,-0.237 -0.6435,-0.753 -0.254,-0.551 -0.254,-1.11 0,-0.812 0.2625,-1.303 0.2455,-0.449 0.635,-0.695 0.5336,-0.33 1.2276,-0.279 0.347,0.03 0.627,0.161 0.203,0.09 0.389,0.254 0.02,-0.17 0.127,-0.271 0.127,-0.127 0.296,-0.127 0.17,0 0.297,0.127 0.127,0.11 0.127,0.296 l 0,1.355 z m -0.847,0.779 0,-0.703 q -0.135,-0.347 -0.398,-0.669 -0.178,-0.195 -0.347,-0.279 -0.152,-0.07 -0.339,-0.08 -0.406,-0.03 -0.711,0.153 -0.212,0.135 -0.3301,0.372 -0.1693,0.313 -0.1693,0.914 0,0.381 0.1693,0.737 0.1611,0.305 0.3301,0.406 0.136,0.08 0.33,0.111 0.06,0.02 0.17,0.02 0.06,0 0.177,-0.02 0.229,-0.03 0.356,-0.102 0.161,-0.09 0.356,-0.313 0.211,-0.237 0.406,-0.542 z"
         id="path4651" />
      <path
         d="m 127.263,349.263 q 0.127,0.127 0.127,0.305 0,0.178 -0.127,0.297 -0.127,0.127 -0.296,0.127 l -2.98,0 q -0.17,0 -0.297,-0.127 -0.127,-0.127 -0.127,-0.297 0,-0.821 0.09,-1.134 0.152,-0.525 0.55,-0.932 0.406,-0.406 1.007,-0.796 0.83,-0.533 1.05,-0.829 0.229,-0.297 0.229,-0.618 0,-0.229 -0.08,-0.398 -0.161,-0.373 -0.609,-0.5 -0.17,-0.06 -0.356,-0.06 -0.212,0 -0.432,0.02 -0.482,0.05 -0.872,0.339 -0.135,0.08 -0.245,0.08 -0.17,0 -0.297,-0.127 -0.127,-0.118 -0.127,-0.296 0,-0.178 0.127,-0.305 0.03,-0.03 0.05,-0.04 0.567,-0.398 1.253,-0.491 0.263,-0.03 0.542,-0.03 0.288,0 0.61,0.09 0.812,0.254 1.126,0.949 0.161,0.347 0.161,0.762 0,0.592 -0.398,1.126 -0.153,0.203 -0.39,0.406 -0.237,0.203 -0.406,0.313 -0.161,0.11 -0.474,0.314 -0.331,0.211 -0.517,0.347 -0.186,0.135 -0.398,0.381 -0.211,0.245 -0.288,0.516 -0.05,0.178 -0.05,0.483 l 2.548,0 q 0.178,0 0.296,0.118 z"
         id="path4653" />
      <path
         d="m 133.678,347.096 q 0,0.533 -0.08,0.999 -0.08,0.466 -0.245,0.897 -0.17,0.424 -0.483,0.712 -0.313,0.288 -0.745,0.372 -0.102,0.03 -0.203,0.03 -0.03,0 -0.07,0 l -0.102,0 -0.194,0 q -0.407,0 -0.568,-0.03 -0.567,-0.11 -0.931,-0.584 -0.364,-0.483 -0.491,-1.075 -0.127,-0.593 -0.127,-1.321 0,-0.694 0.05,-1.202 0.05,-0.508 0.194,-1.059 0.144,-0.558 0.475,-0.897 0.33,-0.347 0.829,-0.449 0.161,-0.03 0.568,-0.03 0.398,0 0.567,0.03 0.499,0.102 0.83,0.449 0.33,0.339 0.474,0.897 0.144,0.551 0.194,1.059 0.05,0.508 0.05,1.202 z m -2.116,2.167 0.186,0 q 0.144,0 0.212,-0.02 0.296,-0.06 0.482,-0.262 0.186,-0.203 0.263,-0.542 0.08,-0.339 0.101,-0.618 0.03,-0.288 0.03,-0.728 0,-0.339 -0,-0.517 0,-0.186 -0.02,-0.508 -0,-0.321 -0.04,-0.508 -0.03,-0.194 -0.102,-0.44 -0.06,-0.245 -0.152,-0.389 -0.08,-0.144 -0.229,-0.263 -0.144,-0.118 -0.321,-0.152 -0.08,-0.02 -0.398,-0.02 -0.322,0 -0.407,0.02 -0.211,0.04 -0.364,0.178 -0.152,0.127 -0.245,0.372 -0.09,0.237 -0.153,0.457 -0.05,0.212 -0.08,0.585 -0.02,0.364 -0.03,0.575 0,0.212 0,0.61 0,0.347 0,0.576 0,0.22 0.05,0.525 0.05,0.304 0.135,0.499 0.09,0.186 0.263,0.347 0.169,0.153 0.406,0.203 0.09,0.02 0.407,0.02 z"
         id="path4655" />
      <path
         d="m 138.467,349.661 q 0,0.17 -0.127,0.297 -0.11,0.127 -0.296,0.127 -0.178,0 -0.305,-0.127 -0.118,-0.119 -0.118,-0.297 l 0,-5.063 -1.092,0.932 q -0.11,0.101 -0.28,0.101 -0.178,0 -0.296,-0.118 -0.127,-0.144 -0.127,-0.305 0,-0.186 0.152,-0.322 l 1.524,-1.304 q 0.03,-0.03 0.102,-0.07 0.07,-0.03 0.169,-0.03 l 0.271,0 q 0.186,0 0.296,0.127 0.127,0.127 0.127,0.296 l 0,5.757 z"
         id="path4657" />
      <path
         d="m 145.67,346.901 q 0.245,0.466 0.245,1.16 0,0.694 -0.372,1.219 -0.28,0.39 -0.745,0.618 -0.432,0.212 -0.999,0.212 -0.576,0 -1.008,-0.212 -0.449,-0.22 -0.745,-0.618 -0.364,-0.525 -0.364,-1.202 l 0,-0 0,-0.187 q 0.02,-0.533 0.11,-0.889 0.127,-0.491 0.483,-1.083 0.44,-0.729 1.202,-1.609 l 0.643,-0.694 q 0.127,-0.127 0.305,-0.127 0.178,0 0.296,0.127 0.127,0.11 0.127,0.296 0,0.161 -0.11,0.288 l -0.626,0.669 q -0.5,0.575 -0.838,1.067 0.254,-0.05 0.525,-0.05 0.694,0 1.185,0.305 0.466,0.27 0.686,0.719 z m -3.141,1.16 q 0,0.432 0.211,0.728 0.136,0.212 0.415,0.347 0.279,0.127 0.644,0.127 0.364,0 0.643,-0.127 0.262,-0.135 0.415,-0.347 0.212,-0.313 0.212,-0.728 0,-0.482 -0.144,-0.77 -0.119,-0.22 -0.373,-0.39 -0.322,-0.178 -0.753,-0.178 -0.517,0 -0.813,0.229 -0.305,0.229 -0.424,0.72 -0.03,0.169 -0.03,0.389 z"
         id="path4659" />
      <path
         d="m 149.578,347.325 -1.354,0 q -0.17,0 -0.305,-0.119 -0.119,-0.135 -0.119,-0.305 l 0,-0.237 q 0,-0.169 0.119,-0.305 0.135,-0.118 0.305,-0.118 l 3.386,0 q 0.178,0 0.297,0.118 0.127,0.127 0.127,0.305 l 0,0.237 q 0,0.178 -0.127,0.305 -0.119,0.119 -0.297,0.119 l -1.354,0 -0.678,0 z"
         id="path4661" />
      <path
         d="m 158.152,347.096 q 0,0.533 -0.08,0.999 -0.08,0.466 -0.246,0.897 -0.169,0.424 -0.482,0.712 -0.313,0.288 -0.745,0.372 -0.102,0.03 -0.203,0.03 -0.03,0 -0.07,0 l -0.102,0 -0.194,0 q -0.407,0 -0.568,-0.03 -0.567,-0.11 -0.931,-0.584 -0.364,-0.483 -0.491,-1.075 -0.127,-0.593 -0.127,-1.321 0,-0.694 0.05,-1.202 0.05,-0.508 0.194,-1.059 0.144,-0.558 0.475,-0.897 0.33,-0.347 0.829,-0.449 0.161,-0.03 0.568,-0.03 0.397,0 0.567,0.03 0.499,0.102 0.83,0.449 0.33,0.339 0.474,0.897 0.144,0.551 0.194,1.059 0.05,0.508 0.05,1.202 z m -2.116,2.167 0.186,0 q 0.144,0 0.211,-0.02 0.297,-0.06 0.483,-0.262 0.186,-0.203 0.263,-0.542 0.08,-0.339 0.101,-0.618 0.03,-0.288 0.03,-0.728 0,-0.339 -0,-0.517 0,-0.186 -0.02,-0.508 -0,-0.321 -0.04,-0.508 -0.03,-0.194 -0.102,-0.44 -0.06,-0.245 -0.152,-0.389 -0.09,-0.144 -0.229,-0.263 -0.144,-0.118 -0.322,-0.152 -0.08,-0.02 -0.397,-0.02 -0.322,0 -0.407,0.02 -0.212,0.04 -0.364,0.178 -0.152,0.127 -0.245,0.372 -0.09,0.237 -0.153,0.457 -0.05,0.212 -0.08,0.585 -0.02,0.364 -0.03,0.575 0,0.212 0,0.61 0,0.347 0,0.576 0,0.22 0.05,0.525 0.05,0.304 0.135,0.499 0.09,0.186 0.263,0.347 0.169,0.153 0.406,0.203 0.09,0.02 0.407,0.02 z"
         id="path4663" />
      <path
         d="m 164.271,348.307 q 0,0.652 -0.449,1.143 -0.44,0.491 -1.109,0.618 -0.254,0.04 -0.466,0.04 -0.03,0 -0.09,0 -0.313,0 -0.576,-0.06 -0.66,-0.144 -1.1,-0.626 -0.441,-0.491 -0.441,-1.126 0,-0.881 0.872,-1.634 0.07,-0.05 0.356,-0.263 -0.389,-0.228 -0.61,-0.508 -0.33,-0.449 -0.33,-0.982 0,-0.618 0.551,-1.058 0.533,-0.407 1.278,-0.407 0.745,0 1.278,0.407 0.551,0.44 0.551,1.058 0,0.533 -0.33,0.982 -0.204,0.263 -0.61,0.508 0.237,0.169 0.347,0.263 0.881,0.745 0.881,1.634 z m -2.117,-2.379 q 0.677,-0.339 0.821,-0.534 0.161,-0.212 0.161,-0.474 0,-0.22 -0.228,-0.389 -0.288,-0.229 -0.754,-0.229 -0.466,0 -0.754,0.229 -0.228,0.169 -0.228,0.389 0,0.262 0.161,0.474 0.144,0.195 0.821,0.534 z m 0,0.939 q -0.389,0.204 -0.694,0.458 -0.576,0.482 -0.576,0.982 0,0.338 0.246,0.592 0.254,0.254 0.626,0.339 0.22,0.03 0.322,0.03 0.03,-0 0.08,-0 0.229,0 0.406,-0.03 0.364,-0.07 0.61,-0.322 0.254,-0.254 0.254,-0.601 0,-0.5 -0.576,-0.982 -0.305,-0.254 -0.694,-0.458 z"
         id="path4665" />
      <path
         d="m 167.934,347.325 -1.355,0 q -0.169,0 -0.305,-0.119 -0.118,-0.135 -0.118,-0.305 l 0,-0.237 q 0,-0.169 0.118,-0.305 0.136,-0.118 0.305,-0.118 l 3.387,0 q 0.178,0 0.296,0.118 0.127,0.127 0.127,0.305 l 0,0.237 q 0,0.178 -0.127,0.305 -0.118,0.119 -0.296,0.119 l -1.355,0 -0.677,0 z"
         id="path4667" />
      <path
         d="m 176.211,349.263 q 0.127,0.127 0.127,0.305 0,0.178 -0.127,0.297 -0.127,0.127 -0.296,0.127 l -2.98,0 q -0.17,0 -0.297,-0.127 -0.127,-0.127 -0.127,-0.297 0,-0.821 0.09,-1.134 0.153,-0.525 0.551,-0.932 0.406,-0.406 1.007,-0.796 0.83,-0.533 1.05,-0.829 0.229,-0.297 0.229,-0.618 0,-0.229 -0.09,-0.398 -0.161,-0.373 -0.609,-0.5 -0.17,-0.06 -0.356,-0.06 -0.212,0 -0.432,0.02 -0.482,0.05 -0.872,0.339 -0.135,0.08 -0.245,0.08 -0.17,0 -0.297,-0.127 -0.127,-0.118 -0.127,-0.296 0,-0.178 0.127,-0.305 0.03,-0.03 0.05,-0.04 0.567,-0.398 1.253,-0.491 0.263,-0.03 0.542,-0.03 0.288,0 0.61,0.09 0.812,0.254 1.126,0.949 0.16,0.347 0.16,0.762 0,0.592 -0.397,1.126 -0.153,0.203 -0.39,0.406 -0.237,0.203 -0.406,0.313 -0.161,0.11 -0.474,0.314 -0.331,0.211 -0.517,0.347 -0.186,0.135 -0.398,0.381 -0.212,0.245 -0.288,0.516 -0.05,0.178 -0.05,0.483 l 2.549,0 q 0.178,0 0.296,0.118 z"
         id="path4669" />
      <path
         d="m 181.779,345.648 q 0,-0.474 -0.16,-0.762 -0.161,-0.279 -0.466,-0.432 -0.296,-0.152 -0.644,-0.152 -0.533,0 -0.905,0.398 -0.365,0.398 -0.365,0.948 0,0.347 0.161,0.635 0.161,0.288 0.449,0.432 0.254,0.127 0.66,0.127 0.72,0 1,-0.279 0.135,-0.136 0.186,-0.305 0.08,-0.322 0.08,-0.61 z m -0.753,2.007 q -0.229,0.03 -0.517,0.03 -0.618,0 -1.032,-0.212 -0.508,-0.254 -0.796,-0.745 -0.288,-0.5 -0.288,-1.084 0,-0.897 0.618,-1.541 0.618,-0.652 1.498,-0.652 0.576,0 1.076,0.271 0.499,0.263 0.77,0.745 0.271,0.491 0.271,1.177 0,0.423 -0.09,0.745 -0.161,0.652 -0.593,1.406 -0.745,1.253 -1.778,2.176 -0.127,0.11 -0.279,0.11 -0.178,0 -0.305,-0.127 -0.118,-0.119 -0.118,-0.297 0,-0.194 0.135,-0.313 0.838,-0.762 1.431,-1.693 z"
         id="path4671" />
      <path
         d="m 188.431,349.687 q 0,0.169 -0.127,0.296 -0.11,0.127 -0.296,0.127 -0.178,0 -0.305,-0.127 -0.118,-0.118 -0.118,-0.296 l 0,-0.07 q -0.08,0.06 -0.246,0.178 -0.576,0.381 -1.228,0.338 -0.406,-0.03 -0.753,-0.237 -0.347,-0.211 -0.55,-0.558 -0.178,-0.314 -0.178,-0.644 0,-0.372 0.178,-0.694 0.22,-0.39 0.668,-0.61 0.39,-0.186 1.127,-0.237 l 0.982,-0.02 q -0.05,-0.5 -0.254,-0.686 -0.212,-0.203 -0.703,-0.203 -0.525,0 -0.923,0.322 -0.11,0.08 -0.262,0.08 -0.17,0 -0.305,-0.118 -0.119,-0.136 -0.119,-0.305 0,-0.178 0.119,-0.296 0,-0 0.02,-0.02 0.02,-0 0.03,-0.02 0.644,-0.5 1.448,-0.5 0.821,0 1.278,0.423 0.458,0.432 0.517,1.245 0.03,0.212 0,0.457 l 0,0.03 0,0.02 0,0 0,0.846 0,1.262 z m -0.846,-1.38 0,-0.331 q -0.474,0 -0.94,0.03 -0.55,0.03 -0.804,0.152 -0.204,0.102 -0.297,0.263 -0.07,0.11 -0.07,0.279 0,0.11 0.07,0.22 0.195,0.347 0.627,0.373 0.372,0.03 0.711,-0.203 0.178,-0.119 0.389,-0.356 0.153,-0.169 0.314,-0.423 z"
         id="path4673" />
      <path
         d="m 212.253,348.468 0,-4.081 q 0,-0.178 0.119,-0.297 0.144,-0.127 0.305,-0.127 0.152,0 0.296,0.127 0.127,0.127 0.127,0.297 l 0,5.274 q 0,0.17 -0.127,0.297 -0.127,0.127 -0.296,0.127 l -0.322,0 q -0.178,0 -0.296,-0.127 -0.05,-0.04 -0.09,-0.11 l -2.024,-4.242 0,4.055 q 0,0.187 -0.127,0.297 -0.118,0.127 -0.296,0.127 -0.178,0 -0.296,-0.127 -0.127,-0.11 -0.127,-0.297 l 0,-5.274 q 0,-0.178 0.127,-0.297 0.127,-0.127 0.296,-0.127 l 0.313,0 q 0.161,0 0.305,0.127 0.06,0.06 0.102,0.161 l 2.006,4.217 z"
         id="path4675" />
      <path
         d="m 219.337,347.748 q 0,0.178 -0.127,0.305 -0.119,0.118 -0.296,0.118 l -3.387,0 q -0.169,0 -0.305,-0.118 -0.118,-0.136 -0.118,-0.305 0,-0.178 0.118,-0.296 0.144,-0.127 0.305,-0.127 l 3.387,0 q 0.169,0 0.296,0.127 0.127,0.11 0.127,0.296 z m 0,-1.931 q 0,0.187 -0.127,0.297 -0.119,0.127 -0.296,0.127 l -3.387,0 q -0.178,0 -0.305,-0.127 -0.118,-0.119 -0.118,-0.297 0,-0.169 0.118,-0.304 0.136,-0.119 0.305,-0.119 l 3.387,0 q 0.177,0 0.296,0.119 0.127,0.127 0.127,0.304 z"
         id="path4677" />
      <path
         d="m 224.49,348.468 0,-4.081 q 0,-0.178 0.119,-0.297 0.144,-0.127 0.305,-0.127 0.152,0 0.296,0.127 0.127,0.127 0.127,0.297 l 0,5.274 q 0,0.17 -0.127,0.297 -0.127,0.127 -0.296,0.127 l -0.322,0 q -0.178,0 -0.296,-0.127 -0.05,-0.04 -0.08,-0.11 l -2.024,-4.242 0,4.055 q 0,0.187 -0.127,0.297 -0.118,0.127 -0.296,0.127 -0.178,0 -0.296,-0.127 -0.127,-0.11 -0.127,-0.297 l 0,-5.274 q 0,-0.178 0.127,-0.297 0.127,-0.127 0.296,-0.127 l 0.313,0 q 0.161,0 0.305,0.127 0.06,0.06 0.102,0.161 l 2.006,4.217 z"
         id="path4679" />
      <path
         d="m 231.574,347.748 q 0,0.178 -0.127,0.305 -0.119,0.118 -0.296,0.118 l -3.387,0 q -0.169,0 -0.305,-0.118 -0.118,-0.136 -0.118,-0.305 0,-0.178 0.118,-0.296 0.144,-0.127 0.305,-0.127 l 3.387,0 q 0.169,0 0.296,0.127 0.127,0.11 0.127,0.296 z m 0,-1.931 q 0,0.187 -0.127,0.297 -0.119,0.127 -0.296,0.127 l -3.387,0 q -0.178,0 -0.305,-0.127 -0.118,-0.119 -0.118,-0.297 0,-0.169 0.118,-0.304 0.136,-0.119 0.305,-0.119 l 3.387,0 q 0.177,0 0.296,0.119 0.127,0.127 0.127,0.304 z"
         id="path4681" />
      <path
         d="m 236.727,348.468 0,-4.081 q 0,-0.178 0.119,-0.297 0.144,-0.127 0.305,-0.127 0.152,0 0.296,0.127 0.127,0.127 0.127,0.297 l 0,5.274 q 0,0.17 -0.127,0.297 -0.127,0.127 -0.296,0.127 l -0.322,0 q -0.178,0 -0.296,-0.127 -0.05,-0.04 -0.08,-0.11 l -2.024,-4.242 0,4.055 q 0,0.187 -0.127,0.297 -0.118,0.127 -0.296,0.127 -0.178,0 -0.296,-0.127 -0.127,-0.11 -0.127,-0.297 l 0,-5.274 q 0,-0.178 0.127,-0.297 0.127,-0.127 0.296,-0.127 l 0.313,0 q 0.161,0 0.305,0.127 0.06,0.06 0.102,0.161 l 2.006,4.217 z"
         id="path4683" />
    </g>
    <g
       transform="matrix(0,-1,1,0,0,0)"
       style="font-size:10px;font-family:'DejaVu Sans';-inkscape-font-specification:'DejaVu Sans, Normal';fill:none;stroke:#ff0000;stroke-width:0.01"
       id="text12">
      <path
         d="m -334.512,348.699 0,3.301 -0.898,0 0,-3.271 q 0,-0.777 -0.303,-1.163 -0.303,-0.385 -0.908,-0.385 -0.728,0 -1.148,0.464 -0.419,0.463 -0.419,1.264 l 0,3.091 -0.904,0 0,-7.598 0.904,0 0,2.979 q 0.322,-0.493 0.756,-0.737 0.44,-0.245 1.011,-0.245 0.942,0 1.426,0.586 0.483,0.581 0.483,1.714 z"
         id="path4686" />
      <path
         d="m -331.821,344.979 0,1.552 1.85,0 0,0.698 -1.85,0 0,2.969 q 0,0.669 0.18,0.86 0.186,0.19 0.747,0.19 l 0.923,0 0,0.752 -0.923,0 q -1.04,0 -1.435,-0.386 -0.396,-0.39 -0.396,-1.416 l 0,-2.969 -0.659,0 0,-0.698 0.659,0 0,-1.552 0.904,0 z"
         id="path4688" />
      <path
         d="m -327.896,344.979 0,1.552 1.851,0 0,0.698 -1.851,0 0,2.969 q 0,0.669 0.181,0.86 0.186,0.19 0.747,0.19 l 0.923,0 0,0.752 -0.923,0 q -1.04,0 -1.435,-0.386 -0.396,-0.39 -0.396,-1.416 l 0,-2.969 -0.659,0 0,-0.698 0.659,0 0,-1.552 0.903,0 z"
         id="path4690" />
      <path
         d="m -323.989,351.18 0,2.9 -0.904,0 0,-7.549 0.904,0 0,0.83 q 0.283,-0.488 0.713,-0.722 0.434,-0.24 1.035,-0.24 0.996,0 1.616,0.791 0.625,0.791 0.625,2.081 0,1.289 -0.625,2.08 -0.62,0.791 -1.616,0.791 -0.601,0 -1.035,-0.235 -0.43,-0.239 -0.713,-0.727 z m 3.056,-1.909 q 0,-0.992 -0.41,-1.553 -0.405,-0.567 -1.118,-0.567 -0.713,0 -1.123,0.567 -0.405,0.561 -0.405,1.553 0,0.991 0.405,1.557 0.41,0.562 1.123,0.562 0.713,0 1.118,-0.562 0.41,-0.566 0.41,-1.557 z"
         id="path4692" />
      <path
         d="m -318.281,350.76 1.03,0 0,1.24 -1.03,0 0,-1.24 z m 0,-3.931 1.03,0 0,1.24 -1.03,0 0,-1.24 z"
         id="path4694" />
      <path
         d="m -313.535,344.71 0.83,0 -2.539,8.218 -0.83,0 2.539,-8.218 z"
         id="path4696" />
      <path
         d="m -310.156,344.71 0.83,0 -2.539,8.218 -0.83,0 2.539,-8.218 z"
         id="path4698" />
      <path
         d="m -307.349,345.521 0,2.739 1.241,0 q 0.688,0 1.064,-0.357 0.376,-0.356 0.376,-1.015 0,-0.655 -0.376,-1.011 -0.376,-0.356 -1.064,-0.356 l -1.241,0 z m -0.986,-0.811 2.227,0 q 1.225,0 1.85,0.557 0.63,0.551 0.63,1.621 0,1.079 -0.63,1.631 -0.625,0.551 -1.85,0.551 l -1.241,0 0,2.93 -0.986,0 0,-7.29 z"
         id="path4700" />
      <path
         d="m -299.346,347.371 q -0.151,-0.09 -0.332,-0.127 -0.176,-0.04 -0.39,-0.04 -0.762,0 -1.172,0.498 -0.406,0.493 -0.406,1.421 l 0,2.881 -0.903,0 0,-5.469 0.903,0 0,0.85 q 0.284,-0.498 0.738,-0.737 0.454,-0.245 1.103,-0.245 0.09,0 0.205,0.01 0.113,0.01 0.249,0.03 l 0,0.923 z"
         id="path4702" />
      <path
         d="m -296.489,347.161 q -0.723,0 -1.143,0.567 -0.42,0.561 -0.42,1.543 0,0.981 0.415,1.547 0.42,0.562 1.148,0.562 0.718,0 1.137,-0.567 0.42,-0.566 0.42,-1.542 0,-0.972 -0.42,-1.539 -0.419,-0.571 -1.137,-0.571 z m 0,-0.762 q 1.172,0 1.841,0.762 0.669,0.762 0.669,2.11 0,1.342 -0.669,2.109 -0.669,0.762 -1.841,0.762 -1.177,0 -1.846,-0.762 -0.664,-0.767 -0.664,-2.109 0,-1.348 0.664,-2.11 0.669,-0.762 1.846,-0.762 z"
         id="path4704" />
      <path
         d="m -292.495,346.531 0.898,0 0,5.567 q 0,1.045 -0.4,1.513 -0.396,0.469 -1.279,0.469 l -0.342,0 0,-0.762 0.239,0 q 0.513,0 0.698,-0.239 0.186,-0.234 0.186,-0.981 l 0,-5.567 z m 0,-2.129 0.898,0 0,1.138 -0.898,0 0,-1.138 z"
         id="path4706" />
      <path
         d="m -285.044,349.041 0,0.439 -4.131,0 q 0.06,0.928 0.557,1.416 0.503,0.484 1.396,0.484 0.518,0 1.001,-0.127 0.489,-0.127 0.967,-0.381 l 0,0.85 q -0.483,0.205 -0.991,0.312 -0.508,0.108 -1.03,0.108 -1.309,0 -2.076,-0.762 -0.761,-0.762 -0.761,-2.061 0,-1.342 0.722,-2.129 0.728,-0.791 1.958,-0.791 1.104,0 1.744,0.713 0.644,0.708 0.644,1.929 z m -0.898,-0.264 q -0.01,-0.737 -0.415,-1.176 -0.401,-0.44 -1.065,-0.44 -0.752,0 -1.206,0.425 -0.449,0.425 -0.518,1.196 l 3.204,-0 z"
         id="path4708" />
      <path
         d="m -279.634,346.741 0,0.84 q -0.381,-0.21 -0.766,-0.312 -0.381,-0.108 -0.772,-0.108 -0.874,0 -1.357,0.557 -0.484,0.552 -0.484,1.553 0,1 0.484,1.557 0.483,0.552 1.357,0.552 0.391,0 0.772,-0.103 0.385,-0.107 0.766,-0.317 l 0,0.83 q -0.376,0.176 -0.781,0.264 -0.4,0.09 -0.855,0.09 -1.235,0 -1.962,-0.777 -0.728,-0.776 -0.728,-2.094 0,-1.338 0.732,-2.105 0.738,-0.767 2.017,-0.767 0.415,0 0.811,0.09 0.395,0.08 0.766,0.254 z"
         id="path4710" />
      <path
         d="m -277.173,344.979 0,1.552 1.851,0 0,0.698 -1.851,0 0,2.969 q 0,0.669 0.181,0.86 0.185,0.19 0.747,0.19 l 0.923,0 0,0.752 -0.923,0 q -1.04,0 -1.436,-0.386 -0.395,-0.39 -0.395,-1.416 l 0,-2.969 -0.659,0 0,-0.698 0.659,0 0,-1.552 0.903,0 z"
         id="path4712" />
      <path
         d="m -271.66,345.682 -1.338,3.628 2.681,0 -1.343,-3.628 z m -0.557,-0.972 1.118,0 2.779,7.29 -1.026,0 -0.664,-1.87 -3.286,0 -0.664,1.87 -1.04,0 2.783,-7.29 z"
         id="path4714" />
      <path
         d="m -267.69,346.531 4.267,0 0,0.821 -3.379,3.93 3.379,0 0,0.718 -4.389,0 0,-0.82 3.378,-3.931 -3.256,0 0,-0.718 z"
         id="path4716" />
      <path
         d="m -262.046,346.531 0.899,0 0,5.469 -0.899,0 0,-5.469 z m 0,-2.129 0.899,0 0,1.138 -0.899,0 0,-1.138 z"
         id="path4718" />
      <path
         d="m -255.674,347.361 0,-2.959 0.899,0 0,7.598 -0.899,0 0,-0.82 q -0.283,0.488 -0.718,0.727 -0.429,0.235 -1.035,0.235 -0.991,0 -1.616,-0.791 -0.62,-0.791 -0.62,-2.08 0,-1.29 0.62,-2.081 0.625,-0.791 1.616,-0.791 0.606,0 1.035,0.24 0.435,0.234 0.718,0.722 z m -3.061,1.91 q 0,0.991 0.405,1.557 0.41,0.562 1.123,0.562 0.713,0 1.123,-0.562 0.41,-0.566 0.41,-1.557 0,-0.992 -0.41,-1.553 -0.41,-0.567 -1.123,-0.567 -0.713,0 -1.123,0.567 -0.405,0.561 -0.405,1.553 z"
         id="path4720" />
      <path
         d="m -248.247,349.041 0,0.439 -4.131,0 q 0.06,0.928 0.557,1.416 0.503,0.484 1.396,0.484 0.518,0 1.001,-0.127 0.488,-0.127 0.967,-0.381 l 0,0.85 q -0.483,0.205 -0.991,0.312 -0.508,0.108 -1.031,0.108 -1.308,0 -2.075,-0.762 -0.761,-0.762 -0.761,-2.061 0,-1.342 0.722,-2.129 0.728,-0.791 1.958,-0.791 1.104,0 1.743,0.713 0.645,0.708 0.645,1.929 z m -0.899,-0.264 q -0,-0.737 -0.415,-1.176 -0.4,-0.44 -1.064,-0.44 -0.752,0 -1.206,0.425 -0.449,0.425 -0.518,1.196 l 3.203,-0 z"
         id="path4722" />
      <path
         d="m -246.646,350.76 1.031,0 0,1.24 -1.031,0 0,-1.24 z"
         id="path4724" />
      <path
         d="m -239.99,349.202 q 0,-0.976 -0.406,-1.514 -0.4,-0.537 -1.127,-0.537 -0.723,0 -1.128,0.537 -0.401,0.538 -0.401,1.514 0,0.972 0.401,1.509 0.405,0.537 1.128,0.537 0.727,0 1.127,-0.537 0.406,-0.537 0.406,-1.509 z m 0.898,2.119 q 0,1.397 -0.62,2.075 -0.62,0.684 -1.899,0.684 -0.474,0 -0.894,-0.07 -0.42,-0.07 -0.815,-0.215 l 0,-0.874 q 0.395,0.215 0.781,0.317 0.386,0.103 0.786,0.103 0.884,0 1.323,-0.464 0.44,-0.459 0.44,-1.392 l 0,-0.444 q -0.279,0.483 -0.713,0.723 -0.435,0.239 -1.04,0.239 -1.006,0 -1.621,-0.767 -0.615,-0.766 -0.615,-2.031 0,-1.269 0.615,-2.036 0.615,-0.767 1.621,-0.767 0.605,0 1.04,0.24 0.434,0.239 0.713,0.722 l 0,-0.83 0.898,0 0,4.79 z"
         id="path4726" />
      <path
         d="m -237.241,346.531 0.898,0 0,5.469 -0.898,0 0,-5.469 z m 0,-2.129 0.898,0 0,1.138 -0.898,0 0,-1.138 z"
         id="path4728" />
      <path
         d="m -233.579,344.979 0,1.552 1.85,0 0,0.698 -1.85,0 0,2.969 q 0,0.669 0.181,0.86 0.185,0.19 0.747,0.19 l 0.922,0 0,0.752 -0.922,0 q -1.04,0 -1.436,-0.386 -0.395,-0.39 -0.395,-1.416 l 0,-2.969 -0.66,0 0,-0.698 0.66,0 0,-1.552 0.903,0 z"
         id="path4730" />
      <path
         d="m -225.996,348.699 0,3.301 -0.899,0 0,-3.271 q 0,-0.777 -0.302,-1.163 -0.303,-0.385 -0.908,-0.385 -0.728,0 -1.148,0.464 -0.42,0.463 -0.42,1.264 l 0,3.091 -0.903,0 0,-7.598 0.903,0 0,2.979 q 0.322,-0.493 0.757,-0.737 0.439,-0.245 1.011,-0.245 0.942,0 1.426,0.586 0.483,0.581 0.483,1.714 z"
         id="path4732" />
      <path
         d="m -224.287,349.842 0,-3.311 0.898,0 0,3.277 q 0,0.776 0.303,1.167 0.303,0.385 0.908,0.385 0.728,0 1.148,-0.464 0.425,-0.463 0.425,-1.264 l 0,-3.101 0.898,0 0,5.469 -0.898,0 0,-0.84 q -0.328,0.498 -0.762,0.742 -0.43,0.24 -1.001,0.24 -0.943,0 -1.431,-0.586 -0.488,-0.586 -0.488,-1.714 z m 2.261,-3.443 0,0 z"
         id="path4734" />
      <path
         d="m -213.921,349.271 q 0,-0.992 -0.41,-1.553 -0.405,-0.567 -1.118,-0.567 -0.713,0 -1.123,0.567 -0.406,0.561 -0.406,1.553 0,0.991 0.406,1.557 0.41,0.562 1.123,0.562 0.713,0 1.118,-0.562 0.41,-0.566 0.41,-1.557 z m -3.057,-1.91 q 0.284,-0.488 0.713,-0.722 0.435,-0.24 1.036,-0.24 0.996,0 1.616,0.791 0.625,0.791 0.625,2.081 0,1.289 -0.625,2.08 -0.62,0.791 -1.616,0.791 -0.601,0 -1.036,-0.235 -0.429,-0.239 -0.713,-0.727 l 0,0.82 -0.903,0 0,-7.598 0.903,0 0,2.959 z"
         id="path4736" />
      <path
         d="m -211.372,350.76 1.03,0 0,1.24 -1.03,0 0,-1.24 z"
         id="path4738" />
      <path
         d="m -208.315,346.531 0.898,0 0,5.469 -0.898,0 0,-5.469 z m 0,-2.129 0.898,0 0,1.138 -0.898,0 0,-1.138 z"
         id="path4740" />
      <path
         d="m -203.423,347.161 q -0.723,0 -1.142,0.567 -0.42,0.561 -0.42,1.543 0,0.981 0.415,1.547 0.42,0.562 1.147,0.562 0.718,0 1.138,-0.567 0.42,-0.566 0.42,-1.542 0,-0.972 -0.42,-1.539 -0.42,-0.571 -1.138,-0.571 z m 0,-0.762 q 1.172,0 1.841,0.762 0.669,0.762 0.669,2.11 0,1.342 -0.669,2.109 -0.669,0.762 -1.841,0.762 -1.177,0 -1.846,-0.762 -0.664,-0.767 -0.664,-2.109 0,-1.348 0.664,-2.11 0.669,-0.762 1.846,-0.762 z"
         id="path4742" />
      <path
         d="m -197.832,344.71 0.83,0 -2.539,8.218 -0.83,0 2.539,-8.218 z"
         id="path4744" />
    </g>
    <g
       style="font-size:8.46666px;font-family:OCRB;-inkscape-font-specification:'OCRB, Normal';text-anchor:middle;fill:none;stroke:#ff0000;stroke-width:0.01"
       id="text16">
      <path
         d="m 30.08,-3.33867 q 0,0.18627 -0.127,0.29634 -0.1185,0.127 -0.2963,0.127 -0.1778,0 -0.2963,-0.127 -0.085,-0.0677 -0.1101,-0.18627 l -0.381,-1.45627 -1.7103,0 -0.381,1.45627 q -0.025,0.1016 -0.11,0.18627 -0.1186,0.127 -0.2964,0.127 -0.1778,0 -0.3048,-0.127 -0.1185,-0.11854 -0.1185,-0.29634 0,-0.0677 0.01,-0.11006 l 1.3546,-5.22393 q 0.025,-0.1016 0.1101,-0.18627 0.127,-0.127 0.3048,-0.127 l 0.5757,0 q 0.1778,0 0.2964,0.127 0.051,0.0508 0.068,0.0762 0.051,0.1016 0.051,0.16087 l 0.8721,3.3528 q 0.01,0.0254 0.034,0.11006 l 0.4403,1.71027 q 0.017,0.0423 0.017,0.11006 z m -1.4224,-2.19286 -0.6434,-2.47227 -0.6435,2.47227 1.2869,0 z"
         id="path4747" />
    </g>
    <g
       style="font-size:8.46666px;font-family:OCRB;-inkscape-font-specification:'OCRB, Normal';text-anchor:middle;fill:none;stroke:#ff0000;stroke-width:0.01"
       id="text20">
      <path
         d="m 87.1308,-4.79493 q 0,0.85513 -0.6519,1.35466 -0.5503,0.4318 -1.7103,0.4318 l -1.4478,0 q -0.1608,0 -0.3048,-0.127 Q 82.8975,-3.254 82.8975,-3.4318 l 0,-2.667 0,-2.413 q 0,-0.16933 0.1185,-0.3048 0.1355,-0.11853 0.3048,-0.11853 l 1.4478,0 q 0.9737,0 1.4224,0.24553 0.3556,0.2032 0.5673,0.55034 0.2201,0.34713 0.2455,0.75353 0.068,0.77047 -0.508,1.27847 0.6181,0.49106 0.635,1.31233 z m -2.1166,-1.7272 q 0.6519,0 0.8974,-0.19473 0.2794,-0.2286 0.254,-0.6096 -0.042,-0.4318 -0.3894,-0.62654 -0.254,-0.13546 -1.0076,-0.13546 l -1.0244,0 0,1.56633 1.27,0 z m 0,0.84667 -1.27,0 0,1.82033 1.0244,0 q 0.2879,0 0.4403,-0.008 0.1609,-0.008 0.381,-0.0677 0.2201,-0.0593 0.3725,-0.1778 0.3218,-0.24554 0.3218,-0.67734 -0.017,-0.47413 -0.3895,-0.71119 -0.2794,-0.1778 -0.8805,-0.1778 z"
         id="path4750" />
    </g>
    <g
       style="font-size:8.46666px;font-family:OCRB;-inkscape-font-specification:'OCRB, Normal';text-anchor:middle;fill:none;stroke:#ff0000;stroke-width:0.01"
       id="text24">
      <path
         d="m 143.741,-4.0668 q 0,0.0508 -0,0.0762 -0.09,0.55033 -0.567,0.8636 -0.373,0.23707 -0.856,0.23707 -0.601,0 -1.024,-0.29634 -0.5,-0.33866 -0.737,-1.08373 -0.11,-0.32173 -0.16,-0.69427 -0.07,-0.44026 -0.09,-0.93133 0,-0.66886 0.09,-1.143 0.08,-0.51646 0.27,-0.93133 0.28,-0.59267 0.754,-0.8636 0.381,-0.21166 0.83,-0.2286 0.584,0 0.999,0.3048 0.389,0.3048 0.491,0.77893 0,0.0339 0,0.0931 0,0.1778 -0.127,0.29633 -0.118,0.127 -0.296,0.127 -0.178,0 -0.296,-0.127 -0.09,-0.0762 -0.119,-0.2032 -0.04,-0.18627 -0.178,-0.28787 -0.177,-0.13546 -0.465,-0.13546 -0.246,0.0169 -0.424,0.11006 -0.254,0.16087 -0.406,0.49954 -0.136,0.27093 -0.212,0.7112 -0.07,0.4318 -0.07,0.98213 0.02,0.49107 0.07,0.8128 0.05,0.31326 0.136,0.56726 0.135,0.4572 0.415,0.65194 0.203,0.14393 0.533,0.14393 0.237,0 0.398,-0.1016 0.161,-0.1016 0.203,-0.3048 0.03,-0.127 0.119,-0.22013 0.127,-0.127 0.296,-0.127 0.169,0 0.296,0.127 0.127,0.11006 0.127,0.29633 z"
         id="path4753" />
    </g>
    <g
       style="font-size:8.46666px;font-family:OCRB;-inkscape-font-specification:'OCRB, Normal';text-anchor:middle;fill:none;stroke:#ff0000;stroke-width:0.01"
       id="text28">
      <path
         d="m 199.911,-5.80246 q 0,0.4826 -0.144,0.90593 -0.153,0.46566 -0.449,0.84666 -0.296,0.38947 -0.694,0.635 -0.39,0.24554 -0.923,0.34714 -0.313,0.0593 -0.948,0.0593 -0.17,0 -0.297,-0.127 -0.127,-0.127 -0.127,-0.29633 l 0,-5.08 q 0,-0.16086 0.127,-0.3048 0.119,-0.11853 0.297,-0.11853 0.609,0 0.99,0.11007 0.398,0.11853 0.805,0.39793 0.431,0.31327 0.778,0.77893 0.229,0.31327 0.39,0.72814 0.195,0.508 0.195,1.1176 z m -2.735,-2.26907 0,4.20793 q 0.135,0 0.372,-0.0339 0.356,-0.0677 0.627,-0.23706 0.246,-0.14394 0.474,-0.4318 0.212,-0.2794 0.313,-0.59267 0.102,-0.31326 0.102,-0.65193 0,-0.44027 -0.144,-0.8128 -0.09,-0.254 -0.288,-0.5334 -0.22,-0.31327 -0.576,-0.57573 -0.287,-0.2032 -0.55,-0.2794 -0.144,-0.0423 -0.33,-0.0593 z"
         id="path4756" />
    </g>
    <g
       style="font-size:8.46666px;font-family:OCRB;-inkscape-font-specification:'OCRB, Normal';text-anchor:middle;fill:none;stroke:#ff0000;stroke-width:0.01"
       id="text32">
      <path
         d="m 256.623,-6.0988 q 0,0.1778 -0.127,0.3048 -0.119,0.11854 -0.297,0.11854 l -2.065,0 0,1.82033 2.472,0 q 0.169,0 0.305,0.11853 0.118,0.13547 0.118,0.3048 0,0.1778 -0.118,0.29633 -0.144,0.127 -0.305,0.127 l -2.896,0 q -0.161,0 -0.305,-0.127 -0.118,-0.11853 -0.118,-0.29633 l 0,-2.667 0,-2.413 q 0,-0.16933 0.118,-0.3048 0.136,-0.11853 0.305,-0.11853 l 2.896,0 q 0.169,0 0.305,0.11853 0.118,0.13547 0.118,0.3048 0,0.1778 -0.118,0.29634 -0.144,0.127 -0.305,0.127 l -2.472,0 0,1.56633 2.065,0 q 0.17,0 0.297,0.127 0.127,0.11007 0.127,0.29633 z"
         id="path4759" />
    </g>
    <g
       style="font-size:8.46666px;font-family:OCRB;-inkscape-font-specification:'OCRB, Normal';text-anchor:middle;fill:none;stroke:#ff0000;stroke-width:0.01"
       id="text36">
      <path
         d="m 313.504,-6.0988 q 0,0.16087 -0.127,0.3048 -0.135,0.11854 -0.296,0.11854 l -1.516,0 0,2.33679 q 0,0.18627 -0.127,0.29634 -0.11,0.127 -0.296,0.127 -0.186,0 -0.296,-0.127 -0.127,-0.11007 -0.127,-0.29634 l 0,-2.76013 0,-2.413 q 0,-0.1778 0.127,-0.3048 0.118,-0.11853 0.296,-0.11853 l 2.32,0 q 0.169,0 0.305,0.11853 0.118,0.13547 0.118,0.3048 0,0.1778 -0.118,0.29634 -0.144,0.127 -0.305,0.127 l -1.897,0 0,1.56633 1.516,0 q 0.152,0 0.296,0.127 0.127,0.127 0.127,0.29633 z"
         id="path4762" />
    </g>
    <g
       style="font-size:8.46666px;font-family:OCRB;-inkscape-font-specification:'OCRB, Normal';text-anchor:middle;fill:none;stroke:#ff0000;stroke-width:0.01"
       id="text40">
      <path
         d="m -4.19845,42.6613 q 0,0.1694 -0.127,0.2964 -0.11006,0.127 -0.29633,0.127 -0.1778,0 -0.3048,-0.127 -0.11853,-0.1186 -0.11853,-0.2964 l 0,-5.063 -1.0922,0.9313 q -0.11007,0.1016 -0.2794,0.1016 -0.1778,0 -0.29633,-0.1185 -0.127,-0.144 -0.127,-0.3048 0,-0.1863 0.1524,-0.3218 l 1.524,-1.3038 q 0.0339,-0.034 0.1016,-0.068 0.0677,-0.034 0.16933,-0.034 l 0.27093,0 q 0.18627,0 0.29633,0.127 0.127,0.127 0.127,0.2963 l 0,5.7573 z"
         id="path4765" />
    </g>
    <g
       style="font-size:8.46666px;font-family:OCRB;-inkscape-font-specification:'OCRB, Normal';text-anchor:middle;fill:none;stroke:#ff0000;stroke-width:0.01"
       id="text44">
      <path
         d="m -3.16551,126.263 q 0.127,0.127 0.127,0.305 0,0.178 -0.127,0.297 -0.127,0.127 -0.29634,0.127 l -2.98026,0 q -0.16933,0 -0.29633,-0.127 -0.127,-0.127 -0.127,-0.297 0,-0.821 0.0931,-1.134 0.1524,-0.525 0.55033,-0.932 0.4064,-0.406 1.00754,-0.796 0.82973,-0.533 1.04986,-0.829 0.2286,-0.297 0.2286,-0.618 0,-0.229 -0.0847,-0.398 -0.16086,-0.373 -0.6096,-0.5 -0.16933,-0.06 -0.35559,-0.06 -0.21167,0 -0.4318,0.02 -0.4826,0.05 -0.87207,0.339 -0.13547,0.08 -0.24553,0.08 -0.16934,0 -0.29634,-0.127 -0.127,-0.118 -0.127,-0.296 0,-0.178 0.127,-0.305 0.0339,-0.03 0.0508,-0.04 0.56727,-0.398 1.25307,-0.491 0.26247,-0.03 0.54187,-0.03 0.28786,0 0.60959,0.09 0.8128,0.254 1.12607,0.949 0.16087,0.347 0.16087,0.762 0,0.592 -0.39794,1.126 -0.1524,0.203 -0.38946,0.406 -0.23707,0.203 -0.4064,0.313 -0.16087,0.11 -0.47413,0.314 -0.3302,0.211 -0.51647,0.347 -0.18627,0.135 -0.39793,0.381 -0.21167,0.245 -0.28787,0.516 -0.0508,0.178 -0.0508,0.483 l 2.54846,0 q 0.1778,0 0.29634,0.118 z"
         id="path4768" />
    </g>
    <g
       style="font-size:8.46666px;font-family:OCRB;-inkscape-font-specification:'OCRB, Normal';text-anchor:middle;fill:none;stroke:#ff0000;stroke-width:0.01"
       id="text48">
      <path
         d="m -2.94538,211.087 q -0.0254,0.685 -0.4572,1.219 -0.5588,0.652 -1.53246,0.779 -0.21167,0.03 -0.44027,0.03 -0.77047,0 -1.4732,-0.305 -0.0508,-0.02 -0.13547,-0.08 -0.11853,-0.136 -0.11853,-0.305 0,-0.178 0.11853,-0.297 0.14394,-0.127 0.3048,-0.127 0.0593,0 0.16087,0.03 0.5334,0.237 1.143,0.237 0.16087,0 0.3302,-0.03 0.64346,-0.07 0.9906,-0.474 0.24553,-0.296 0.26246,-0.72 0.0254,-0.398 -0.18626,-0.703 -0.3048,-0.423 -1.07527,-0.55 -0.27093,-0.04 -0.47413,-0.04 -0.16087,0 -0.28787,-0.127 -0.127,-0.11 -0.127,-0.297 0,-0.177 0.11007,-0.287 l 0.008,-0 1.52399,-1.6 -2.35373,0 q -0.16086,0 -0.3048,-0.127 -0.11853,-0.136 -0.11853,-0.296 0,-0.17 0.11853,-0.305 0.13547,-0.119 0.3048,-0.119 l 3.0734,0 q 0.16087,0 0.29633,0.119 0.127,0.144 0.127,0.305 l 0,0.287 q 0,0.17 -0.11853,0.288 l -1.36313,1.431 q 0.90593,0.22 1.35466,0.838 0.381,0.534 0.33867,1.237 z"
         id="path4771" />
    </g>
    <g
       style="font-size:8.46666px;font-family:OCRB;-inkscape-font-specification:'OCRB, Normal';text-anchor:middle;fill:none;stroke:#ff0000;stroke-width:0.01"
       id="text52">
      <path
         d="m -3.74125,296.661 q 0,0.187 -0.127,0.297 -0.11006,0.127 -0.29633,0.127 -0.18627,0 -0.29633,-0.127 -0.127,-0.11 -0.127,-0.297 l 0,-1.05 -2.09127,0 q -0.16086,0 -0.3048,-0.127 -0.11853,-0.118 -0.11853,-0.296 l 0,-0.364 q 0,-0.08 0.0254,-0.152 0.0169,-0.04 0.0423,-0.09 l 1.81187,-3.861 q 0.0339,-0.08 0.0847,-0.118 0.11006,-0.127 0.29633,-0.127 0.18626,0 0.29633,0.127 0.127,0.11 0.127,0.296 0,0.09 -0.0423,0.178 l -1.7272,3.683 1.6002,0 0,-0.982 q 0,-0.187 0.127,-0.297 0.11006,-0.127 0.29633,-0.127 0.18627,0 0.29633,0.127 0.127,0.11 0.127,0.297 l 0,0.982 0.44874,0 q 0.1778,0 0.29633,0.118 0.127,0.127 0.127,0.305 0,0.186 -0.127,0.296 -0.127,0.127 -0.29633,0.127 l -0.44874,0 0,1.05 z"
         id="path4774" />
    </g>
  </g>
  <g
     inkscape:groupmode="layer"
     inkscape:label="node detail"
     id="g56">
    <path
       style="fill:none;fill-rule:evenodd;stroke:#0000ff;stroke-width:0.01"
       d="M 339.84,1.62 341.46,0 339.84,-1.62 338.22,0 Z"
       id="path58"
       inkscape:connector-curvature="0" />
    <path
       style="fill:none;fill-rule:evenodd;stroke:#0000ff;stroke-width:0.01"
       d="m 339.84,86.68 1.62,-1.62 -1.62,-1.62 -1.62,1.62 z"
       id="path60"
       inkscape:connector-curvature="0" />
    <path
       style="fill:none;fill-rule:evenodd;stroke:#0000ff;stroke-width:0.01"
       d="m 339.84,171.74 1.62,-1.62 -1.62,-1.62 -1.62,1.62 z"
       id="path62"
       inkscape:connector-curvature="0" />
    <path
       style="fill:none;fill-rule:evenodd;stroke:#0000ff;stroke-width:0.01"
       d="m 339.84,256.8 1.62,-1.62 -1.62,-1.62 -1.62,1.62 z"
       id="path64"
       inkscape:connector-curvature="0" />
    <path
       style="fill:none;fill-rule:evenodd;stroke:#0000ff;stroke-width:0.01"
       d="m 339.84,341.86 1.62,-1.62 -1.62,-1.62 -1.62,1.62 z"
       id="path66"
       inkscape:connector-curvature="0" />
    <path
       style="fill:none;fill-rule:evenodd;stroke:#0000ff;stroke-width:0.01"
       d="M 0,341.86 1.62,340.24 0,338.62 -1.62,340.24 Z"
       id="path68"
       inkscape:connector-curvature="0" />
    <path
       style="fill:none;fill-rule:evenodd;stroke:#0000ff;stroke-width:0.01"
       d="m 56.64,341.86 1.62,-1.62 -1.62,-1.62 -1.62,1.62 z"
       id="path70"
       inkscape:connector-curvature="0" />
    <path
       style="fill:none;fill-rule:evenodd;stroke:#0000ff;stroke-width:0.01"
       d="m 113.28,341.86 1.62,-1.62 -1.62,-1.62 -1.62,1.62 z"
       id="path72"
       inkscape:connector-curvature="0" />
    <path
       style="fill:none;fill-rule:evenodd;stroke:#0000ff;stroke-width:0.01"
       d="m 169.92,341.86 1.62,-1.62 -1.62,-1.62 -1.62,1.62 z"
       id="path74"
       inkscape:connector-curvature="0" />
    <path
       style="fill:none;fill-rule:evenodd;stroke:#0000ff;stroke-width:0.01"
       d="m 226.56,341.86 1.62,-1.62 -1.62,-1.62 -1.62,1.62 z"
       id="path76"
       inkscape:connector-curvature="0" />
    <path
       style="fill:none;fill-rule:evenodd;stroke:#0000ff;stroke-width:0.01"
       d="m 283.2,341.86 1.62,-1.62 -1.62,-1.62 -1.62,1.62 z"
       id="path78"
       inkscape:connector-curvature="0" />
    <g
       id="g80">
      <rect
         style="fill:none;stroke:#0000ff;stroke-width:0.01"
         width="2.5"
         height="2.5"
         x="2.25"
         y="2.25"
         id="rect82" />
      <rect
         style="fill:none;stroke:#0000ff;stroke-width:0.01"
         width="2.5"
         height="2.5"
         x="25.25"
         y="2.25"
         id="rect84" />
      <rect
         style="fill:none;stroke:#0000ff;stroke-width:0.01"
         width="2.5"
         height="2.5"
         x="51.25"
         y="2.25"
         id="rect86" />
      <rect
         style="fill:none;stroke:#0000ff;stroke-width:0.01"
         width="2.5"
         height="2.5"
         x="2.25"
         y="60.25"
         id="rect88" />
      <rect
         style="fill:none;stroke:#0000ff;stroke-width:0.01"
         width="2.5"
         height="2.5"
         x="51.25"
         y="60.25"
         id="rect90" />
      <rect
         style="fill:none;stroke:#0000ff;stroke-width:0.01"
         x="3"
         y="82.06"
         width="40"
         height="3"
         id="rect92" />
      <path
         style="fill:none;fill-rule:evenodd;stroke:#0000ff;stroke-width:0.01"
         d="M 0,1.62 1.62,0 0,-1.62 -1.62,0 Z"
         id="path94"
         inkscape:connector-curvature="0" />
    </g>
    <g
       transform="translate(56.64,0)"
       id="g94">
      <rect
         style="fill:none;stroke:#0000ff;stroke-width:0.01"
         width="2.5"
         height="2.5"
         x="2.25"
         y="2.25"
         id="rect96" />
      <rect
         style="fill:none;stroke:#0000ff;stroke-width:0.01"
         width="2.5"
         height="2.5"
         x="25.25"
         y="2.25"
         id="rect98" />
      <rect
         style="fill:none;stroke:#0000ff;stroke-width:0.01"
         width="2.5"
         height="2.5"
         x="51.25"
         y="2.25"
         id="rect100" />
      <rect
         style="fill:none;stroke:#0000ff;stroke-width:0.01"
         width="2.5"
         height="2.5"
         x="2.25"
         y="60.25"
         id="rect102" />
      <rect
         style="fill:none;stroke:#0000ff;stroke-width:0.01"
         width="2.5"
         height="2.5"
         x="51.25"
         y="60.25"
         id="rect104" />
      <rect
         style="fill:none;stroke:#0000ff;stroke-width:0.01"
         x="3"
         y="82.06"
         width="40"
         height="3"
         id="rect106" />
      <path
         style="fill:none;fill-rule:evenodd;stroke:#0000ff;stroke-width:0.01"
         d="M 0,1.62 1.62,0 0,-1.62 -1.62,0 Z"
         id="path108"
         inkscape:connector-curvature="0" />
    </g>
    <g
       transform="translate(113.28,0)"
       id="g110">
      <rect
         style="fill:none;stroke:#0000ff;stroke-width:0.01"
         width="2.5"
         height="2.5"
         x="2.25"
         y="2.25"
         id="rect112" />
      <rect
         style="fill:none;stroke:#0000ff;stroke-width:0.01"
         width="2.5"
         height="2.5"
         x="25.25"
         y="2.25"
         id="rect114" />
      <rect
         style="fill:none;stroke:#0000ff;stroke-width:0.01"
         width="2.5"
         height="2.5"
         x="51.25"
         y="2.25"
         id="rect116" />
      <rect
         style="fill:none;stroke:#0000ff;stroke-width:0.01"
         width="2.5"
         height="2.5"
         x="2.25"
         y="60.25"
         id="rect118" />
      <rect
         style="fill:none;stroke:#0000ff;stroke-width:0.01"
         width="2.5"
         height="2.5"
         x="51.25"
         y="60.25"
         id="rect120" />
      <rect
         style="fill:none;stroke:#0000ff;stroke-width:0.01"
         x="3"
         y="82.06"
         width="40"
         height="3"
         id="rect122" />
      <path
         style="fill:none;fill-rule:evenodd;stroke:#0000ff;stroke-width:0.01"
         d="M 0,1.62 1.62,0 0,-1.62 -1.62,0 Z"
         id="path124"
         inkscape:connector-curvature="0" />
    </g>
    <g
       transform="translate(169.92,0)"
       id="g126">
      <rect
         style="fill:none;stroke:#0000ff;stroke-width:0.01"
         width="2.5"
         height="2.5"
         x="2.25"
         y="2.25"
         id="rect128" />
      <rect
         style="fill:none;stroke:#0000ff;stroke-width:0.01"
         width="2.5"
         height="2.5"
         x="25.25"
         y="2.25"
         id="rect130" />
      <rect
         style="fill:none;stroke:#0000ff;stroke-width:0.01"
         width="2.5"
         height="2.5"
         x="51.25"
         y="2.25"
         id="rect132" />
      <rect
         style="fill:none;stroke:#0000ff;stroke-width:0.01"
         width="2.5"
         height="2.5"
         x="2.25"
         y="60.25"
         id="rect134" />
      <rect
         style="fill:none;stroke:#0000ff;stroke-width:0.01"
         width="2.5"
         height="2.5"
         x="51.25"
         y="60.25"
         id="rect136" />
      <rect
         style="fill:none;stroke:#0000ff;stroke-width:0.01"
         x="3"
         y="82.06"
         width="40"
         height="3"
         id="rect138" />
      <path
         style="fill:none;fill-rule:evenodd;stroke:#0000ff;stroke-width:0.01"
         d="M 0,1.62 1.62,0 0,-1.62 -1.62,0 Z"
         id="path140"
         inkscape:connector-curvature="0" />
    </g>
    <g
       transform="translate(226.56,0)"
       id="g142">
      <rect
         style="fill:none;stroke:#0000ff;stroke-width:0.01"
         width="2.5"
         height="2.5"
         x="2.25"
         y="2.25"
         id="rect144" />
      <rect
         style="fill:none;stroke:#0000ff;stroke-width:0.01"
         width="2.5"
         height="2.5"
         x="25.25"
         y="2.25"
         id="rect146" />
      <rect
         style="fill:none;stroke:#0000ff;stroke-width:0.01"
         width="2.5"
         height="2.5"
         x="51.25"
         y="2.25"
         id="rect148" />
      <rect
         style="fill:none;stroke:#0000ff;stroke-width:0.01"
         width="2.5"
         height="2.5"
         x="2.25"
         y="60.25"
         id="rect150" />
      <rect
         style="fill:none;stroke:#0000ff;stroke-width:0.01"
         width="2.5"
         height="2.5"
         x="51.25"
         y="60.25"
         id="rect152" />
      <rect
         style="fill:none;stroke:#0000ff;stroke-width:0.01"
         x="3"
         y="82.06"
         width="40"
         height="3"
         id="rect154" />
      <path
         style="fill:none;fill-rule:evenodd;stroke:#0000ff;stroke-width:0.01"
         d="M 0,1.62 1.62,0 0,-1.62 -1.62,0 Z"
         id="path156"
         inkscape:connector-curvature="0" />
    </g>
    <g
       transform="translate(283.2,0)"
       id="g158">
      <rect
         style="fill:none;stroke:#0000ff;stroke-width:0.01"
         width="2.5"
         height="2.5"
         x="2.25"
         y="2.25"
         id="rect160" />
      <rect
         style="fill:none;stroke:#0000ff;stroke-width:0.01"
         width="2.5"
         height="2.5"
         x="25.25"
         y="2.25"
         id="rect162" />
      <rect
         style="fill:none;stroke:#0000ff;stroke-width:0.01"
         width="2.5"
         height="2.5"
         x="51.25"
         y="2.25"
         id="rect164" />
      <rect
         style="fill:none;stroke:#0000ff;stroke-width:0.01"
         width="2.5"
         height="2.5"
         x="2.25"
         y="60.25"
         id="rect166" />
      <rect
         style="fill:none;stroke:#0000ff;stroke-width:0.01"
         width="2.5"
         height="2.5"
         x="51.25"
         y="60.25"
         id="rect168" />
      <rect
         style="fill:none;stroke:#0000ff;stroke-width:0.01"
         x="3"
         y="82.06"
         width="40"
         height="3"
         id="rect170" />
      <path
         style="fill:none;fill-rule:evenodd;stroke:#0000ff;stroke-width:0.01"
         d="M 0,1.62 1.62,0 0,-1.62 -1.62,0 Z"
         id="path172"
         inkscape:connector-curvature="0" />
    </g>
    <g
       transform="translate(0,85.06)"
       id="g174">
      <rect
         style="fill:none;stroke:#0000ff;stroke-width:0.01"
         width="2.5"
         height="2.5"
         x="2.25"
         y="2.25"
         id="rect176" />
      <rect
         style="fill:none;stroke:#0000ff;stroke-width:0.01"
         width="2.5"
         height="2.5"
         x="25.25"
         y="2.25"
         id="rect178" />
      <rect
         style="fill:none;stroke:#0000ff;stroke-width:0.01"
         width="2.5"
         height="2.5"
         x="51.25"
         y="2.25"
         id="rect180" />
      <rect
         style="fill:none;stroke:#0000ff;stroke-width:0.01"
         width="2.5"
         height="2.5"
         x="2.25"
         y="60.25"
         id="rect182" />
      <rect
         style="fill:none;stroke:#0000ff;stroke-width:0.01"
         width="2.5"
         height="2.5"
         x="51.25"
         y="60.25"
         id="rect184" />
      <rect
         style="fill:none;stroke:#0000ff;stroke-width:0.01"
         x="3"
         y="82.06"
         width="40"
         height="3"
         id="rect186" />
      <path
         style="fill:none;fill-rule:evenodd;stroke:#0000ff;stroke-width:0.01"
         d="M 0,1.62 1.62,0 0,-1.62 -1.62,0 Z"
         id="path188"
         inkscape:connector-curvature="0" />
    </g>
    <g
       transform="translate(56.64,85.06)"
       id="g190">
      <rect
         style="fill:none;stroke:#0000ff;stroke-width:0.01"
         width="2.5"
         height="2.5"
         x="2.25"
         y="2.25"
         id="rect192" />
      <rect
         style="fill:none;stroke:#0000ff;stroke-width:0.01"
         width="2.5"
         height="2.5"
         x="25.25"
         y="2.25"
         id="rect194" />
      <rect
         style="fill:none;stroke:#0000ff;stroke-width:0.01"
         width="2.5"
         height="2.5"
         x="51.25"
         y="2.25"
         id="rect196" />
      <rect
         style="fill:none;stroke:#0000ff;stroke-width:0.01"
         width="2.5"
         height="2.5"
         x="2.25"
         y="60.25"
         id="rect198" />
      <rect
         style="fill:none;stroke:#0000ff;stroke-width:0.01"
         width="2.5"
         height="2.5"
         x="51.25"
         y="60.25"
         id="rect200" />
      <rect
         style="fill:none;stroke:#0000ff;stroke-width:0.01"
         x="3"
         y="82.06"
         width="40"
         height="3"
         id="rect202" />
      <path
         style="fill:none;fill-rule:evenodd;stroke:#0000ff;stroke-width:0.01"
         d="M 0,1.62 1.62,0 0,-1.62 -1.62,0 Z"
         id="path204"
         inkscape:connector-curvature="0" />
    </g>
    <g
       transform="translate(113.28,85.06)"
       id="g206">
      <rect
         style="fill:none;stroke:#0000ff;stroke-width:0.01"
         width="2.5"
         height="2.5"
         x="2.25"
         y="2.25"
         id="rect208" />
      <rect
         style="fill:none;stroke:#0000ff;stroke-width:0.01"
         width="2.5"
         height="2.5"
         x="25.25"
         y="2.25"
         id="rect210" />
      <rect
         style="fill:none;stroke:#0000ff;stroke-width:0.01"
         width="2.5"
         height="2.5"
         x="51.25"
         y="2.25"
         id="rect212" />
      <rect
         style="fill:none;stroke:#0000ff;stroke-width:0.01"
         width="2.5"
         height="2.5"
         x="2.25"
         y="60.25"
         id="rect214" />
      <rect
         style="fill:none;stroke:#0000ff;stroke-width:0.01"
         width="2.5"
         height="2.5"
         x="51.25"
         y="60.25"
         id="rect216" />
      <rect
         style="fill:none;stroke:#0000ff;stroke-width:0.01"
         x="3"
         y="82.06"
         width="40"
         height="3"
         id="rect218" />
      <path
         style="fill:none;fill-rule:evenodd;stroke:#0000ff;stroke-width:0.01"
         d="M 0,1.62 1.62,0 0,-1.62 -1.62,0 Z"
         id="path220"
         inkscape:connector-curvature="0" />
    </g>
    <g
       transform="translate(169.92,85.06)"
       id="g222">
      <rect
         style="fill:none;stroke:#0000ff;stroke-width:0.01"
         width="2.5"
         height="2.5"
         x="2.25"
         y="2.25"
         id="rect224" />
      <rect
         style="fill:none;stroke:#0000ff;stroke-width:0.01"
         width="2.5"
         height="2.5"
         x="25.25"
         y="2.25"
         id="rect226" />
      <rect
         style="fill:none;stroke:#0000ff;stroke-width:0.01"
         width="2.5"
         height="2.5"
         x="51.25"
         y="2.25"
         id="rect228" />
      <rect
         style="fill:none;stroke:#0000ff;stroke-width:0.01"
         width="2.5"
         height="2.5"
         x="2.25"
         y="60.25"
         id="rect230" />
      <rect
         style="fill:none;stroke:#0000ff;stroke-width:0.01"
         width="2.5"
         height="2.5"
         x="51.25"
         y="60.25"
         id="rect232" />
      <rect
         style="fill:none;stroke:#0000ff;stroke-width:0.01"
         x="3"
         y="82.06"
         width="40"
         height="3"
         id="rect234" />
      <path
         style="fill:none;fill-rule:evenodd;stroke:#0000ff;stroke-width:0.01"
         d="M 0,1.62 1.62,0 0,-1.62 -1.62,0 Z"
         id="path236"
         inkscape:connector-curvature="0" />
    </g>
    <g
       transform="translate(226.56,85.06)"
       id="g238">
      <rect
         style="fill:none;stroke:#0000ff;stroke-width:0.01"
         width="2.5"
         height="2.5"
         x="2.25"
         y="2.25"
         id="rect240" />
      <rect
         style="fill:none;stroke:#0000ff;stroke-width:0.01"
         width="2.5"
         height="2.5"
         x="25.25"
         y="2.25"
         id="rect242" />
      <rect
         style="fill:none;stroke:#0000ff;stroke-width:0.01"
         width="2.5"
         height="2.5"
         x="51.25"
         y="2.25"
         id="rect244" />
      <rect
         style="fill:none;stroke:#0000ff;stroke-width:0.01"
         width="2.5"
         height="2.5"
         x="2.25"
         y="60.25"
         id="rect246" />
      <rect
         style="fill:none;stroke:#0000ff;stroke-width:0.01"
         width="2.5"
         height="2.5"
         x="51.25"
         y="60.25"
         id="rect248" />
      <rect
         style="fill:none;stroke:#0000ff;stroke-width:0.01"
         x="3"
         y="82.06"
         width="40"
         height="3"
         id="rect250" />
      <path
         style="fill:none;fill-rule:evenodd;stroke:#0000ff;stroke-width:0.01"
         d="M 0,1.62 1.62,0 0,-1.62 -1.62,0 Z"
         id="path252"
         inkscape:connector-curvature="0" />
    </g>
    <g
       transform="translate(283.2,85.06)"
       id="g254">
      <rect
         style="fill:none;stroke:#0000ff;stroke-width:0.01"
         width="2.5"
         height="2.5"
         x="2.25"
         y="2.25"
         id="rect256" />
      <rect
         style="fill:none;stroke:#0000ff;stroke-width:0.01"
         width="2.5"
         height="2.5"
         x="25.25"
         y="2.25"
         id="rect258" />
      <rect
         style="fill:none;stroke:#0000ff;stroke-width:0.01"
         width="2.5"
         height="2.5"
         x="51.25"
         y="2.25"
         id="rect260" />
      <rect
         style="fill:none;stroke:#0000ff;stroke-width:0.01"
         width="2.5"
         height="2.5"
         x="2.25"
         y="60.25"
         id="rect262" />
      <rect
         style="fill:none;stroke:#0000ff;stroke-width:0.01"
         width="2.5"
         height="2.5"
         x="51.25"
         y="60.25"
         id="rect264" />
      <rect
         style="fill:none;stroke:#0000ff;stroke-width:0.01"
         x="3"
         y="82.06"
         width="40"
         height="3"
         id="rect266" />
      <path
         style="fill:none;fill-rule:evenodd;stroke:#0000ff;stroke-width:0.01"
         d="M 0,1.62 1.62,0 0,-1.62 -1.62,0 Z"
         id="path268"
         inkscape:connector-curvature="0" />
    </g>
    <g
       transform="translate(0,170.12)"
       id="g270">
      <rect
         style="fill:none;stroke:#0000ff;stroke-width:0.01"
         width="2.5"
         height="2.5"
         x="2.25"
         y="2.25"
         id="rect272" />
      <rect
         style="fill:none;stroke:#0000ff;stroke-width:0.01"
         width="2.5"
         height="2.5"
         x="25.25"
         y="2.25"
         id="rect274" />
      <rect
         style="fill:none;stroke:#0000ff;stroke-width:0.01"
         width="2.5"
         height="2.5"
         x="51.25"
         y="2.25"
         id="rect276" />
      <rect
         style="fill:none;stroke:#0000ff;stroke-width:0.01"
         width="2.5"
         height="2.5"
         x="2.25"
         y="60.25"
         id="rect278" />
      <rect
         style="fill:none;stroke:#0000ff;stroke-width:0.01"
         width="2.5"
         height="2.5"
         x="51.25"
         y="60.25"
         id="rect280" />
      <rect
         style="fill:none;stroke:#0000ff;stroke-width:0.01"
         x="3"
         y="82.06"
         width="40"
         height="3"
         id="rect282" />
      <path
         style="fill:none;fill-rule:evenodd;stroke:#0000ff;stroke-width:0.01"
         d="M 0,1.62 1.62,0 0,-1.62 -1.62,0 Z"
         id="path284"
         inkscape:connector-curvature="0" />
    </g>
    <g
       transform="translate(56.64,170.12)"
       id="g286">
      <rect
         style="fill:none;stroke:#0000ff;stroke-width:0.01"
         width="2.5"
         height="2.5"
         x="2.25"
         y="2.25"
         id="rect288" />
      <rect
         style="fill:none;stroke:#0000ff;stroke-width:0.01"
         width="2.5"
         height="2.5"
         x="25.25"
         y="2.25"
         id="rect290" />
      <rect
         style="fill:none;stroke:#0000ff;stroke-width:0.01"
         width="2.5"
         height="2.5"
         x="51.25"
         y="2.25"
         id="rect292" />
      <rect
         style="fill:none;stroke:#0000ff;stroke-width:0.01"
         width="2.5"
         height="2.5"
         x="2.25"
         y="60.25"
         id="rect294" />
      <rect
         style="fill:none;stroke:#0000ff;stroke-width:0.01"
         width="2.5"
         height="2.5"
         x="51.25"
         y="60.25"
         id="rect296" />
      <rect
         style="fill:none;stroke:#0000ff;stroke-width:0.01"
         x="3"
         y="82.06"
         width="40"
         height="3"
         id="rect298" />
      <path
         style="fill:none;fill-rule:evenodd;stroke:#0000ff;stroke-width:0.01"
         d="M 0,1.62 1.62,0 0,-1.62 -1.62,0 Z"
         id="path300"
         inkscape:connector-curvature="0" />
    </g>
    <g
       transform="translate(113.28,170.12)"
       id="g302">
      <rect
         style="fill:none;stroke:#0000ff;stroke-width:0.01"
         width="2.5"
         height="2.5"
         x="2.25"
         y="2.25"
         id="rect304" />
      <rect
         style="fill:none;stroke:#0000ff;stroke-width:0.01"
         width="2.5"
         height="2.5"
         x="25.25"
         y="2.25"
         id="rect306" />
      <rect
         style="fill:none;stroke:#0000ff;stroke-width:0.01"
         width="2.5"
         height="2.5"
         x="51.25"
         y="2.25"
         id="rect308" />
      <rect
         style="fill:none;stroke:#0000ff;stroke-width:0.01"
         width="2.5"
         height="2.5"
         x="2.25"
         y="60.25"
         id="rect310" />
      <rect
         style="fill:none;stroke:#0000ff;stroke-width:0.01"
         width="2.5"
         height="2.5"
         x="51.25"
         y="60.25"
         id="rect312" />
      <rect
         style="fill:none;stroke:#0000ff;stroke-width:0.01"
         x="3"
         y="82.06"
         width="40"
         height="3"
         id="rect314" />
      <path
         style="fill:none;fill-rule:evenodd;stroke:#0000ff;stroke-width:0.01"
         d="M 0,1.62 1.62,0 0,-1.62 -1.62,0 Z"
         id="path316"
         inkscape:connector-curvature="0" />
    </g>
    <g
       transform="translate(169.92,170.12)"
       id="g318">
      <rect
         style="fill:none;stroke:#0000ff;stroke-width:0.01"
         width="2.5"
         height="2.5"
         x="2.25"
         y="2.25"
         id="rect320" />
      <rect
         style="fill:none;stroke:#0000ff;stroke-width:0.01"
         width="2.5"
         height="2.5"
         x="25.25"
         y="2.25"
         id="rect322" />
      <rect
         style="fill:none;stroke:#0000ff;stroke-width:0.01"
         width="2.5"
         height="2.5"
         x="51.25"
         y="2.25"
         id="rect324" />
      <rect
         style="fill:none;stroke:#0000ff;stroke-width:0.01"
         width="2.5"
         height="2.5"
         x="2.25"
         y="60.25"
         id="rect326" />
      <rect
         style="fill:none;stroke:#0000ff;stroke-width:0.01"
         width="2.5"
         height="2.5"
         x="51.25"
         y="60.25"
         id="rect328" />
      <rect
         style="fill:none;stroke:#0000ff;stroke-width:0.01"
         x="3"
         y="82.06"
         width="40"
         height="3"
         id="rect330" />
      <path
         style="fill:none;fill-rule:evenodd;stroke:#0000ff;stroke-width:0.01"
         d="M 0,1.62 1.62,0 0,-1.62 -1.62,0 Z"
         id="path332"
         inkscape:connector-curvature="0" />
    </g>
    <g
       transform="translate(226.56,170.12)"
       id="g334">
      <rect
         style="fill:none;stroke:#0000ff;stroke-width:0.01"
         width="2.5"
         height="2.5"
         x="2.25"
         y="2.25"
         id="rect336" />
      <rect
         style="fill:none;stroke:#0000ff;stroke-width:0.01"
         width="2.5"
         height="2.5"
         x="25.25"
         y="2.25"
         id="rect338" />
      <rect
         style="fill:none;stroke:#0000ff;stroke-width:0.01"
         width="2.5"
         height="2.5"
         x="51.25"
         y="2.25"
         id="rect340" />
      <rect
         style="fill:none;stroke:#0000ff;stroke-width:0.01"
         width="2.5"
         height="2.5"
         x="2.25"
         y="60.25"
         id="rect342" />
      <rect
         style="fill:none;stroke:#0000ff;stroke-width:0.01"
         width="2.5"
         height="2.5"
         x="51.25"
         y="60.25"
         id="rect344" />
      <rect
         style="fill:none;stroke:#0000ff;stroke-width:0.01"
         x="3"
         y="82.06"
         width="40"
         height="3"
         id="rect346" />
      <path
         style="fill:none;fill-rule:evenodd;stroke:#0000ff;stroke-width:0.01"
         d="M 0,1.62 1.62,0 0,-1.62 -1.62,0 Z"
         id="path348"
         inkscape:connector-curvature="0" />
    </g>
    <g
       transform="translate(283.2,170.12)"
       id="g350">
      <rect
         style="fill:none;stroke:#0000ff;stroke-width:0.01"
         width="2.5"
         height="2.5"
         x="2.25"
         y="2.25"
         id="rect352" />
      <rect
         style="fill:none;stroke:#0000ff;stroke-width:0.01"
         width="2.5"
         height="2.5"
         x="25.25"
         y="2.25"
         id="rect354" />
      <rect
         style="fill:none;stroke:#0000ff;stroke-width:0.01"
         width="2.5"
         height="2.5"
         x="51.25"
         y="2.25"
         id="rect356" />
      <rect
         style="fill:none;stroke:#0000ff;stroke-width:0.01"
         width="2.5"
         height="2.5"
         x="2.25"
         y="60.25"
         id="rect358" />
      <rect
         style="fill:none;stroke:#0000ff;stroke-width:0.01"
         width="2.5"
         height="2.5"
         x="51.25"
         y="60.25"
         id="rect360" />
      <rect
         style="fill:none;stroke:#0000ff;stroke-width:0.01"
         x="3"
         y="82.06"
         width="40"
         height="3"
         id="rect362" />
      <path
         style="fill:none;fill-rule:evenodd;stroke:#0000ff;stroke-width:0.01"
         d="M 0,1.62 1.62,0 0,-1.62 -1.62,0 Z"
         id="path364"
         inkscape:connector-curvature="0" />
    </g>
    <g
       transform="translate(0,255.18)"
       id="g366">
      <rect
         style="fill:none;stroke:#0000ff;stroke-width:0.01"
         width="2.5"
         height="2.5"
         x="2.25"
         y="2.25"
         id="rect368" />
      <rect
         style="fill:none;stroke:#0000ff;stroke-width:0.01"
         width="2.5"
         height="2.5"
         x="25.25"
         y="2.25"
         id="rect370" />
      <rect
         style="fill:none;stroke:#0000ff;stroke-width:0.01"
         width="2.5"
         height="2.5"
         x="51.25"
         y="2.25"
         id="rect372" />
      <rect
         style="fill:none;stroke:#0000ff;stroke-width:0.01"
         width="2.5"
         height="2.5"
         x="2.25"
         y="60.25"
         id="rect374" />
      <rect
         style="fill:none;stroke:#0000ff;stroke-width:0.01"
         width="2.5"
         height="2.5"
         x="51.25"
         y="60.25"
         id="rect376" />
      <rect
         style="fill:none;stroke:#0000ff;stroke-width:0.01"
         x="3"
         y="82.06"
         width="40"
         height="3"
         id="rect378" />
      <path
         style="fill:none;fill-rule:evenodd;stroke:#0000ff;stroke-width:0.01"
         d="M 0,1.62 1.62,0 0,-1.62 -1.62,0 Z"
         id="path380"
         inkscape:connector-curvature="0" />
    </g>
    <g
       transform="translate(56.64,255.18)"
       id="g382">
      <rect
         style="fill:none;stroke:#0000ff;stroke-width:0.01"
         width="2.5"
         height="2.5"
         x="2.25"
         y="2.25"
         id="rect384" />
      <rect
         style="fill:none;stroke:#0000ff;stroke-width:0.01"
         width="2.5"
         height="2.5"
         x="25.25"
         y="2.25"
         id="rect386" />
      <rect
         style="fill:none;stroke:#0000ff;stroke-width:0.01"
         width="2.5"
         height="2.5"
         x="51.25"
         y="2.25"
         id="rect388" />
      <rect
         style="fill:none;stroke:#0000ff;stroke-width:0.01"
         width="2.5"
         height="2.5"
         x="2.25"
         y="60.25"
         id="rect390" />
      <rect
         style="fill:none;stroke:#0000ff;stroke-width:0.01"
         width="2.5"
         height="2.5"
         x="51.25"
         y="60.25"
         id="rect392" />
      <rect
         style="fill:none;stroke:#0000ff;stroke-width:0.01"
         x="3"
         y="82.06"
         width="40"
         height="3"
         id="rect394" />
      <path
         style="fill:none;fill-rule:evenodd;stroke:#0000ff;stroke-width:0.01"
         d="M 0,1.62 1.62,0 0,-1.62 -1.62,0 Z"
         id="path396"
         inkscape:connector-curvature="0" />
    </g>
    <g
       transform="translate(113.28,255.18)"
       id="g398">
      <rect
         style="fill:none;stroke:#0000ff;stroke-width:0.01"
         width="2.5"
         height="2.5"
         x="2.25"
         y="2.25"
         id="rect400" />
      <rect
         style="fill:none;stroke:#0000ff;stroke-width:0.01"
         width="2.5"
         height="2.5"
         x="25.25"
         y="2.25"
         id="rect402" />
      <rect
         style="fill:none;stroke:#0000ff;stroke-width:0.01"
         width="2.5"
         height="2.5"
         x="51.25"
         y="2.25"
         id="rect404" />
      <rect
         style="fill:none;stroke:#0000ff;stroke-width:0.01"
         width="2.5"
         height="2.5"
         x="2.25"
         y="60.25"
         id="rect406" />
      <rect
         style="fill:none;stroke:#0000ff;stroke-width:0.01"
         width="2.5"
         height="2.5"
         x="51.25"
         y="60.25"
         id="rect408" />
      <rect
         style="fill:none;stroke:#0000ff;stroke-width:0.01"
         x="3"
         y="82.06"
         width="40"
         height="3"
         id="rect410" />
      <path
         style="fill:none;fill-rule:evenodd;stroke:#0000ff;stroke-width:0.01"
         d="M 0,1.62 1.62,0 0,-1.62 -1.62,0 Z"
         id="path412"
         inkscape:connector-curvature="0" />
    </g>
    <g
       transform="translate(169.92,255.18)"
       id="g414">
      <rect
         style="fill:none;stroke:#0000ff;stroke-width:0.01"
         width="2.5"
         height="2.5"
         x="2.25"
         y="2.25"
         id="rect416" />
      <rect
         style="fill:none;stroke:#0000ff;stroke-width:0.01"
         width="2.5"
         height="2.5"
         x="25.25"
         y="2.25"
         id="rect418" />
      <rect
         style="fill:none;stroke:#0000ff;stroke-width:0.01"
         width="2.5"
         height="2.5"
         x="51.25"
         y="2.25"
         id="rect420" />
      <rect
         style="fill:none;stroke:#0000ff;stroke-width:0.01"
         width="2.5"
         height="2.5"
         x="2.25"
         y="60.25"
         id="rect422" />
      <rect
         style="fill:none;stroke:#0000ff;stroke-width:0.01"
         width="2.5"
         height="2.5"
         x="51.25"
         y="60.25"
         id="rect424" />
      <rect
         style="fill:none;stroke:#0000ff;stroke-width:0.01"
         x="3"
         y="82.06"
         width="40"
         height="3"
         id="rect426" />
      <path
         style="fill:none;fill-rule:evenodd;stroke:#0000ff;stroke-width:0.01"
         d="M 0,1.62 1.62,0 0,-1.62 -1.62,0 Z"
         id="path428"
         inkscape:connector-curvature="0" />
    </g>
    <g
       transform="translate(226.56,255.18)"
       id="g430">
      <rect
         style="fill:none;stroke:#0000ff;stroke-width:0.01"
         width="2.5"
         height="2.5"
         x="2.25"
         y="2.25"
         id="rect432" />
      <rect
         style="fill:none;stroke:#0000ff;stroke-width:0.01"
         width="2.5"
         height="2.5"
         x="25.25"
         y="2.25"
         id="rect434" />
      <rect
         style="fill:none;stroke:#0000ff;stroke-width:0.01"
         width="2.5"
         height="2.5"
         x="51.25"
         y="2.25"
         id="rect436" />
      <rect
         style="fill:none;stroke:#0000ff;stroke-width:0.01"
         width="2.5"
         height="2.5"
         x="2.25"
         y="60.25"
         id="rect438" />
      <rect
         style="fill:none;stroke:#0000ff;stroke-width:0.01"
         width="2.5"
         height="2.5"
         x="51.25"
         y="60.25"
         id="rect440" />
      <rect
         style="fill:none;stroke:#0000ff;stroke-width:0.01"
         x="3"
         y="82.06"
         width="40"
         height="3"
         id="rect442" />
      <path
         style="fill:none;fill-rule:evenodd;stroke:#0000ff;stroke-width:0.01"
         d="M 0,1.62 1.62,0 0,-1.62 -1.62,0 Z"
         id="path444"
         inkscape:connector-curvature="0" />
    </g>
    <g
       transform="translate(283.2,255.18)"
       id="g446">
      <rect
         style="fill:none;stroke:#0000ff;stroke-width:0.01"
         width="2.5"
         height="2.5"
         x="2.25"
         y="2.25"
         id="rect448" />
      <rect
         style="fill:none;stroke:#0000ff;stroke-width:0.01"
         width="2.5"
         height="2.5"
         x="25.25"
         y="2.25"
         id="rect450" />
      <rect
         style="fill:none;stroke:#0000ff;stroke-width:0.01"
         width="2.5"
         height="2.5"
         x="51.25"
         y="2.25"
         id="rect452" />
      <rect
         style="fill:none;stroke:#0000ff;stroke-width:0.01"
         width="2.5"
         height="2.5"
         x="2.25"
         y="60.25"
         id="rect454" />
      <rect
         style="fill:none;stroke:#0000ff;stroke-width:0.01"
         width="2.5"
         height="2.5"
         x="51.25"
         y="60.25"
         id="rect456" />
      <rect
         style="fill:none;stroke:#0000ff;stroke-width:0.01"
         x="3"
         y="82.06"
         width="40"
         height="3"
         id="rect458" />
      <path
         style="fill:none;fill-rule:evenodd;stroke:#0000ff;stroke-width:0.01"
         d="M 0,1.62 1.62,0 0,-1.62 -1.62,0 Z"
         id="path460"
         inkscape:connector-curvature="0" />
    </g>
  </g>
  <g
     inkscape:groupmode="layer"
     inkscape:label="tbp outline"
     id="g488">
    <rect
       style="fill:none;stroke:#0000ff;stroke-width:0.01"
       x="-18"
       y="-18"
       width="380"
       height="380"
       id="rect490" />
  </g>
</svg>
