<?xml version="1.0" encoding="UTF-8" standalone="no"?>
<svg xmlns:dc="http://purl.org/dc/elements/1.1/" xmlns:cc="http://creativecommons.org/ns#" xmlns:rdf="http://www.w3.org/1999/02/22-rdf-syntax-ns#" xmlns:svg="http://www.w3.org/2000/svg" xmlns="http://www.w3.org/2000/svg" xmlns:xlink="http://www.w3.org/1999/xlink" viewBox="0 0 260 310" height="310mm" width="260mm" id="svg100" version="1.1">
  <metadata id="metadata66">
    <rdf:RDF>
      <cc:Work rdf:about="">
        <dc:format>image/svg+xml</dc:format>
        <dc:type rdf:resource="http://purl.org/dc/dcmitype/StillImage" />
        <dc:title>pn3-cp12-v2a.svg</dc:title>
      </cc:Work>
    </rdf:RDF>
  </metadata>
  <title id="title3">pn3-cp12-v2a.svg</title>
  <desc id="desc5">
  Cover Plate (CP) for 12 (4x3) Project Azide Generation 2 (pn3_gen2) nodes, version 2.
  Each node contains a Raspberry Pi Zero, ER-TFT035-6 LCD module, and PN3 interface board.
  http://ProjectAzide.github.io/
  Copyright 2016 Michael Weiblen http://mew.cx/
  Keywords: ProjectAzide plenoptic display PN3 N=N=N
</desc>
  <!-- Definitions ========================================================= -->
  <defs id="defs100">
    <g stroke-width="0.01" stroke="#00f" fill="none" id="m2.5_hole">
      <title id="title11">hole for M2.5 screw</title>
      <circle id="circle13" r="1.3" />
    </g>
  </defs>
  <!-- Instances =========================================================== -->
  <g transform="translate(13,13)" id="cp12">
    <g stroke-width="0.01" stroke="#f00" fill="none" font-size="1.00mm" font-family="OCRB" id="label_text">
      <title id="title17">Label text</title>
      <g id="txt_url">
        <path id="path3395" d="m 2.01969,268.869 q 0,0.07 -0.0532,0.124 -0.0461,0.05 -0.12402,0.05 -0.0779,0 -0.12402,-0.05 -0.0531,-0.05 -0.0531,-0.124 l 0,-0.882 q 0,-0.27 -0.0248,-0.358 -0.0283,-0.09 -0.0709,-0.128 -0.0602,-0.06 -0.163,-0.06 -0.0461,0 -0.0886,0.01 -0.0638,0.01 -0.13819,0.05 -0.0921,0.06 -0.17716,0.181 -0.05315,0.07 -0.09567,0.149 l 0,1.031 q 0,0.07 -0.05315,0.124 -0.04606,0.05 -0.124016,0.05 -0.07441,0 -0.127559,-0.05 -0.04961,-0.05 -0.04961,-0.124 l 0,-1.074 0,-1.357 q 0,-0.07 0.04961,-0.124 0.06024,-0.05 0.127559,-0.05 0.07087,0 0.124016,0.05 0.05315,0.05 0.05315,0.124 l 0,0.833 q 0.03898,-0.04 0.0815,-0.06 0.113387,-0.08 0.265747,-0.107 0.0992,-0.01 0.15236,-0.01 0.2374,0 0.40394,0.149 0.12047,0.11 0.17362,0.298 0.0354,0.131 0.0354,0.45 l 0,0.882 z" />
        <path id="path3397" d="m 4.46689,268.674 q 0.0531,0.05 0.0531,0.124 0,0.07 -0.0531,0.124 -0.0248,0.02 -0.0496,0.03 -0.17717,0.09 -0.36496,0.09 -0.14174,0 -0.2693,-0.04 -0.0957,-0.04 -0.1559,-0.1 -0.10984,-0.1 -0.15591,-0.269 -0.0248,-0.1 -0.0248,-0.351 l 0,-0.301 0.007,-0.5 -0.26575,0 q -0.0744,0 -0.12402,-0.05 -0.0532,-0.05 -0.0532,-0.124 0,-0.07 0.0532,-0.124 0.0496,-0.05 0.12402,-0.05 l 0.27283,0 0.007,-0.358 q 0,-0.08 0.0496,-0.128 0.0567,-0.05 0.12755,-0.05 0.0744,0 0.12402,0.05 0.0532,0.05 0.0532,0.128 l -0.007,0.358 0.52796,0 q 0.0744,0 0.12401,0.05 0.0531,0.05 0.0531,0.124 0,0.07 -0.0531,0.124 -0.0496,0.05 -0.12401,0.05 l -0.53504,0 -0.007,0.5 0,0.308 q 0,0.202 0.0142,0.255 0.0213,0.07 0.0496,0.1 0.0177,0.02 0.0461,0.03 0.0532,0.02 0.13111,0.02 0.12401,-0 0.22322,-0.05 0.0425,-0.02 0.078,-0.02 0.0744,0 0.12401,0.05 z" />
        <path id="path3399" d="m 7.02748,268.674 q 0.0532,0.05 0.0532,0.124 0,0.07 -0.0532,0.124 -0.0248,0.02 -0.0496,0.03 -0.17717,0.09 -0.36496,0.09 -0.14173,0 -0.26929,-0.04 -0.0957,-0.04 -0.15591,-0.1 -0.10984,-0.1 -0.1559,-0.269 -0.0248,-0.1 -0.0248,-0.351 l 0,-0.301 0.007,-0.5 -0.26575,0 q -0.0744,0 -0.12401,-0.05 -0.0532,-0.05 -0.0532,-0.124 0,-0.07 0.0532,-0.124 0.0496,-0.05 0.12401,-0.05 l 0.27284,0 0.007,-0.358 q 0,-0.08 0.0496,-0.128 0.0567,-0.05 0.12756,-0.05 0.0744,0 0.12401,0.05 0.0532,0.05 0.0532,0.128 l -0.007,0.358 0.52795,0 q 0.0744,0 0.12401,0.05 0.0532,0.05 0.0532,0.124 0,0.07 -0.0532,0.124 -0.0496,0.05 -0.12401,0.05 l -0.53504,0 -0.007,0.5 0,0.308 q 0,0.202 0.0142,0.255 0.0213,0.07 0.0496,0.1 0.0177,0.02 0.0461,0.03 0.0531,0.02 0.1311,0.02 0.12401,-0 0.22323,-0.05 0.0425,-0.02 0.078,-0.02 0.0744,0 0.12401,0.05 z" />
        <path id="path3401" d="m 9.85383,268.089 q 0,0.192 -0.0496,0.351 -0.0886,0.323 -0.33661,0.486 -0.11339,0.07 -0.25867,0.106 -0.13464,0.03 -0.25157,0.03 -0.1311,-0.01 -0.26221,-0.07 -0.11692,-0.05 -0.21968,-0.134 l 0,0.62 q 0,0.07 -0.0496,0.127 -0.0567,0.05 -0.12756,0.05 -0.0744,0 -0.12401,-0.05 -0.0532,-0.06 -0.0532,-0.127 l 0,-1.162 0,-0.496 0,-0.539 q 0,-0.07 0.0532,-0.124 0.0531,-0.05 0.12401,-0.05 0.0673,0 0.12756,0.05 0.0496,0.05 0.0496,0.124 l 0,0.01 q 0.10984,-0.09 0.21968,-0.135 0.13465,-0.06 0.26221,-0.06 0.11693,-0.01 0.25512,0.03 0.14173,0.03 0.25157,0.1 0.17008,0.11 0.26575,0.28 0.12402,0.219 0.12402,0.591 z m -1.37835,-0.237 0,0.418 0.039,0.08 q 0.085,0.142 0.16653,0.216 0.0709,0.07 0.15591,0.103 0.0744,0.03 0.14173,0.04 0.0744,0 0.14882,-0.02 0.0921,-0.02 0.14882,-0.06 0.1311,-0.08 0.18779,-0.284 0.0354,-0.12 0.0354,-0.255 0,-0.28 -0.078,-0.421 -0.0567,-0.1 -0.14173,-0.146 -0.0709,-0.04 -0.15236,-0.06 -0.0779,-0.02 -0.14882,-0.02 -0.0673,0 -0.14173,0.04 -0.0815,0.04 -0.15945,0.103 -0.12402,0.107 -0.20197,0.266 z" />
        <path id="path3403" d="m 11.1601,267.572 0,-0.113 0,-0.06 0,-0.113 q 0,-0.07 0.05,-0.124 0.053,-0.05 0.1276,-0.05 l 0.3826,0 q 0.074,0 0.124,0.05 0.053,0.05 0.053,0.124 l 0,0.283 q 0,0.07 -0.053,0.128 -0.05,0.05 -0.124,0.05 l -0.3826,0 q -0.071,0 -0.1276,-0.05 -0.05,-0.06 -0.05,-0.128 z m 0,1.286 0,-0.113 0,-0.06 0,-0.113 q 0,-0.07 0.05,-0.124 0.053,-0.05 0.1276,-0.05 l 0.3826,0 q 0.074,0 0.124,0.05 0.053,0.05 0.053,0.124 l 0,0.283 q 0,0.08 -0.053,0.124 -0.05,0.05 -0.124,0.05 l -0.3826,0 q -0.075,0 -0.1276,-0.05 -0.05,-0.05 -0.05,-0.124 z" />
        <path id="path3405" d="m 14.7624,266.438 q 0,0.04 -0.014,0.07 l -0.9921,2.43 q -0.011,0.03 -0.039,0.06 -0.05,0.05 -0.124,0.05 -0.074,0 -0.1275,-0.05 -0.05,-0.05 -0.05,-0.124 0,-0.04 0.014,-0.07 l 0.9922,-2.431 q 0.01,-0.02 0.035,-0.06 0.06,-0.05 0.1275,-0.05 0.071,0 0.1241,0.05 0.053,0.05 0.053,0.124 z" />
        <path id="path3407" d="m 17.323,266.438 q 0,0.04 -0.014,0.07 l -0.9921,2.43 q -0.011,0.03 -0.039,0.06 -0.05,0.05 -0.124,0.05 -0.074,0 -0.1275,-0.05 -0.05,-0.05 -0.05,-0.124 0,-0.04 0.014,-0.07 l 0.9921,-2.431 q 0.01,-0.02 0.035,-0.06 0.06,-0.05 0.1275,-0.05 0.071,0 0.1241,0.05 0.053,0.05 0.053,0.124 z" />
        <path id="path3409" d="m 18.7781,268.858 q 0,0.07 -0.05,0.124 -0.053,0.05 -0.1276,0.05 -0.074,0 -0.124,-0.05 -0.053,-0.05 -0.053,-0.124 l 0,-1.052 0,-1.113 q 0,-0.07 0.053,-0.127 0.05,-0.05 0.124,-0.05 l 0.5811,0 q 0.2729,-0.04 0.5103,0.08 0.1736,0.08 0.2657,0.216 0.1488,0.195 0.1382,0.479 -0.011,0.237 -0.1382,0.4 -0.2197,0.294 -0.7476,0.294 l -0.4323,0 0,0.875 z m 0,-1.988 0,0.759 0.4323,0 q 0.3472,0 0.4677,-0.153 0.057,-0.08 0.064,-0.205 0.01,-0.149 -0.067,-0.252 -0.05,-0.06 -0.1381,-0.106 -0.1382,-0.07 -0.2835,-0.05 -0.028,0 -0.043,0 l -0.4323,0 z" />
        <path id="path3411" d="m 22.5966,267.579 q 0,0.08 -0.053,0.128 -0.046,0.05 -0.124,0.05 -0.074,0 -0.1276,-0.05 -0.05,-0.05 -0.05,-0.121 -0.01,-0.11 -0.1098,-0.134 -0.035,-0 -0.057,-0 l -0.074,0.01 q -0.1028,0.01 -0.1453,0.04 -0.074,0.04 -0.1382,0.152 -0.124,0.199 -0.1559,0.429 l 0,0.794 q 0,0.07 -0.05,0.124 -0.053,0.05 -0.1276,0.05 -0.078,0 -0.124,-0.05 -0.053,-0.05 -0.053,-0.124 l 0,-0.822 0,-0.769 q 0,-0.07 0.053,-0.124 0.053,-0.05 0.124,-0.05 0.067,0 0.1276,0.05 0.05,0.05 0.05,0.12 0.06,-0.05 0.124,-0.09 0.092,-0.06 0.2587,-0.08 0.085,-0.01 0.1311,-0.01 0.064,0 0.1417,0.02 0.163,0.04 0.2693,0.173 0.1063,0.132 0.1099,0.298 z" />
        <path id="path3413" d="m 25.2174,268.068 q 0,0.312 -0.124,0.539 -0.092,0.18 -0.2552,0.294 -0.1098,0.08 -0.2586,0.12 -0.1169,0.04 -0.248,0.04 -0.1347,0 -0.2516,-0.04 -0.1418,-0.04 -0.2551,-0.12 -0.1559,-0.107 -0.2587,-0.294 -0.1205,-0.224 -0.1205,-0.539 0,-0.319 0.1205,-0.549 0.099,-0.181 0.2587,-0.294 0.1275,-0.09 0.2941,-0.131 l 0.018,0 q 0.096,-0.02 0.1949,-0.02 0.287,0 0.5066,0.153 0.1666,0.12 0.2552,0.294 0.124,0.23 0.124,0.549 z m -0.8858,-0.641 q -0.064,0 -0.1418,0.02 -0.082,0.02 -0.163,0.07 -0.089,0.06 -0.1452,0.17 -0.081,0.149 -0.081,0.383 0,0.227 0.081,0.372 0.057,0.106 0.1452,0.174 0.064,0.05 0.1489,0.07 0.074,0.02 0.1559,0.02 0.074,0 0.1559,-0.02 0.085,-0.02 0.1452,-0.07 0.092,-0.07 0.1489,-0.174 0.081,-0.152 0.081,-0.372 0,-0.234 -0.081,-0.383 -0.057,-0.109 -0.1489,-0.17 -0.124,-0.09 -0.3011,-0.09 z" />
        <path id="path3415" d="m 27.2217,268.798 q 0,0.33 -0.067,0.478 -0.053,0.11 -0.1418,0.195 -0.1169,0.117 -0.2834,0.156 -0.021,0 -0.404,0 -0.067,0 -0.1275,-0.05 -0.05,-0.05 -0.05,-0.124 0,-0.07 0.05,-0.127 0.057,-0.05 0.1275,-0.05 0.014,0 0.163,0.01 0.1488,0.01 0.1595,-0 0.071,-0.01 0.1204,-0.07 0.043,-0.04 0.064,-0.09 0.035,-0.08 0.035,-0.333 l 0,-1.3 -0.3401,0 q -0.071,0 -0.124,-0.05 -0.053,-0.05 -0.053,-0.124 0,-0.07 0.053,-0.127 0.05,-0.05 0.124,-0.05 l 0.5173,0 q 0.074,0 0.124,0.05 0.053,0.06 0.053,0.127 l 0,1.478 z m -0.3083,-2.537 0.1595,0 q 0.067,0 0.1275,0.05 0.05,0.05 0.05,0.124 l 0,0.163 q 0,0.07 -0.05,0.124 -0.053,0.05 -0.1275,0.05 l -0.1595,0 q -0.074,0 -0.1276,-0.05 -0.05,-0.05 -0.05,-0.124 l 0,-0.163 q 0,-0.07 0.05,-0.124 0.06,-0.05 0.1276,-0.05 z" />
        <path id="path3417" d="m 28.9992,267.809 0.9106,0 q -0.014,-0.07 -0.021,-0.1 -0.039,-0.138 -0.1382,-0.213 -0.06,-0.04 -0.1382,-0.06 -0.067,-0.01 -0.1559,-0.01 -0.092,0 -0.1488,0.02 -0.078,0.03 -0.1418,0.09 -0.1098,0.1 -0.1523,0.23 -0,0.01 -0.014,0.05 z m -0.3827,0.153 q 0.011,-0.181 0.06,-0.316 0.081,-0.226 0.2515,-0.379 0.1311,-0.113 0.2658,-0.156 0.1134,-0.04 0.2551,-0.04 0.1311,-0 0.248,0.02 0.1453,0.03 0.2658,0.121 0.1878,0.138 0.2657,0.397 0.025,0.08 0.046,0.248 0.014,0.08 0.014,0.124 0,0.07 -0.053,0.127 -0.057,0.05 -0.124,0.05 l -1.1339,0 q 0.011,0.103 0.035,0.177 0.05,0.166 0.1488,0.252 0.06,0.05 0.1453,0.08 0.074,0.02 0.1559,0.03 0.074,0 0.163,-0 0.099,-0.02 0.1346,-0.05 0.018,-0.01 0.035,-0.03 0.05,-0.06 0.1311,-0.06 0.075,0 0.1241,0.05 0.053,0.05 0.053,0.128 0,0.07 -0.046,0.117 -0.039,0.05 -0.1063,0.09 -0.1098,0.07 -0.2692,0.1 -0.1134,0.02 -0.2445,0.01 -0.1205,-0.01 -0.2445,-0.05 -0.1418,-0.05 -0.2622,-0.145 -0.1772,-0.153 -0.2551,-0.418 -0.06,-0.192 -0.06,-0.415 l 0,-0.03 0,-0.01 0,-0.03 z" />
        <path id="path3419" d="m 32.7362,268.554 q 0,0.03 -0,0.04 -0.05,0.202 -0.2055,0.319 -0.1205,0.1 -0.2764,0.128 -0.1275,0.02 -0.2586,0.01 -0.1382,-0.01 -0.2658,-0.08 -0.1736,-0.1 -0.2728,-0.273 -0.064,-0.106 -0.099,-0.272 -0.035,-0.163 -0.035,-0.401 0,-0.205 0.035,-0.347 0.035,-0.145 0.1027,-0.252 0.1134,-0.184 0.2764,-0.258 0.1063,-0.06 0.2622,-0.07 0.1169,-0.02 0.241,0 0.2126,0.03 0.3437,0.149 0.096,0.09 0.1311,0.227 0,0.01 0,0.04 0,0.07 -0.05,0.124 -0.053,0.05 -0.1276,0.05 -0.074,0 -0.124,-0.05 -0.032,-0.03 -0.046,-0.09 -0.014,-0.03 -0.032,-0.05 -0.042,-0.04 -0.1418,-0.05 -0.053,-0 -0.1629,0 -0.082,0 -0.1453,0.04 -0.074,0.04 -0.1276,0.124 -0.035,0.06 -0.06,0.152 -0.025,0.1 -0.025,0.262 0,0.206 0.028,0.326 0.018,0.103 0.06,0.174 0.053,0.09 0.1346,0.134 0.06,0.03 0.1347,0.04 0.071,0.01 0.1488,-0 0.074,-0.02 0.1275,-0.06 0.064,-0.05 0.078,-0.124 0.018,-0.05 0.05,-0.08 0.053,-0.05 0.124,-0.05 0.071,0 0.124,0.05 0.053,0.05 0.053,0.124 z" />
        <path id="path3421" d="m 35.194,268.674 q 0.053,0.05 0.053,0.124 0,0.07 -0.053,0.124 -0.025,0.02 -0.05,0.03 -0.1772,0.09 -0.365,0.09 -0.1417,0 -0.2693,-0.04 -0.096,-0.04 -0.1559,-0.1 -0.1098,-0.1 -0.1559,-0.269 -0.025,-0.1 -0.025,-0.351 l 0,-0.301 0.01,-0.5 -0.2657,0 q -0.074,0 -0.124,-0.05 -0.053,-0.05 -0.053,-0.124 0,-0.07 0.053,-0.124 0.05,-0.05 0.124,-0.05 l 0.2728,0 0.01,-0.358 q 0,-0.08 0.05,-0.128 0.057,-0.05 0.1276,-0.05 0.074,0 0.124,0.05 0.053,0.05 0.053,0.128 l -0.01,0.358 0.528,0 q 0.074,0 0.124,0.05 0.053,0.05 0.053,0.124 0,0.07 -0.053,0.124 -0.05,0.05 -0.124,0.05 l -0.535,0 -0.01,0.5 0,0.308 q 0,0.202 0.014,0.255 0.021,0.07 0.05,0.1 0.018,0.02 0.046,0.03 0.053,0.02 0.1311,0.02 0.124,-0 0.2232,-0.05 0.043,-0.02 0.078,-0.02 0.074,0 0.124,0.05 z" />
        <path id="path3423" d="m 37.9991,268.858 q 0,0.08 -0.053,0.124 -0.05,0.05 -0.124,0.05 -0.074,0 -0.124,-0.05 -0.035,-0.03 -0.046,-0.08 l -0.1594,-0.609 -0.7158,0 -0.1594,0.609 q -0.011,0.04 -0.046,0.08 -0.05,0.05 -0.124,0.05 -0.074,0 -0.1275,-0.05 -0.05,-0.05 -0.05,-0.124 0,-0.03 0,-0.05 l 0.5669,-2.186 q 0.011,-0.04 0.046,-0.08 0.053,-0.05 0.1275,-0.05 l 0.241,0 q 0.074,0 0.124,0.05 0.021,0.02 0.028,0.03 0.021,0.04 0.021,0.07 l 0.365,1.403 q 0,0.01 0.014,0.05 l 0.1843,0.716 q 0.01,0.02 0.01,0.05 z m -0.5953,-0.917 -0.2693,-1.035 -0.2693,1.035 0.5386,0 z" />
        <path id="path3425" d="m 40.4357,268.702 q 0.053,0.05 0.053,0.124 0,0.07 -0.053,0.128 -0.05,0.05 -0.1241,0.05 l -1.2047,0 q -0.074,0 -0.124,-0.05 -0.053,-0.05 -0.053,-0.128 l 0,-0.12 q 0,-0.07 0.05,-0.121 l 0.9779,-1.087 -0.8185,0 q -0.067,0 -0.1275,-0.05 -0.05,-0.05 -0.05,-0.124 0,-0.07 0.05,-0.127 0.057,-0.05 0.1275,-0.05 l 1.0914,0 q 0.071,0 0.1275,0.05 0.05,0.06 0.05,0.127 l 0,0.142 q 0,0.03 -0.011,0.06 -0.011,0.04 -0.039,0.07 l -0.011,0.01 -0.9496,1.052 0.9141,0 q 0.071,0 0.1241,0.05 z" />
        <path id="path3427" d="m 42.603,268.869 q 0,0.07 -0.05,0.124 -0.053,0.05 -0.1275,0.05 -0.074,0 -0.124,-0.05 -0.053,-0.05 -0.053,-0.124 l 0,-1.371 -0.4606,0 q -0.071,0 -0.124,-0.05 -0.053,-0.05 -0.053,-0.124 0,-0.07 0.053,-0.127 0.05,-0.05 0.124,-0.05 l 0.6378,0 q 0.071,0 0.1275,0.05 0.05,0.06 0.05,0.127 l 0,1.549 z m -0.326,-2.608 0.1594,0 q 0.067,0 0.1276,0.05 0.05,0.05 0.05,0.124 l 0,0.163 q 0,0.07 -0.05,0.124 -0.053,0.05 -0.1276,0.05 l -0.1594,0 q -0.074,0 -0.1276,-0.05 -0.05,-0.05 -0.05,-0.124 l 0,-0.163 q 0,-0.07 0.05,-0.124 0.06,-0.05 0.1276,-0.05 z" />
        <path id="path3429" d="m 45.6596,268.869 q 0,0.07 -0.05,0.124 -0.053,0.05 -0.1276,0.05 -0.074,0 -0.124,-0.05 -0.053,-0.05 -0.053,-0.124 l 0,-0.01 q -0.1099,0.08 -0.2162,0.134 -0.1169,0.06 -0.2622,0.07 -0.1134,0 -0.2551,-0.03 -0.1417,-0.04 -0.2551,-0.106 -0.163,-0.1 -0.2658,-0.287 -0.1204,-0.227 -0.1204,-0.592 0,-0.351 0.1275,-0.556 0.092,-0.153 0.2551,-0.259 0.1205,-0.08 0.2552,-0.113 0.124,-0.04 0.2622,-0.03 0.1311,0.01 0.2551,0.06 0.1169,0.05 0.2197,0.124 l 0,-0.843 q 0,-0.07 0.053,-0.124 0.053,-0.05 0.124,-0.05 0.067,0 0.1276,0.05 0.05,0.05 0.05,0.124 l 0,1.368 0,0.507 0,0.556 z m -0.3543,-0.578 0,-0.453 q -0.071,-0.156 -0.1949,-0.259 -0.074,-0.06 -0.1595,-0.1 -0.078,-0.04 -0.1488,-0.04 -0.06,-0 -0.1417,0.01 -0.092,0.03 -0.1524,0.07 -0.1027,0.07 -0.1488,0.145 -0.074,0.12 -0.074,0.372 0,0.273 0.082,0.425 0.05,0.1 0.1382,0.156 0.064,0.04 0.1488,0.06 0.078,0.02 0.1524,0.02 0.06,-0 0.1417,-0.04 0.085,-0.04 0.1595,-0.106 0.074,-0.06 0.1169,-0.117 0.05,-0.06 0.082,-0.153 z" />
        <path id="path3431" d="m 46.9233,267.809 0.9107,0 q -0.014,-0.07 -0.021,-0.1 -0.039,-0.138 -0.1382,-0.213 -0.06,-0.04 -0.1382,-0.06 -0.067,-0.01 -0.1559,-0.01 -0.092,0 -0.1488,0.02 -0.078,0.03 -0.1417,0.09 -0.1099,0.1 -0.1524,0.23 -0,0.01 -0.014,0.05 z m -0.3826,0.153 q 0.011,-0.181 0.06,-0.316 0.081,-0.226 0.2516,-0.379 0.1311,-0.113 0.2657,-0.156 0.1134,-0.04 0.2551,-0.04 0.1312,-0 0.2481,0.02 0.1453,0.03 0.2657,0.121 0.1878,0.138 0.2658,0.397 0.025,0.08 0.046,0.248 0.014,0.08 0.014,0.124 0,0.07 -0.053,0.127 -0.057,0.05 -0.1241,0.05 l -1.1338,0 q 0.011,0.103 0.035,0.177 0.05,0.166 0.1488,0.252 0.06,0.05 0.1453,0.08 0.074,0.02 0.1559,0.03 0.074,0 0.163,-0 0.099,-0.02 0.1347,-0.05 0.018,-0.01 0.035,-0.03 0.05,-0.06 0.1311,-0.06 0.074,0 0.124,0.05 0.053,0.05 0.053,0.128 0,0.07 -0.046,0.117 -0.039,0.05 -0.1063,0.09 -0.1098,0.07 -0.2693,0.1 -0.1134,0.02 -0.2445,0.01 -0.1205,-0.01 -0.2445,-0.05 -0.1417,-0.05 -0.2622,-0.145 -0.1771,-0.153 -0.2551,-0.418 -0.06,-0.192 -0.06,-0.415 l 0,-0.03 0,-0.01 0,-0.03 z" />
        <path id="path3433" d="m 49.5052,268.858 0,-0.138 0,-0.07 0,-0.138 q 0,-0.07 0.053,-0.124 0.05,-0.05 0.124,-0.05 l 0.5067,0 q 0.074,0 0.1275,0.05 0.05,0.05 0.05,0.124 l 0,0.343 q 0,0.07 -0.05,0.124 -0.053,0.05 -0.1275,0.05 l -0.5067,0 q -0.074,0 -0.124,-0.05 -0.053,-0.05 -0.053,-0.124 z" />
        <path id="path3435" d="m 53.2918,267.845 0,0.375 0,0.567 q 0.042,0.252 -0.067,0.489 -0.081,0.181 -0.2268,0.277 -0.1028,0.07 -0.2658,0.1 -0.1382,0.02 -0.2338,0.02 -0.1099,0 -0.2197,-0.01 -0.1665,-0.01 -0.2587,-0.06 -0.1771,-0.08 -0.2515,-0.252 -0.014,-0.03 -0.014,-0.07 0,-0.07 0.05,-0.124 0.053,-0.05 0.1275,-0.05 0.075,0 0.1241,0.05 0.021,0.02 0.039,0.05 0.021,0.05 0.071,0.07 0.032,0.02 0.1453,0.02 0.092,0.01 0.1842,0.01 0.078,0 0.1737,-0.02 0.089,-0.01 0.1381,-0.05 0.057,-0.03 0.096,-0.124 0.06,-0.135 0.042,-0.287 -0,-0 -0.01,-0.01 0,-0.01 0,-0.01 l 0,-0.02 0,-0.07 q -0.071,0.07 -0.1559,0.113 -0.1169,0.06 -0.2551,0.08 -0.064,0.01 -0.1311,0.01 -0.067,0 -0.1311,-0.01 -0.1594,-0.03 -0.2657,-0.1 -0.163,-0.1 -0.2693,-0.315 -0.1063,-0.23 -0.1063,-0.464 0,-0.34 0.1098,-0.546 0.1028,-0.188 0.2658,-0.29 0.2232,-0.139 0.5138,-0.117 0.1452,0.01 0.2622,0.07 0.085,0.04 0.1629,0.106 0.01,-0.07 0.053,-0.113 0.053,-0.05 0.124,-0.05 0.071,0 0.124,0.05 0.053,0.05 0.053,0.124 l 0,0.567 z m -0.3544,0.326 0,-0.294 q -0.057,-0.146 -0.1665,-0.28 -0.074,-0.08 -0.1453,-0.117 -0.064,-0.03 -0.1417,-0.04 -0.1701,-0.01 -0.2976,0.06 -0.089,0.06 -0.1382,0.156 -0.071,0.131 -0.071,0.383 0,0.159 0.071,0.308 0.067,0.128 0.1382,0.17 0.057,0.04 0.1382,0.05 0.025,0 0.071,0 0.025,0 0.074,-0 0.096,-0.01 0.1488,-0.04 0.067,-0.04 0.1489,-0.131 0.089,-0.1 0.17,-0.227 z" />
        <path id="path3437" d="m 55.4059,268.869 q 0,0.07 -0.05,0.124 -0.053,0.05 -0.1276,0.05 -0.074,0 -0.124,-0.05 -0.053,-0.05 -0.053,-0.124 l 0,-1.371 -0.4606,0 q -0.071,0 -0.1241,-0.05 -0.053,-0.05 -0.053,-0.124 0,-0.07 0.053,-0.127 0.05,-0.05 0.1241,-0.05 l 0.6377,0 q 0.071,0 0.1276,0.05 0.05,0.06 0.05,0.127 l 0,1.549 z m -0.326,-2.608 0.1595,0 q 0.067,0 0.1275,0.05 0.05,0.05 0.05,0.124 l 0,0.163 q 0,0.07 -0.05,0.124 -0.053,0.05 -0.1275,0.05 l -0.1595,0 q -0.074,0 -0.1275,-0.05 -0.05,-0.05 -0.05,-0.124 l 0,-0.163 q 0,-0.07 0.05,-0.124 0.06,-0.05 0.1275,-0.05 z" />
        <path id="path3439" d="m 58.2393,268.674 q 0.053,0.05 0.053,0.124 0,0.07 -0.053,0.124 -0.025,0.02 -0.05,0.03 -0.1771,0.09 -0.3649,0.09 -0.1418,0 -0.2693,-0.04 -0.096,-0.04 -0.1559,-0.1 -0.1099,-0.1 -0.1559,-0.269 -0.025,-0.1 -0.025,-0.351 l 0,-0.301 0.01,-0.5 -0.2658,0 q -0.074,0 -0.124,-0.05 -0.053,-0.05 -0.053,-0.124 0,-0.07 0.053,-0.124 0.05,-0.05 0.124,-0.05 l 0.2728,0 0.01,-0.358 q 0,-0.08 0.05,-0.128 0.057,-0.05 0.1276,-0.05 0.074,0 0.124,0.05 0.053,0.05 0.053,0.128 l -0.01,0.358 0.5279,0 q 0.074,0 0.124,0.05 0.053,0.05 0.053,0.124 0,0.07 -0.053,0.124 -0.05,0.05 -0.124,0.05 l -0.535,0 -0.01,0.5 0,0.308 q 0,0.202 0.014,0.255 0.021,0.07 0.05,0.1 0.018,0.02 0.046,0.03 0.053,0.02 0.1311,0.02 0.1241,-0 0.2233,-0.05 0.043,-0.02 0.078,-0.02 0.074,0 0.124,0.05 z" />
        <path id="path3441" d="m 60.9133,268.869 q 0,0.07 -0.053,0.124 -0.046,0.05 -0.124,0.05 -0.078,0 -0.1241,-0.05 -0.053,-0.05 -0.053,-0.124 l 0,-0.882 q 0,-0.27 -0.025,-0.358 -0.028,-0.09 -0.071,-0.128 -0.06,-0.06 -0.163,-0.06 -0.046,0 -0.089,0.01 -0.064,0.01 -0.1381,0.05 -0.092,0.06 -0.1772,0.181 -0.053,0.07 -0.096,0.149 l 0,1.031 q 0,0.07 -0.053,0.124 -0.046,0.05 -0.124,0.05 -0.075,0 -0.1276,-0.05 -0.05,-0.05 -0.05,-0.124 l 0,-1.074 0,-1.357 q 0,-0.07 0.05,-0.124 0.06,-0.05 0.1276,-0.05 0.071,0 0.124,0.05 0.053,0.05 0.053,0.124 l 0,0.833 q 0.039,-0.04 0.081,-0.06 0.1134,-0.08 0.2658,-0.107 0.099,-0.01 0.1523,-0.01 0.2374,0 0.404,0.149 0.1204,0.11 0.1736,0.298 0.035,0.131 0.035,0.45 l 0,0.882 z" />
        <path id="path3443" d="m 63.5767,268.869 q 0,0.07 -0.053,0.124 -0.053,0.05 -0.124,0.05 -0.074,0 -0.1276,-0.05 -0.05,-0.05 -0.05,-0.124 l 0,-0.04 q -0.078,0.07 -0.1736,0.12 -0.081,0.05 -0.1807,0.08 -0.099,0.03 -0.2338,0.03 -0.163,-0 -0.28,-0.05 -0.17,-0.06 -0.2763,-0.195 -0.092,-0.107 -0.1382,-0.27 -0.035,-0.134 -0.035,-0.45 l 0,-0.811 q 0,-0.08 0.053,-0.124 0.053,-0.05 0.124,-0.05 0.071,0 0.124,0.05 0.053,0.05 0.053,0.124 l 0,0.811 q 0,0.27 0.025,0.358 0.021,0.08 0.067,0.135 0.042,0.06 0.1275,0.09 0.067,0.02 0.163,0.03 0.074,0 0.1311,-0.01 0.06,-0.02 0.1028,-0.05 0.071,-0.04 0.1098,-0.08 0.046,-0.04 0.117,-0.131 0.078,-0.113 0.1204,-0.237 l 0,-0.918 q 0,-0.07 0.05,-0.124 0.06,-0.05 0.1276,-0.05 0.064,0 0.124,0.05 0.053,0.05 0.053,0.124 l 0,0.953 0,0.638 z" />
        <path id="path3445" d="m 66.1869,267.983 q 0,0.11 -0.011,0.223 -0.025,0.263 -0.1098,0.429 -0.099,0.181 -0.2622,0.291 -0.241,0.155 -0.5209,0.127 -0.2622,-0.02 -0.4748,-0.198 l 0,0.01 q 0,0.07 -0.05,0.124 -0.053,0.05 -0.1275,0.05 -0.078,0 -0.1241,-0.05 -0.053,-0.05 -0.053,-0.124 l 0,-0.556 0,-0.507 0,-1.368 q 0,-0.07 0.053,-0.124 0.053,-0.05 0.1241,-0.05 0.067,0 0.1275,0.05 0.05,0.05 0.05,0.124 l 0,0.854 q 0.1099,-0.09 0.2197,-0.135 0.1347,-0.06 0.2622,-0.06 0.1169,-0.01 0.2551,0.03 0.1453,0.03 0.2516,0.102 0.1665,0.103 0.2658,0.273 0.1169,0.206 0.124,0.489 z m -1.3784,-0.135 0,0.433 q 0.064,0.163 0.202,0.28 0.1453,0.127 0.3083,0.141 0.1488,0.02 0.2905,-0.07 0.096,-0.07 0.1417,-0.156 0.05,-0.09 0.071,-0.298 0.011,-0.09 0.011,-0.184 -0.01,-0.191 -0.078,-0.319 -0.06,-0.1 -0.1417,-0.149 -0.071,-0.04 -0.1524,-0.06 -0.078,-0.02 -0.1488,-0.02 -0.067,0 -0.1418,0.04 -0.082,0.04 -0.1594,0.103 -0.1205,0.103 -0.202,0.262 z" />
        <path id="path3447" d="m 67.4294,268.858 0,-0.138 0,-0.07 0,-0.138 q 0,-0.07 0.053,-0.124 0.05,-0.05 0.124,-0.05 l 0.5067,0 q 0.074,0 0.1276,0.05 0.05,0.05 0.05,0.124 l 0,0.343 q 0,0.07 -0.05,0.124 -0.053,0.05 -0.1276,0.05 l -0.5067,0 q -0.074,0 -0.124,-0.05 -0.053,-0.05 -0.053,-0.124 z" />
        <path id="path3449" d="m 70.7695,268.869 q 0,0.07 -0.05,0.124 -0.053,0.05 -0.1276,0.05 -0.074,0 -0.124,-0.05 -0.053,-0.05 -0.053,-0.124 l 0,-1.371 -0.4606,0 q -0.071,0 -0.124,-0.05 -0.053,-0.05 -0.053,-0.124 0,-0.07 0.053,-0.127 0.05,-0.05 0.124,-0.05 l 0.6378,0 q 0.071,0 0.1276,0.05 0.05,0.06 0.05,0.127 l 0,1.549 z m -0.326,-2.608 0.1594,0 q 0.067,0 0.1276,0.05 0.05,0.05 0.05,0.124 l 0,0.163 q 0,0.07 -0.05,0.124 -0.053,0.05 -0.1276,0.05 l -0.1594,0 q -0.074,0 -0.1276,-0.05 -0.05,-0.05 -0.05,-0.124 l 0,-0.163 q 0,-0.07 0.05,-0.124 0.06,-0.05 0.1276,-0.05 z" />
        <path id="path3451" d="m 73.8686,268.068 q 0,0.312 -0.124,0.539 -0.092,0.18 -0.2551,0.294 -0.1098,0.08 -0.2586,0.12 -0.117,0.04 -0.2481,0.04 -0.1346,0 -0.2516,-0.04 -0.1417,-0.04 -0.2551,-0.12 -0.1559,-0.107 -0.2586,-0.294 -0.1205,-0.224 -0.1205,-0.539 0,-0.319 0.1205,-0.549 0.099,-0.181 0.2586,-0.294 0.1276,-0.09 0.2941,-0.131 l 0.018,0 q 0.096,-0.02 0.1949,-0.02 0.287,0 0.5067,0.153 0.1666,0.12 0.2551,0.294 0.124,0.23 0.124,0.549 z m -0.8858,-0.641 q -0.064,0 -0.1417,0.02 -0.081,0.02 -0.163,0.07 -0.089,0.06 -0.1453,0.17 -0.081,0.149 -0.081,0.383 0,0.227 0.081,0.372 0.057,0.106 0.1453,0.174 0.064,0.05 0.1488,0.07 0.074,0.02 0.1559,0.02 0.074,0 0.1559,-0.02 0.085,-0.02 0.1453,-0.07 0.092,-0.07 0.1488,-0.174 0.082,-0.152 0.082,-0.372 0,-0.234 -0.082,-0.383 -0.057,-0.109 -0.1488,-0.17 -0.124,-0.09 -0.3012,-0.09 z" />
        <path id="path3453" d="m 76.2166,266.438 q 0,0.04 -0.014,0.07 l -0.9922,2.43 q -0.011,0.03 -0.039,0.06 -0.05,0.05 -0.124,0.05 -0.075,0 -0.1276,-0.05 -0.05,-0.05 -0.05,-0.124 0,-0.04 0.014,-0.07 l 0.9921,-2.431 q 0.01,-0.02 0.035,-0.06 0.06,-0.05 0.1276,-0.05 0.071,0 0.124,0.05 0.053,0.05 0.053,0.124 z" />
      </g>
      <g id="txt_logo">
        <path id="path3456" d="m 1.76811,274.359 0,-1.708 q 0,-0.07 0.0496,-0.124 0.0602,-0.05 0.12756,-0.05 0.0638,0 0.12401,0.05 0.0532,0.05 0.0532,0.124 l 0,2.207 q 0,0.07 -0.0532,0.124 -0.0532,0.05 -0.12401,0.05 l -0.13465,0 q -0.0744,0 -0.12402,-0.05 -0.0213,-0.02 -0.0354,-0.05 l -0.846849,-1.775 0,1.697 q 0,0.08 -0.05315,0.124 -0.04961,0.05 -0.124016,0.05 -0.07441,0 -0.124015,-0.05 Q 0.45,274.936 0.45,274.858 l 0,-2.207 q 0,-0.07 0.05315,-0.124 0.05315,-0.05 0.124015,-0.05 l 0.131103,0 q 0.06732,0 0.127559,0.05 0.0248,0.03 0.04252,0.07 l 0.839764,1.765 z" />
        <path id="path3458" d="m 4.73264,274.057 q 0,0.07 -0.0531,0.128 -0.0496,0.05 -0.12402,0.05 l -1.41732,0 q -0.0709,0 -0.12756,-0.05 -0.0496,-0.06 -0.0496,-0.128 0,-0.07 0.0496,-0.124 0.0602,-0.05 0.12756,-0.05 l 1.41732,0 q 0.0709,0 0.12402,0.05 0.0531,0.05 0.0531,0.124 z m 0,-0.807 q 0,0.08 -0.0531,0.124 -0.0496,0.05 -0.12402,0.05 l -1.41732,0 q -0.0744,0 -0.12756,-0.05 -0.0496,-0.05 -0.0496,-0.124 0,-0.07 0.0496,-0.128 0.0567,-0.05 0.12756,-0.05 l 1.41732,0 q 0.0744,0 0.12402,0.05 0.0531,0.05 0.0531,0.128 z" />
        <path id="path3460" d="m 6.8893,274.359 0,-1.708 q 0,-0.07 0.0496,-0.124 0.0602,-0.05 0.12756,-0.05 0.0638,0 0.12402,0.05 0.0531,0.05 0.0531,0.124 l 0,2.207 q 0,0.07 -0.0531,0.124 -0.0531,0.05 -0.12402,0.05 l -0.13464,0 q -0.0744,0 -0.12402,-0.05 -0.0213,-0.02 -0.0354,-0.05 l -0.84685,-1.775 0,1.697 q 0,0.08 -0.0531,0.124 -0.0496,0.05 -0.12402,0.05 -0.0744,0 -0.12401,-0.05 -0.0532,-0.05 -0.0532,-0.124 l 0,-2.207 q 0,-0.07 0.0532,-0.124 0.0531,-0.05 0.12401,-0.05 l 0.1311,0 q 0.0673,0 0.12756,0.05 0.0248,0.03 0.0425,0.07 l 0.83977,1.765 z" />
        <path id="path3462" d="m 9.85383,274.057 q 0,0.07 -0.0532,0.128 -0.0496,0.05 -0.12402,0.05 l -1.41732,0 q -0.0709,0 -0.12756,-0.05 -0.0496,-0.06 -0.0496,-0.128 0,-0.07 0.0496,-0.124 0.0602,-0.05 0.12756,-0.05 l 1.41732,0 q 0.0709,0 0.12402,0.05 0.0532,0.05 0.0532,0.124 z m 0,-0.807 q 0,0.08 -0.0532,0.124 -0.0496,0.05 -0.12402,0.05 l -1.41732,0 q -0.0744,0 -0.12756,-0.05 -0.0496,-0.05 -0.0496,-0.124 0,-0.07 0.0496,-0.128 0.0567,-0.05 0.12756,-0.05 l 1.41732,0 q 0.0744,0 0.12402,0.05 0.0532,0.05 0.0532,0.128 z" />
        <path id="path3464" d="m 12.0105,274.359 0,-1.708 q 0,-0.07 0.05,-0.124 0.06,-0.05 0.1275,-0.05 0.064,0 0.1241,0.05 0.053,0.05 0.053,0.124 l 0,2.207 q 0,0.07 -0.053,0.124 -0.053,0.05 -0.1241,0.05 l -0.1346,0 q -0.074,0 -0.124,-0.05 -0.021,-0.02 -0.035,-0.05 l -0.8469,-1.775 0,1.697 q 0,0.08 -0.053,0.124 -0.05,0.05 -0.1241,0.05 -0.074,0 -0.124,-0.05 -0.053,-0.05 -0.053,-0.124 l 0,-2.207 q 0,-0.07 0.053,-0.124 0.053,-0.05 0.124,-0.05 l 0.1311,0 q 0.067,0 0.1276,0.05 0.025,0.03 0.043,0.07 l 0.8398,1.765 z" />
      </g>
      <g id="txt_name" style="text-anchor:end">
        <path id="path3467" d="m 187.763,268.089 q 0,0.192 -0.05,0.351 -0.09,0.323 -0.337,0.486 -0.113,0.07 -0.258,0.106 -0.135,0.03 -0.252,0.03 -0.131,-0.01 -0.262,-0.07 -0.117,-0.05 -0.22,-0.134 l 0,0.62 q 0,0.07 -0.05,0.127 -0.06,0.05 -0.128,0.05 -0.07,0 -0.124,-0.05 -0.05,-0.06 -0.05,-0.127 l 0,-1.162 0,-0.496 0,-0.539 q 0,-0.07 0.05,-0.124 0.05,-0.05 0.124,-0.05 0.07,0 0.128,0.05 0.05,0.05 0.05,0.124 l 0,0.01 q 0.11,-0.09 0.22,-0.135 0.135,-0.06 0.262,-0.06 0.117,-0.01 0.255,0.03 0.142,0.03 0.252,0.1 0.17,0.11 0.266,0.28 0.124,0.219 0.124,0.591 z m -1.379,-0.237 0,0.418 0.04,0.08 q 0.09,0.142 0.167,0.216 0.07,0.07 0.156,0.103 0.07,0.03 0.141,0.04 0.07,0 0.149,-0.02 0.09,-0.02 0.149,-0.06 0.131,-0.08 0.188,-0.284 0.03,-0.12 0.03,-0.255 0,-0.28 -0.08,-0.421 -0.06,-0.1 -0.141,-0.146 -0.07,-0.04 -0.153,-0.06 -0.08,-0.02 -0.149,-0.02 -0.07,0 -0.141,0.04 -0.08,0.04 -0.16,0.103 -0.124,0.107 -0.202,0.266 z" />
        <path id="path3469" d="m 190.274,268.869 q 0,0.07 -0.05,0.124 -0.05,0.05 -0.124,0.05 -0.07,0 -0.127,-0.05 -0.05,-0.05 -0.05,-0.124 l 0,-0.882 q 0,-0.238 -0.04,-0.341 -0.04,-0.109 -0.124,-0.152 -0.04,-0.03 -0.145,-0.04 l -0.07,-0.01 q -0.03,0 -0.07,0.01 -0.09,0.01 -0.156,0.05 -0.07,0.03 -0.153,0.114 -0.138,0.141 -0.202,0.308 l 0,0.946 q 0,0.07 -0.05,0.124 -0.05,0.05 -0.124,0.05 -0.07,0 -0.124,-0.05 -0.05,-0.05 -0.05,-0.124 l 0,-0.982 0,-0.609 q 0,-0.08 0.05,-0.124 0.05,-0.05 0.124,-0.05 0.07,0 0.124,0.05 0.05,0.05 0.05,0.124 l 0,0.04 q 0.1,-0.09 0.202,-0.141 0.114,-0.05 0.248,-0.07 0.09,-0.01 0.132,-0.01 0.05,0 0.131,0.01 0.159,0.03 0.258,0.08 0.199,0.106 0.284,0.333 0.06,0.166 0.06,0.468 l 0,0.882 z" />
        <path id="path3471" d="m 192.852,268.199 q -0.01,0.287 -0.191,0.51 -0.234,0.273 -0.642,0.326 -0.09,0.01 -0.184,0.01 -0.323,0 -0.617,-0.127 -0.02,-0 -0.06,-0.04 -0.05,-0.06 -0.05,-0.127 0,-0.07 0.05,-0.125 0.06,-0.05 0.127,-0.05 0.03,0 0.07,0.02 0.223,0.1 0.478,0.1 0.07,0 0.138,-0.01 0.269,-0.03 0.415,-0.198 0.102,-0.124 0.11,-0.302 0.01,-0.166 -0.08,-0.294 -0.128,-0.177 -0.45,-0.23 -0.114,-0.02 -0.199,-0.02 -0.07,0 -0.12,-0.05 -0.05,-0.05 -0.05,-0.124 0,-0.07 0.05,-0.12 l 0,-0 0.638,-0.669 -0.985,0 q -0.07,0 -0.128,-0.05 -0.05,-0.06 -0.05,-0.124 0,-0.07 0.05,-0.127 0.06,-0.05 0.128,-0.05 l 1.286,0 q 0.07,0 0.124,0.05 0.05,0.06 0.05,0.127 l 0,0.121 q 0,0.07 -0.05,0.12 l -0.571,0.599 q 0.379,0.09 0.567,0.351 0.16,0.223 0.142,0.517 z" />
        <path id="path3473" d="m 194.417,267.88 -0.567,0 q -0.07,0 -0.128,-0.05 -0.05,-0.06 -0.05,-0.128 l 0,-0.1 q 0,-0.07 0.05,-0.128 0.06,-0.05 0.128,-0.05 l 1.417,0 q 0.08,0 0.124,0.05 0.05,0.05 0.05,0.128 l 0,0.1 q 0,0.08 -0.05,0.128 -0.05,0.05 -0.124,0.05 l -0.567,0 -0.283,0 z" />
        <path id="path3475" d="m 197.842,268.554 q 0,0.03 -0,0.04 -0.05,0.202 -0.205,0.319 -0.121,0.1 -0.276,0.128 -0.128,0.02 -0.259,0.01 -0.138,-0.01 -0.266,-0.08 -0.174,-0.1 -0.273,-0.273 -0.06,-0.106 -0.1,-0.272 -0.03,-0.163 -0.03,-0.401 0,-0.205 0.03,-0.347 0.03,-0.145 0.103,-0.252 0.113,-0.184 0.276,-0.258 0.106,-0.06 0.262,-0.07 0.117,-0.02 0.241,0 0.213,0.03 0.344,0.149 0.1,0.09 0.131,0.227 0,0.01 0,0.04 0,0.07 -0.05,0.124 -0.05,0.05 -0.127,0.05 -0.08,0 -0.125,-0.05 -0.03,-0.03 -0.05,-0.09 -0.01,-0.03 -0.03,-0.05 -0.04,-0.04 -0.142,-0.05 -0.05,-0 -0.163,0 -0.08,0 -0.145,0.04 -0.07,0.04 -0.128,0.124 -0.03,0.06 -0.06,0.152 -0.03,0.1 -0.03,0.262 0,0.206 0.03,0.326 0.02,0.103 0.06,0.174 0.05,0.09 0.134,0.134 0.06,0.03 0.135,0.04 0.07,0.01 0.149,-0 0.07,-0.02 0.127,-0.06 0.06,-0.05 0.08,-0.124 0.02,-0.05 0.05,-0.08 0.05,-0.05 0.124,-0.05 0.07,0 0.124,0.05 0.05,0.05 0.05,0.124 z" />
        <path id="path3477" d="m 200.566,268.089 q 0,0.192 -0.05,0.351 -0.09,0.323 -0.337,0.486 -0.113,0.07 -0.258,0.106 -0.135,0.03 -0.252,0.03 -0.131,-0.01 -0.262,-0.07 -0.117,-0.05 -0.22,-0.134 l 0,0.62 q 0,0.07 -0.05,0.127 -0.06,0.05 -0.128,0.05 -0.07,0 -0.124,-0.05 -0.05,-0.06 -0.05,-0.127 l 0,-1.162 0,-0.496 0,-0.539 q 0,-0.07 0.05,-0.124 0.05,-0.05 0.124,-0.05 0.07,0 0.128,0.05 0.05,0.05 0.05,0.124 l 0,0.01 q 0.11,-0.09 0.22,-0.135 0.135,-0.06 0.262,-0.06 0.117,-0.01 0.255,0.03 0.142,0.03 0.252,0.1 0.17,0.11 0.266,0.28 0.124,0.219 0.124,0.591 z m -1.379,-0.237 0,0.418 0.04,0.08 q 0.09,0.142 0.167,0.216 0.07,0.07 0.156,0.103 0.07,0.03 0.141,0.04 0.07,0 0.149,-0.02 0.09,-0.02 0.149,-0.06 0.131,-0.08 0.188,-0.284 0.04,-0.12 0.04,-0.255 0,-0.28 -0.08,-0.421 -0.06,-0.1 -0.141,-0.146 -0.07,-0.04 -0.153,-0.06 -0.08,-0.02 -0.149,-0.02 -0.07,0 -0.141,0.04 -0.08,0.04 -0.16,0.103 -0.124,0.107 -0.202,0.266 z" />
        <path id="path3479" d="m 202.57,268.858 q 0,0.07 -0.05,0.124 -0.05,0.05 -0.124,0.05 -0.07,0 -0.128,-0.05 -0.05,-0.05 -0.05,-0.124 l 0,-2.119 -0.457,0.39 q -0.05,0.04 -0.117,0.04 -0.07,0 -0.124,-0.05 -0.05,-0.06 -0.05,-0.128 0,-0.08 0.06,-0.134 l 0.638,-0.546 q 0.01,-0.01 0.04,-0.03 0.03,-0.01 0.07,-0.01 l 0.114,0 q 0.08,0 0.124,0.05 0.05,0.05 0.05,0.124 l 0,2.409 z" />
        <path id="path3481" d="m 205.563,268.692 q 0.05,0.05 0.05,0.127 0,0.07 -0.05,0.124 -0.05,0.05 -0.124,0.05 l -1.248,0 q -0.07,0 -0.124,-0.05 -0.05,-0.05 -0.05,-0.124 0,-0.343 0.04,-0.475 0.06,-0.219 0.231,-0.389 0.17,-0.17 0.421,-0.333 0.347,-0.224 0.44,-0.348 0.09,-0.124 0.09,-0.258 0,-0.1 -0.03,-0.167 -0.07,-0.156 -0.255,-0.209 -0.07,-0.02 -0.149,-0.02 -0.09,0 -0.181,0.01 -0.202,0.02 -0.365,0.142 -0.06,0.03 -0.103,0.03 -0.07,0 -0.124,-0.05 -0.05,-0.05 -0.05,-0.124 0,-0.07 0.05,-0.127 0.02,-0.01 0.02,-0.02 0.237,-0.166 0.524,-0.205 0.11,-0.01 0.227,-0.01 0.12,0 0.255,0.04 0.34,0.106 0.471,0.397 0.07,0.145 0.07,0.319 0,0.248 -0.167,0.471 -0.06,0.08 -0.163,0.17 -0.1,0.09 -0.17,0.131 -0.07,0.05 -0.198,0.131 -0.139,0.09 -0.217,0.146 -0.08,0.06 -0.166,0.159 -0.09,0.103 -0.121,0.216 -0.02,0.07 -0.02,0.202 l 1.067,0 q 0.07,0 0.124,0.05 z" />
        <path id="path3483" d="m 207.22,267.88 -0.567,0 q -0.07,0 -0.128,-0.05 -0.05,-0.06 -0.05,-0.128 l 0,-0.1 q 0,-0.07 0.05,-0.128 0.06,-0.05 0.128,-0.05 l 1.417,0 q 0.08,0 0.124,0.05 0.05,0.05 0.05,0.128 l 0,0.1 q 0,0.08 -0.05,0.128 -0.05,0.05 -0.124,0.05 l -0.567,0 -0.283,0 z" />
        <path id="path3485" d="m 210.797,267.278 q 0,0.03 -0.01,0.06 l -0.564,1.584 -0,0 q -0.01,0.04 -0.04,0.06 -0.05,0.05 -0.124,0.05 l -0.262,0 q -0.07,0 -0.128,-0.05 -0.02,-0.02 -0.04,-0.06 -0,-0 -0,-0.02 l -0.564,-1.581 q -0.01,-0.03 -0.01,-0.06 0,-0.07 0.05,-0.124 0.06,-0.05 0.128,-0.05 0.07,0 0.124,0.05 0.02,0.02 0.04,0.07 l 0.524,1.471 0.01,0 0.525,-1.471 q 0.01,-0.04 0.04,-0.07 0.05,-0.05 0.124,-0.05 0.07,0 0.124,0.05 0.05,0.05 0.05,0.124 z" />
        <path id="path3487" d="m 213.244,268.692 q 0.05,0.05 0.05,0.127 0,0.07 -0.05,0.124 -0.05,0.05 -0.124,0.05 l -1.247,0 q -0.07,0 -0.124,-0.05 -0.05,-0.05 -0.05,-0.124 0,-0.343 0.04,-0.475 0.06,-0.219 0.23,-0.389 0.17,-0.17 0.422,-0.333 0.347,-0.224 0.439,-0.348 0.1,-0.124 0.1,-0.258 0,-0.1 -0.03,-0.167 -0.07,-0.156 -0.256,-0.209 -0.07,-0.02 -0.148,-0.02 -0.09,0 -0.181,0.01 -0.202,0.02 -0.365,0.142 -0.06,0.03 -0.103,0.03 -0.07,0 -0.124,-0.05 -0.05,-0.05 -0.05,-0.124 0,-0.07 0.05,-0.127 0.01,-0.01 0.02,-0.02 0.238,-0.166 0.525,-0.205 0.11,-0.01 0.227,-0.01 0.12,0 0.255,0.04 0.34,0.106 0.471,0.397 0.07,0.145 0.07,0.319 0,0.248 -0.166,0.471 -0.06,0.08 -0.163,0.17 -0.1,0.09 -0.17,0.131 -0.07,0.05 -0.199,0.131 -0.138,0.09 -0.216,0.146 -0.08,0.06 -0.166,0.159 -0.09,0.103 -0.121,0.216 -0.02,0.07 -0.02,0.202 l 1.066,0 q 0.07,0 0.124,0.05 z" />
        <path id="path3489" d="m 215.798,268.869 q 0,0.07 -0.05,0.124 -0.05,0.05 -0.124,0.05 -0.08,0 -0.128,-0.05 -0.05,-0.05 -0.05,-0.124 l 0,-0.03 q -0.03,0.02 -0.103,0.07 -0.241,0.159 -0.514,0.142 -0.17,-0.01 -0.315,-0.1 -0.146,-0.09 -0.231,-0.233 -0.07,-0.131 -0.07,-0.27 0,-0.156 0.07,-0.29 0.09,-0.163 0.28,-0.255 0.163,-0.08 0.472,-0.1 l 0.411,-0.01 q -0.02,-0.209 -0.107,-0.287 -0.09,-0.08 -0.294,-0.08 -0.219,0 -0.386,0.134 -0.05,0.04 -0.11,0.04 -0.07,0 -0.127,-0.05 -0.05,-0.06 -0.05,-0.127 0,-0.07 0.05,-0.124 0,-0 0,-0 0,-0 0.01,-0 0.27,-0.209 0.606,-0.209 0.344,0 0.535,0.178 0.192,0.18 0.216,0.52 0.01,0.09 0,0.192 l 0,0.01 0,0 0,0 0,0.354 0,0.528 z m -0.354,-0.578 0,-0.138 q -0.199,0 -0.394,0.01 -0.23,0.01 -0.336,0.06 -0.09,0.04 -0.124,0.109 -0.03,0.05 -0.03,0.117 0,0.05 0.03,0.09 0.08,0.146 0.262,0.156 0.156,0.01 0.298,-0.08 0.07,-0.05 0.163,-0.148 0.06,-0.07 0.131,-0.178 z" />
        <path id="path3491" d="m 217.172,268.858 0,-0.138 0,-0.07 0,-0.138 q 0,-0.07 0.05,-0.124 0.05,-0.05 0.124,-0.05 l 0.506,0 q 0.08,0 0.128,0.05 0.05,0.05 0.05,0.124 l 0,0.343 q 0,0.07 -0.05,0.124 -0.05,0.05 -0.128,0.05 l -0.506,0 q -0.07,0 -0.124,-0.05 -0.05,-0.05 -0.05,-0.124 z" />
        <path id="path3493" d="m 220.93,268.472 q 0,0.1 -0.03,0.184 -0.06,0.177 -0.237,0.284 -0.114,0.06 -0.263,0.09 -0.1,0.02 -0.23,0.03 -0.131,0 -0.23,-0.01 -0.146,-0.02 -0.263,-0.08 -0.141,-0.07 -0.23,-0.217 -0.03,-0.04 -0.03,-0.09 0,-0.07 0.05,-0.124 0.05,-0.05 0.128,-0.05 0.07,0 0.124,0.05 0.01,0 0.02,0.03 0.04,0.06 0.1,0.09 0.06,0.02 0.145,0.04 0.06,0.01 0.174,0.01 0.12,-0 0.174,-0.02 0.1,-0.02 0.141,-0.05 0.06,-0.03 0.09,-0.1 0.01,-0.03 0.01,-0.06 0,-0.06 -0.03,-0.1 -0.01,-0.01 -0.05,-0.04 -0.06,-0.03 -0.17,-0.06 l -0.202,-0.06 -0.209,-0.06 q -0.17,-0.05 -0.258,-0.12 -0.09,-0.07 -0.149,-0.181 -0.06,-0.113 -0.06,-0.244 0,-0.174 0.09,-0.302 0.05,-0.07 0.124,-0.124 0.173,-0.124 0.506,-0.124 l 0.11,0 q 0.206,0.01 0.369,0.11 0.163,0.1 0.209,0.273 0,0.04 0,0.05 0,0.07 -0.05,0.128 -0.06,0.05 -0.124,0.05 -0.07,0 -0.128,-0.05 -0.03,-0.04 -0.05,-0.08 -0.03,-0.106 -0.251,-0.12 l -0.09,0 q -0.219,0 -0.301,0.06 -0.02,0.01 -0.04,0.04 -0.03,0.04 -0.03,0.1 0,0.04 0.02,0.08 0.02,0.04 0.05,0.06 0.04,0.03 0.145,0.06 l 0.199,0.06 0.201,0.05 q 0.171,0.05 0.234,0.08 0.1,0.05 0.153,0.106 0.131,0.135 0.131,0.344 z" />
        <path id="path3495" d="m 223.6,267.278 q 0,0.03 -0.01,0.06 l -0.564,1.584 -0,0 q -0.01,0.04 -0.04,0.06 -0.05,0.05 -0.124,0.05 l -0.262,0 q -0.07,0 -0.128,-0.05 -0.02,-0.02 -0.03,-0.06 -0,-0 -0,-0.02 l -0.564,-1.581 q -0.01,-0.03 -0.01,-0.06 0,-0.07 0.05,-0.124 0.06,-0.05 0.128,-0.05 0.07,0 0.124,0.05 0.02,0.02 0.04,0.07 l 0.524,1.471 0.01,0 0.525,-1.471 q 0.01,-0.04 0.04,-0.07 0.05,-0.05 0.124,-0.05 0.07,0 0.124,0.05 0.05,0.05 0.05,0.124 z" />
        <path id="path3497" d="m 226.079,267.845 0,0.375 0,0.567 q 0.04,0.252 -0.07,0.489 -0.08,0.181 -0.227,0.277 -0.103,0.07 -0.266,0.1 -0.138,0.02 -0.233,0.02 -0.11,0 -0.22,-0.01 -0.167,-0.01 -0.259,-0.06 -0.177,-0.08 -0.251,-0.252 -0.01,-0.03 -0.01,-0.07 0,-0.07 0.05,-0.124 0.05,-0.05 0.128,-0.05 0.07,0 0.124,0.05 0.02,0.02 0.04,0.05 0.02,0.05 0.07,0.07 0.03,0.02 0.145,0.02 0.09,0.01 0.184,0.01 0.08,0 0.174,-0.02 0.09,-0.01 0.138,-0.05 0.06,-0.03 0.1,-0.124 0.06,-0.135 0.04,-0.287 -0,-0 -0,-0.01 0,-0.01 0,-0.01 l 0,-0.02 0,-0.07 q -0.07,0.07 -0.156,0.113 -0.117,0.06 -0.255,0.08 -0.06,0.01 -0.131,0.01 -0.07,0 -0.131,-0.01 -0.16,-0.03 -0.266,-0.1 -0.163,-0.1 -0.269,-0.315 -0.107,-0.23 -0.107,-0.464 0,-0.34 0.11,-0.546 0.103,-0.188 0.266,-0.29 0.223,-0.139 0.514,-0.117 0.145,0.01 0.262,0.07 0.08,0.04 0.163,0.106 0,-0.07 0.05,-0.113 0.05,-0.05 0.124,-0.05 0.07,0 0.124,0.05 0.05,0.05 0.05,0.124 l 0,0.567 z m -0.354,0.326 0,-0.294 q -0.06,-0.146 -0.167,-0.28 -0.07,-0.08 -0.145,-0.117 -0.06,-0.03 -0.142,-0.04 -0.17,-0.01 -0.297,0.06 -0.09,0.06 -0.138,0.156 -0.07,0.131 -0.07,0.383 0,0.159 0.07,0.308 0.07,0.128 0.138,0.17 0.06,0.04 0.138,0.05 0.03,0 0.07,0 0.03,0 0.07,-0 0.1,-0.01 0.149,-0.04 0.07,-0.04 0.149,-0.131 0.09,-0.1 0.17,-0.227 z" />
      </g>
      <g id="txt_date" style="text-anchor:end">
        <path id="path3500" d="m 203.002,274.692 q 0.05,0.05 0.05,0.127 0,0.07 -0.05,0.124 -0.05,0.05 -0.124,0.05 l -1.247,0 q -0.07,0 -0.124,-0.05 -0.05,-0.05 -0.05,-0.124 0,-0.343 0.04,-0.475 0.06,-0.219 0.23,-0.389 0.17,-0.17 0.422,-0.333 0.347,-0.224 0.439,-0.348 0.1,-0.124 0.1,-0.258 0,-0.1 -0.04,-0.167 -0.07,-0.156 -0.255,-0.209 -0.07,-0.02 -0.149,-0.02 -0.09,0 -0.18,0.01 -0.202,0.02 -0.365,0.142 -0.06,0.03 -0.103,0.03 -0.07,0 -0.124,-0.05 -0.05,-0.05 -0.05,-0.124 0,-0.07 0.05,-0.127 0.01,-0.01 0.02,-0.02 0.238,-0.166 0.525,-0.205 0.109,-0.01 0.226,-0.01 0.121,0 0.255,0.04 0.341,0.106 0.472,0.397 0.07,0.145 0.07,0.319 0,0.248 -0.167,0.471 -0.06,0.08 -0.163,0.17 -0.1,0.09 -0.17,0.131 -0.07,0.05 -0.198,0.131 -0.138,0.09 -0.216,0.146 -0.08,0.06 -0.167,0.159 -0.09,0.103 -0.12,0.216 -0.02,0.07 -0.02,0.202 l 1.066,0 q 0.07,0 0.124,0.05 z" />
        <path id="path3502" d="m 205.687,273.785 q 0,0.223 -0.03,0.418 -0.03,0.195 -0.103,0.375 -0.07,0.178 -0.202,0.298 -0.131,0.12 -0.312,0.156 -0.04,0.01 -0.09,0.01 -0.01,0 -0.03,0 l -0.04,0 -0.08,0 q -0.17,0 -0.238,-0.01 -0.237,-0.05 -0.389,-0.245 -0.153,-0.202 -0.206,-0.45 -0.05,-0.248 -0.05,-0.552 0,-0.291 0.02,-0.504 0.02,-0.212 0.08,-0.442 0.06,-0.234 0.198,-0.376 0.138,-0.145 0.347,-0.188 0.07,-0.01 0.238,-0.01 0.166,0 0.237,0.01 0.209,0.04 0.348,0.188 0.138,0.142 0.198,0.376 0.06,0.23 0.08,0.442 0.02,0.213 0.02,0.504 z m -0.886,0.907 0.08,0 q 0.06,0 0.09,-0 0.124,-0.02 0.202,-0.11 0.08,-0.08 0.11,-0.227 0.04,-0.142 0.04,-0.259 0.01,-0.12 0.01,-0.304 0,-0.142 -0,-0.216 0,-0.08 -0,-0.213 -0,-0.135 -0.02,-0.213 -0.01,-0.08 -0.04,-0.184 -0.03,-0.103 -0.06,-0.163 -0.04,-0.06 -0.1,-0.11 -0.06,-0.05 -0.135,-0.06 -0.03,-0 -0.166,-0 -0.135,0 -0.17,0 -0.09,0.02 -0.153,0.07 -0.06,0.05 -0.102,0.156 -0.04,0.1 -0.06,0.191 -0.02,0.09 -0.03,0.245 -0,0.152 -0.01,0.241 0,0.09 0,0.255 0,0.145 0,0.241 0,0.09 0.02,0.219 0.02,0.128 0.06,0.209 0.04,0.08 0.11,0.146 0.07,0.06 0.17,0.08 0.03,0 0.17,0 z" />
        <path id="path3504" d="m 207.691,274.858 q 0,0.07 -0.05,0.124 -0.05,0.05 -0.124,0.05 -0.08,0 -0.128,-0.05 -0.05,-0.05 -0.05,-0.124 l 0,-2.119 -0.457,0.39 q -0.05,0.04 -0.117,0.04 -0.08,0 -0.124,-0.05 -0.05,-0.06 -0.05,-0.128 0,-0.08 0.06,-0.134 l 0.638,-0.546 q 0.01,-0.01 0.04,-0.03 0.03,-0.01 0.07,-0.01 l 0.114,0 q 0.08,0 0.124,0.05 0.05,0.05 0.05,0.124 l 0,2.409 z" />
        <path id="path3506" d="m 210.705,273.703 q 0.103,0.195 0.103,0.486 0,0.29 -0.156,0.51 -0.117,0.163 -0.312,0.258 -0.181,0.09 -0.418,0.09 -0.241,0 -0.422,-0.09 -0.187,-0.09 -0.311,-0.258 -0.153,-0.22 -0.153,-0.503 l 0,-0 0,-0.08 q 0,-0.223 0.05,-0.372 0.05,-0.205 0.202,-0.453 0.185,-0.305 0.503,-0.674 l 0.27,-0.29 q 0.05,-0.05 0.127,-0.05 0.07,0 0.124,0.05 0.05,0.05 0.05,0.124 0,0.07 -0.05,0.12 l -0.262,0.28 q -0.209,0.241 -0.351,0.447 0.107,-0.02 0.22,-0.02 0.291,0 0.496,0.128 0.195,0.113 0.287,0.301 z m -1.314,0.486 q 0,0.18 0.09,0.304 0.06,0.09 0.174,0.146 0.117,0.05 0.269,0.05 0.152,0 0.269,-0.05 0.11,-0.06 0.174,-0.146 0.09,-0.131 0.09,-0.304 0,-0.202 -0.06,-0.323 -0.05,-0.09 -0.156,-0.163 -0.134,-0.07 -0.315,-0.07 -0.216,0 -0.34,0.09 -0.128,0.1 -0.177,0.302 -0.01,0.07 -0.01,0.163 z" />
        <path id="path3508" d="m 212.341,273.88 -0.567,0 q -0.07,0 -0.128,-0.05 -0.05,-0.06 -0.05,-0.128 l 0,-0.1 q 0,-0.07 0.05,-0.128 0.06,-0.05 0.128,-0.05 l 1.417,0 q 0.07,0 0.124,0.05 0.05,0.05 0.05,0.128 l 0,0.1 q 0,0.08 -0.05,0.128 -0.05,0.05 -0.124,0.05 l -0.567,0 -0.283,0 z" />
        <path id="path3510" d="m 215.373,274.858 q 0,0.07 -0.05,0.124 -0.05,0.05 -0.124,0.05 -0.07,0 -0.128,-0.05 -0.05,-0.05 -0.05,-0.124 l 0,-2.119 -0.457,0.39 q -0.05,0.04 -0.117,0.04 -0.07,0 -0.124,-0.05 -0.05,-0.06 -0.05,-0.128 0,-0.08 0.06,-0.134 l 0.638,-0.546 q 0.01,-0.01 0.04,-0.03 0.03,-0.01 0.07,-0.01 l 0.114,0 q 0.08,0 0.124,0.05 0.05,0.05 0.05,0.124 l 0,2.409 z" />
        <path id="path3512" d="m 218.366,274.692 q 0.05,0.05 0.05,0.127 0,0.07 -0.05,0.124 -0.05,0.05 -0.124,0.05 l -1.248,0 q -0.07,0 -0.124,-0.05 -0.05,-0.05 -0.05,-0.124 0,-0.343 0.04,-0.475 0.06,-0.219 0.231,-0.389 0.17,-0.17 0.421,-0.333 0.347,-0.224 0.44,-0.348 0.09,-0.124 0.09,-0.258 0,-0.1 -0.03,-0.167 -0.07,-0.156 -0.255,-0.209 -0.07,-0.02 -0.149,-0.02 -0.09,0 -0.181,0.01 -0.202,0.02 -0.365,0.142 -0.06,0.03 -0.103,0.03 -0.07,0 -0.124,-0.05 -0.05,-0.05 -0.05,-0.124 0,-0.07 0.05,-0.127 0.02,-0.01 0.02,-0.02 0.237,-0.166 0.524,-0.205 0.11,-0.01 0.227,-0.01 0.12,0 0.255,0.04 0.34,0.106 0.471,0.397 0.07,0.145 0.07,0.319 0,0.248 -0.167,0.471 -0.06,0.08 -0.163,0.17 -0.1,0.09 -0.17,0.131 -0.07,0.05 -0.198,0.131 -0.139,0.09 -0.217,0.146 -0.08,0.06 -0.166,0.159 -0.09,0.103 -0.121,0.216 -0.02,0.07 -0.02,0.202 l 1.067,0 q 0.07,0 0.124,0.05 z" />
        <path id="path3514" d="m 220.023,273.88 -0.567,0 q -0.07,0 -0.128,-0.05 -0.05,-0.06 -0.05,-0.128 l 0,-0.1 q 0,-0.07 0.05,-0.128 0.06,-0.05 0.128,-0.05 l 1.417,0 q 0.08,0 0.124,0.05 0.05,0.05 0.05,0.128 l 0,0.1 q 0,0.08 -0.05,0.128 -0.05,0.05 -0.124,0.05 l -0.567,0 -0.283,0 z" />
        <path id="path3516" d="m 223.611,273.785 q 0,0.223 -0.03,0.418 -0.03,0.195 -0.103,0.375 -0.07,0.178 -0.202,0.298 -0.131,0.12 -0.312,0.156 -0.04,0.01 -0.08,0.01 -0.01,0 -0.03,0 l -0.04,0 -0.08,0 q -0.17,0 -0.237,-0.01 -0.238,-0.05 -0.39,-0.245 -0.152,-0.202 -0.206,-0.45 -0.05,-0.248 -0.05,-0.552 0,-0.291 0.02,-0.504 0.02,-0.212 0.08,-0.442 0.06,-0.234 0.198,-0.376 0.139,-0.145 0.348,-0.188 0.07,-0.01 0.237,-0.01 0.167,0 0.237,0.01 0.209,0.04 0.348,0.188 0.138,0.142 0.198,0.376 0.06,0.23 0.08,0.442 0.02,0.213 0.02,0.504 z m -0.886,0.907 0.08,0 q 0.06,0 0.09,-0 0.124,-0.02 0.202,-0.11 0.08,-0.08 0.109,-0.227 0.04,-0.142 0.04,-0.259 0.01,-0.12 0.01,-0.304 0,-0.142 -0,-0.216 0,-0.08 -0,-0.213 -0,-0.135 -0.02,-0.213 -0.01,-0.08 -0.04,-0.184 -0.03,-0.103 -0.06,-0.163 -0.04,-0.06 -0.1,-0.11 -0.06,-0.05 -0.134,-0.06 -0.03,-0 -0.167,-0 -0.135,0 -0.17,0 -0.09,0.02 -0.152,0.07 -0.06,0.05 -0.103,0.156 -0.04,0.1 -0.06,0.191 -0.02,0.09 -0.03,0.245 -0,0.152 -0.01,0.241 0,0.09 0,0.255 0,0.145 0,0.241 0,0.09 0.02,0.219 0.02,0.128 0.06,0.209 0.04,0.08 0.11,0.146 0.07,0.06 0.17,0.08 0.03,0 0.17,0 z" />
        <path id="path3518" d="m 225.817,273.179 q 0,-0.199 -0.07,-0.319 -0.07,-0.117 -0.195,-0.181 -0.124,-0.06 -0.269,-0.06 -0.224,0 -0.38,0.167 -0.152,0.166 -0.152,0.397 0,0.145 0.07,0.265 0.07,0.121 0.188,0.181 0.107,0.05 0.277,0.05 0.301,0 0.418,-0.117 0.06,-0.06 0.08,-0.127 0.03,-0.135 0.03,-0.255 z m -0.315,0.84 q -0.1,0.01 -0.216,0.01 -0.259,0 -0.433,-0.09 -0.212,-0.106 -0.333,-0.312 -0.12,-0.209 -0.12,-0.453 0,-0.376 0.258,-0.645 0.259,-0.273 0.628,-0.273 0.241,0 0.45,0.113 0.209,0.11 0.322,0.312 0.113,0.206 0.113,0.493 0,0.177 -0.04,0.312 -0.07,0.272 -0.248,0.588 -0.311,0.524 -0.744,0.91 -0.05,0.05 -0.117,0.05 -0.07,0 -0.127,-0.05 -0.05,-0.05 -0.05,-0.124 0,-0.08 0.06,-0.131 0.351,-0.319 0.599,-0.708 z" />
      </g>
    </g>
    <g style="fill:none;stroke:#0000ff;stroke-width:0.01" id="panel_outline">
      <title id="title24">panel outline</title>
      <desc id="desc26">panel outline and mounting holes</desc>
      <rect id="rect28" rx="2" height="304.8" width="254" y="-13" x="-13" />
      <use height="100%" width="100%" id="use30" xlink:href="#m2.5_hole" y="42.53" x="-5" />
      <use height="100%" width="100%" id="use32" xlink:href="#m2.5_hole" y="127.59" x="-5" />
      <use height="100%" width="100%" id="use34" xlink:href="#m2.5_hole" y="212.65" x="-5" />
      <use height="100%" width="100%" id="use36" xlink:href="#m2.5_hole" y="42.53" x="231.56" />
      <use height="100%" width="100%" id="use38" xlink:href="#m2.5_hole" y="127.59" x="231.56" />
      <use height="100%" width="100%" id="use40" xlink:href="#m2.5_hole" y="212.65" x="231.56" />
      <use height="100%" width="100%" id="use42" xlink:href="#m2.5_hole" y="-5" x="28.32" />
      <use height="100%" width="100%" id="use44" xlink:href="#m2.5_hole" y="-5" x="84.96" />
      <use height="100%" width="100%" id="use46" xlink:href="#m2.5_hole" y="-5" x="141.6" />
      <use height="100%" width="100%" id="use48" xlink:href="#m2.5_hole" y="-5" x="198.24" />
      <use height="100%" width="100%" id="use50" xlink:href="#m2.5_hole" y="260.18" x="28.32" />
      <use height="100%" width="100%" id="use52" xlink:href="#m2.5_hole" y="260.18" x="84.96" />
      <use height="100%" width="100%" id="use54" xlink:href="#m2.5_hole" y="260.18" x="141.6" />
      <use height="100%" width="100%" id="use56" xlink:href="#m2.5_hole" y="260.18" x="198.24" />
      <use height="100%" width="100%" id="use58" xlink:href="#m2.5_hole" y="-5" x="-5" />
      <use height="100%" width="100%" id="use60" xlink:href="#m2.5_hole" y="283.8" x="-5" />
      <use height="100%" width="100%" id="use62" xlink:href="#m2.5_hole" y="-5" x="233" />
      <use height="100%" width="100%" id="use64" xlink:href="#m2.5_hole" y="283.8" x="233" />
    </g>
  </g>
</svg>
