<?xml version="1.0" encoding="UTF-8" ?>

<svg
  xmlns="http://www.w3.org/2000/svg"
  xmlns:svg="http://www.w3.org/2000/svg"
  xmlns:xlink="http://www.w3.org/1999/xlink"
  xmlns:sodipodi="http://sodipodi.sourceforge.net/DTD/sodipodi-0.dtd"
  xmlns:inkscape="http://www.inkscape.org/namespaces/inkscape"
  width="181mm" height="181mm"
  viewBox="-2 -2 181 181"
  version="1.1" >

<sodipodi:namedview
  pagecolor="#ffffff" bordercolor="#d0a000"
  borderopacity="1"
  showgrid="false"
  inkscape:pageopacity="0.0" inkscape:pageshadow="2"
  inkscape:zoom="1.25"
  inkscape:cx="500" inkscape:cy="325"
  inkscape:document-units="mm"
  inkscape:window-width="1650" inkscape:window-height="1050"
  inkscape:window-x="70" inkscape:window-y="-20"
  inkscape:window-maximized="0" />

<defs>
<g id="alignment_hole" style="fill:none;stroke:#0000ff;stroke-width:0.01" >
  <path d="m0,1.62 1.62,-1.62 -1.62,-1.62 -1.62,1.62 Z" />
</g>

<g id="pn3_node" style="fill:none;stroke:#0000ff;stroke-width:0.01" >
  <title>PN3 node</title>
  <rect width="2.5" height="2.5" x="2.25" y="2.25" />
  <rect width="2.5" height="2.5" x="25.25" y="2.25" />
  <rect width="2.5" height="2.5" x="51.25" y="2.25" />
  <rect width="2.5" height="2.5" x="2.25" y="60.25" />
  <rect width="2.5" height="2.5" x="51.25" y="60.25" />
  <rect width="42" height="3" x="3" y="82.06" />
  <rect width="25" height="25" x="15" y="20" />
  <use xlink:href="#alignment_hole" transform="translate(0,0)" />
  <use xlink:href="#alignment_hole" transform="translate(56.64,0)" />
  <use xlink:href="#alignment_hole" transform="translate(0,85.06)" />
  <use xlink:href="#alignment_hole" transform="translate(56.64,85.06)" />
</g>

<g id="raspi0" style="fill:none;stroke:#000000;stroke-width:0.01" >
  <rect y="0" x="0" width="30" height="65" ry="3" />
  <circle cx="3.5" cy="3.5" r="1.3" />
  <circle cx="3.5" cy="61.5" r="1.3" />
  <circle cx="26.5" cy="3.5" r="1.3" />
  <circle cx="26.5" cy="61.5" r="1.3" />
  <rect x="1" y="7.1" width="5" height="50.8" />
</g>

<g id="raspi_hat" style="fill:none;stroke:#000000;stroke-width:0.01" >
  <rect x="0" y="0" width="56" height="65" ry="3" />
  <circle cx="3.5" cy="3.5" r="1.3" />
  <circle cx="3.5" cy="61.5" r="1.3" />
  <circle cx="52.5" cy="3.5" r="1.3" />
  <circle cx="52.5" cy="61.5" r="1.3" />
  <rect x="1" y="7.1" width="5" height="50.8" />
</g>

<g id="tbp1" style="fill:none;stroke:#000000;stroke-width:0.01" >
  <rect x="0" y="0" width="80" height="110" ry="3" />
  <circle cx="3.5" cy="3.5" r="1.3" />
  <circle cx="3.5" cy="106.5" r="1.3" />
  <circle cx="76.5" cy="3.5" r="1.3" />
  <circle cx="76.5" cy="106.5" r="1.3" />
  <use xlink:href="#pn3_node" transform="translate(11.68,12.47)" />
</g>
</defs>

<g inkscape:groupmode="layer" inkscape:label="raspi0_1" >
  <use xlink:href="#raspi0" transform="translate(0,110)" />
</g>

<g inkscape:groupmode="layer" inkscape:label="raspi_hat_1" >
  <use xlink:href="#raspi_hat" transform="translate(30,110)" />
</g>

<g inkscape:groupmode="layer" inkscape:label="raspi0_2" >
  <use xlink:href="#raspi0" transform="translate(86,110)" />
</g>

<g inkscape:groupmode="layer" inkscape:label="raspi_hat_2" >
  <use xlink:href="#raspi_hat" transform="translate(116,110)" />
</g>

<g inkscape:groupmode="layer" inkscape:label="tbp1_1" >
  <use xlink:href="#tbp1" transform="translate(6,0)" />
</g>

<g inkscape:groupmode="layer" inkscape:label="tbp1_2" transform="translate(86,0)" >
  <g style="fill:none;stroke:#000000;stroke-width:0.01" >
    <rect x="0" y="0" width="80" height="110" ry="3" />
    <circle cx="3.5" cy="3.5" r="1.3" />
    <circle cx="3.5" cy="106.5" r="1.3" />
    <circle cx="76.5" cy="3.5" r="1.3" />
    <circle cx="76.5" cy="106.5" r="1.3" />
    <rect x="11.68" y="12.47" width="56.64" height="85.06" />
  </g>
</g>

<g inkscape:groupmode="layer" inkscape:label="hershey" >
</g>

</svg>

