<?xml version="1.0" encoding="UTF-8" standalone="no"?>
<!-- http://ProjectAzide.github.io/ -->
<!-- Layout using ER-TFT035-6 LCD from http://www.buydisplay.com/ -->

<svg
   xmlns:dc="http://purl.org/dc/elements/1.1/"
   xmlns:cc="http://creativecommons.org/ns#"
   xmlns:rdf="http://www.w3.org/1999/02/22-rdf-syntax-ns#"
   xmlns:svg="http://www.w3.org/2000/svg"
   xmlns="http://www.w3.org/2000/svg"
   xmlns:sodipodi="http://sodipodi.sourceforge.net/DTD/sodipodi-0.dtd"
   xmlns:inkscape="http://www.inkscape.org/namespaces/inkscape"
   width="181mm"
   height="181mm"
   viewBox="-5 -5 181 181"
   id="svg1"
   version="1.1"
   inkscape:version="0.91 r13725"
   sodipodi:docname="pn3-tbp6-v1.svg">
  <defs id="defs2" />
  <sodipodi:namedview id="base"
     pagecolor="#ffffff"
     bordercolor="#d0a000"
     borderopacity="1"
     inkscape:pageopacity="0.0"
     inkscape:pageshadow="2"
     inkscape:zoom="1"
     inkscape:cx="600"
     inkscape:cy="250"
     inkscape:document-units="mm"
     showgrid="false"
     inkscape:window-width="1650"
     inkscape:window-height="1050"
     inkscape:window-x="70"
     inkscape:window-y="-20"
     inkscape:window-maximized="0" />
  <metadata id="metadata3">
    <rdf:RDF>
      <cc:Work
         rdf:about="">
        <dc:format>image/svg+xml</dc:format>
        <dc:type
           rdf:resource="http://purl.org/dc/dcmitype/StillImage" />
        <dc:title />
      </cc:Work>
    </rdf:RDF>
  </metadata>

<g inkscape:groupmode="layer" inkscape:label="text">
    <text xml:space="preserve" style="font-size:4px;font-family:OCRB;-inkscape-font-specification:'OCRB, Normal';text-anchor:start;fill:#000000;stroke-width:1px"
x="3" y="174" sodipodi:linespacing="100%"><tspan sodipodi:role="line"
x="3" y="174">pn3-tbp6-v1   2016-08-29a   N=N=N</tspan></text>

    <text xml:space="preserve" style="font-size:5px;font-family:'DejaVu Sans';-inkscape-font-specification:'DejaVu Sans, Normal';fill:#000000;stroke-width:1px;writing-mode:lr"
x="-165" y="174" sodipodi:linespacing="100%" transform="matrix(0,-1,1,0,0,0)"><tspan sodipodi:role="line"
x="-165" y="174">http://ProjectAzide.github.io/</tspan></text>

    <text xml:space="preserve" style="font-size:4px;font-family:OCRB;-inkscape-font-specification:'OCRB, Normal';text-anchor:middle;fill:#000000;stroke-width:1px"
x="28" y="-0.5" sodipodi:linespacing="100%"><tspan sodipodi:role="line"
x="28" y="-0.5">A</tspan></text>
    <text xml:space="preserve" style="font-size:4px;font-family:OCRB;-inkscape-font-specification:'OCRB, Normal';text-anchor:middle;fill:#000000;stroke-width:1px"
x="85" y="-0.5" sodipodi:linespacing="100%"><tspan sodipodi:role="line"
x="85" y="-0.5">B</tspan></text>
    <text xml:space="preserve" style="font-size:4px;font-family:OCRB;-inkscape-font-specification:'OCRB, Normal';text-anchor:middle;fill:#000000;stroke-width:1px"
x="142" y="-0.5" sodipodi:linespacing="100%"><tspan sodipodi:role="line"
x="142" y="-0.5">C</tspan></text>

    <text xml:space="preserve" style="font-size:4px;font-family:OCRB;-inkscape-font-specification:'OCRB, Normal';text-anchor:middle;fill:#000000;stroke-width:1px"
x="-2" y="43" sodipodi:linespacing="100%"><tspan sodipodi:role="line"
x="-2" y="43">1</tspan></text>
    <text xml:space="preserve" style="font-size:4px;font-family:OCRB;-inkscape-font-specification:'OCRB, Normal';text-anchor:middle;fill:#000000;stroke-width:1px"
x="-2" y="127" sodipodi:linespacing="100%"><tspan sodipodi:role="line"
x="-2" y="127">2</tspan></text>
</g>


<g inkscape:groupmode="layer" inkscape:label="node detail">
    <path style="fill:none;fill-rule:evenodd;stroke:#0000ff;stroke-width:0.01" d="m 169.92,1.62   1.62,-1.62 -1.62,-1.62 -1.62,1.62 z" />
    <path style="fill:none;fill-rule:evenodd;stroke:#0000ff;stroke-width:0.01" d="m 169.92,86.68  1.62,-1.62 -1.62,-1.62 -1.62,1.62 z" />
    <path style="fill:none;fill-rule:evenodd;stroke:#0000ff;stroke-width:0.01" d="m      0,171.74 1.62,-1.62 -1.62,-1.62 -1.62,1.62 z" />
    <path style="fill:none;fill-rule:evenodd;stroke:#0000ff;stroke-width:0.01" d="m  56.64,171.74 1.62,-1.62 -1.62,-1.62 -1.62,1.62 z" />
    <path style="fill:none;fill-rule:evenodd;stroke:#0000ff;stroke-width:0.01" d="m 113.28,171.74 1.62,-1.62 -1.62,-1.62 -1.62,1.62 z" />
    <path style="fill:none;fill-rule:evenodd;stroke:#0000ff;stroke-width:0.01" d="m 169.92,171.74 1.62,-1.62 -1.62,-1.62 -1.62,1.62 z" />

  <g>
    <rect style="fill:none;stroke:#0000ff;stroke-width:0.01" width="2.5" height="2.5" x="2.25" y="2.25" />
    <rect style="fill:none;stroke:#0000ff;stroke-width:0.01" width="2.5" height="2.5" x="25.25" y="2.25" />
    <rect style="fill:none;stroke:#0000ff;stroke-width:0.01" width="2.5" height="2.5" x="51.25" y="2.25" />
    <rect style="fill:none;stroke:#0000ff;stroke-width:0.01" width="2.5" height="2.5" x="2.25" y="60.25" />
    <rect style="fill:none;stroke:#0000ff;stroke-width:0.01" width="2.5" height="2.5" x="51.25" y="60.25" />
    <rect style="fill:none;stroke:#0000ff;stroke-width:0.01" x="3" y="82.06" width="40" height="3" id="rect92" />
    <path style="fill:none;fill-rule:evenodd;stroke:#0000ff;stroke-width:0.01" d="M 0,1.62 1.62,0 0,-1.62 -1.62,0 Z" id="path94" />
  </g>
  <g transform="translate(56.64,0)">
    <rect style="fill:none;stroke:#0000ff;stroke-width:0.01" width="2.5" height="2.5" x="2.25" y="2.25" />
    <rect style="fill:none;stroke:#0000ff;stroke-width:0.01" width="2.5" height="2.5" x="25.25" y="2.25" />
    <rect style="fill:none;stroke:#0000ff;stroke-width:0.01" width="2.5" height="2.5" x="51.25" y="2.25" />
    <rect style="fill:none;stroke:#0000ff;stroke-width:0.01" width="2.5" height="2.5" x="2.25" y="60.25" />
    <rect style="fill:none;stroke:#0000ff;stroke-width:0.01" width="2.5" height="2.5" x="51.25" y="60.25" />
    <rect style="fill:none;stroke:#0000ff;stroke-width:0.01" x="3" y="82.06" width="40" height="3" id="rect92" />
    <path style="fill:none;fill-rule:evenodd;stroke:#0000ff;stroke-width:0.01" d="M 0,1.62 1.62,0 0,-1.62 -1.62,0 Z" id="path94" />
  </g>
  <g transform="translate(113.28,0)">
    <rect style="fill:none;stroke:#0000ff;stroke-width:0.01" width="2.5" height="2.5" x="2.25" y="2.25" />
    <rect style="fill:none;stroke:#0000ff;stroke-width:0.01" width="2.5" height="2.5" x="25.25" y="2.25" />
    <rect style="fill:none;stroke:#0000ff;stroke-width:0.01" width="2.5" height="2.5" x="51.25" y="2.25" />
    <rect style="fill:none;stroke:#0000ff;stroke-width:0.01" width="2.5" height="2.5" x="2.25" y="60.25" />
    <rect style="fill:none;stroke:#0000ff;stroke-width:0.01" width="2.5" height="2.5" x="51.25" y="60.25" />
    <rect style="fill:none;stroke:#0000ff;stroke-width:0.01" x="3" y="82.06" width="40" height="3" id="rect92" />
    <path style="fill:none;fill-rule:evenodd;stroke:#0000ff;stroke-width:0.01" d="M 0,1.62 1.62,0 0,-1.62 -1.62,0 Z" id="path94" />
  </g>

  <g transform="translate(0,85.06)">
    <rect style="fill:none;stroke:#0000ff;stroke-width:0.01" width="2.5" height="2.5" x="2.25" y="2.25" />
    <rect style="fill:none;stroke:#0000ff;stroke-width:0.01" width="2.5" height="2.5" x="25.25" y="2.25" />
    <rect style="fill:none;stroke:#0000ff;stroke-width:0.01" width="2.5" height="2.5" x="51.25" y="2.25" />
    <rect style="fill:none;stroke:#0000ff;stroke-width:0.01" width="2.5" height="2.5" x="2.25" y="60.25" />
    <rect style="fill:none;stroke:#0000ff;stroke-width:0.01" width="2.5" height="2.5" x="51.25" y="60.25" />
    <rect style="fill:none;stroke:#0000ff;stroke-width:0.01" x="3" y="82.06" width="40" height="3" id="rect92" />
    <path style="fill:none;fill-rule:evenodd;stroke:#0000ff;stroke-width:0.01" d="M 0,1.62 1.62,0 0,-1.62 -1.62,0 Z" id="path94" />
  </g>
  <g transform="translate(56.64,85.06)">
    <rect style="fill:none;stroke:#0000ff;stroke-width:0.01" width="2.5" height="2.5" x="2.25" y="2.25" />
    <rect style="fill:none;stroke:#0000ff;stroke-width:0.01" width="2.5" height="2.5" x="25.25" y="2.25" />
    <rect style="fill:none;stroke:#0000ff;stroke-width:0.01" width="2.5" height="2.5" x="51.25" y="2.25" />
    <rect style="fill:none;stroke:#0000ff;stroke-width:0.01" width="2.5" height="2.5" x="2.25" y="60.25" />
    <rect style="fill:none;stroke:#0000ff;stroke-width:0.01" width="2.5" height="2.5" x="51.25" y="60.25" />
    <rect style="fill:none;stroke:#0000ff;stroke-width:0.01" x="3" y="82.06" width="40" height="3" id="rect92" />
    <path style="fill:none;fill-rule:evenodd;stroke:#0000ff;stroke-width:0.01" d="M 0,1.62 1.62,0 0,-1.62 -1.62,0 Z" id="path94" />
  </g>
  <g transform="translate(113.28,85.06)">
    <rect style="fill:none;stroke:#0000ff;stroke-width:0.01" width="2.5" height="2.5" x="2.25" y="2.25" />
    <rect style="fill:none;stroke:#0000ff;stroke-width:0.01" width="2.5" height="2.5" x="25.25" y="2.25" />
    <rect style="fill:none;stroke:#0000ff;stroke-width:0.01" width="2.5" height="2.5" x="51.25" y="2.25" />
    <rect style="fill:none;stroke:#0000ff;stroke-width:0.01" width="2.5" height="2.5" x="2.25" y="60.25" />
    <rect style="fill:none;stroke:#0000ff;stroke-width:0.01" width="2.5" height="2.5" x="51.25" y="60.25" />
    <rect style="fill:none;stroke:#0000ff;stroke-width:0.01" x="3" y="82.06" width="40" height="3" id="rect92" />
    <path style="fill:none;fill-rule:evenodd;stroke:#0000ff;stroke-width:0.01" d="M 0,1.62 1.62,0 0,-1.62 -1.62,0 Z" id="path94" />
  </g>
</g>

<g inkscape:groupmode="layer" inkscape:label="node outlines">
  <path style="fill:none;fill-rule:evenodd;stroke:#ff0000;stroke-width:0.01" d="m      0,0 0,170.12" />
  <path style="fill:none;fill-rule:evenodd;stroke:#ff0000;stroke-width:0.01" d="m  56.64,0 0,170.12" />
  <path style="fill:none;fill-rule:evenodd;stroke:#ff0000;stroke-width:0.01" d="m 113.28,0 0,170.12" />
  <path style="fill:none;fill-rule:evenodd;stroke:#ff0000;stroke-width:0.01" d="m 169.92,0 0,170.12" />

  <path style="fill:none;fill-rule:evenodd;stroke:#ff0000;stroke-width:0.01" d="m      0,0 169.92,0" />
  <path style="fill:none;fill-rule:evenodd;stroke:#ff0000;stroke-width:0.01" d="m  0,85.06 169.92,0" />
  <path style="fill:none;fill-rule:evenodd;stroke:#ff0000;stroke-width:0.01" d="m 0,170.12 169.92,0" />
</g>

<g inkscape:groupmode="layer" inkscape:label="tbp outline">
  <rect style="fill:none;stroke:#0000ff;stroke-width:0.01" x="-4.5" y="-4.5" width="180" height="180" />
</g>

</svg>

