<?xml version="1.0" encoding="UTF-8" standalone="no"?>
<!-- http://ProjectAzide.github.io/ -->

<!-- Layout using ER-TFT035-6 LCD from http://www.buydisplay.com/ -->

<svg
   xmlns:dc="http://purl.org/dc/elements/1.1/"
   xmlns:cc="http://creativecommons.org/ns#"
   xmlns:rdf="http://www.w3.org/1999/02/22-rdf-syntax-ns#"
   xmlns:svg="http://www.w3.org/2000/svg"
   xmlns="http://www.w3.org/2000/svg"
   xmlns:sodipodi="http://sodipodi.sourceforge.net/DTD/sodipodi-0.dtd"
   xmlns:inkscape="http://www.inkscape.org/namespaces/inkscape"
   width="181mm"
   height="181mm"
   viewBox="-5 -5 181 181"
   id="svg1"
   version="1.1"
   inkscape:version="0.91 r13725"
   sodipodi:docname="pn3-tbp6-v1a.svg">
  <defs
     id="defs2" />
  <sodipodi:namedview
     id="base"
     pagecolor="#ffffff"
     bordercolor="#d0a000"
     borderopacity="1"
     inkscape:pageopacity="0.0"
     inkscape:pageshadow="2"
     inkscape:zoom="1.32"
     inkscape:cx="500"
     inkscape:cy="320"
     inkscape:document-units="mm"
     showgrid="false"
     inkscape:window-width="1650"
     inkscape:window-height="1050"
     inkscape:window-x="70"
     inkscape:window-y="-20"
     inkscape:window-maximized="0"
     inkscape:current-layer="g6" />
  <metadata
     id="metadata3">
    <rdf:RDF>
      <cc:Work
         rdf:about="">
        <dc:format>image/svg+xml</dc:format>
        <dc:type
           rdf:resource="http://purl.org/dc/dcmitype/StillImage" />
        <dc:title></dc:title>
      </cc:Work>
    </rdf:RDF>
  </metadata>
  <g
     inkscape:groupmode="layer"
     inkscape:label="text"
     id="g6">
    <g
       style="font-size:4px;font-family:OCRB;-inkscape-font-specification:'OCRB, Normal';fill:none;stroke:#ff0000;stroke-width:0.01"
       id="text8">
      <path
         d="m 5.452,172.972 q 0,0.216 -0.056,0.396 -0.1,0.364 -0.38,0.548 -0.128,0.08 -0.292,0.12 -0.152,0.03 -0.284,0.03 -0.148,-0.01 -0.296,-0.08 -0.132,-0.06 -0.248,-0.152 l 0,0.7 q 0,0.08 -0.056,0.144 -0.064,0.06 -0.144,0.06 -0.084,0 -0.14,-0.06 -0.06,-0.07 -0.06,-0.144 l 0,-1.312 0,-0.56 0,-0.608 q 0,-0.08 0.06,-0.14 0.06,-0.06 0.14,-0.06 0.076,0 0.144,0.06 0.056,0.06 0.056,0.14 l 0,0.02 q 0.124,-0.1 0.248,-0.152 0.152,-0.07 0.296,-0.07 0.132,-0.01 0.288,0.03 0.16,0.04 0.284,0.112 0.192,0.124 0.3,0.316 0.14,0.248 0.14,0.668 z m -1.556,-0.268 0,0.472 0.044,0.09 q 0.096,0.16 0.188,0.244 0.08,0.08 0.176,0.116 0.084,0.04 0.16,0.04 0.084,0 0.168,-0.02 0.104,-0.02 0.168,-0.06 0.148,-0.1 0.212,-0.32 0.04,-0.136 0.04,-0.288 0,-0.316 -0.088,-0.476 -0.064,-0.108 -0.16,-0.164 -0.08,-0.05 -0.172,-0.07 -0.088,-0.02 -0.168,-0.02 -0.076,0 -0.16,0.04 -0.092,0.04 -0.18,0.116 -0.14,0.12 -0.228,0.3 z"
         id="path4292" />
      <path
         d="m 8.28663,173.852 q 0,0.08 -0.06,0.14 -0.06,0.06 -0.14001,0.06 -0.084,0 -0.144,-0.06 -0.056,-0.06 -0.056,-0.14 l 0,-0.996 q 0,-0.268 -0.044,-0.384 -0.048,-0.124 -0.13999,-0.172 -0.048,-0.03 -0.16401,-0.04 l -0.084,-0.01 q -0.036,0 -0.08,0.01 -0.1,0.01 -0.176,0.05 -0.08,0.04 -0.172,0.128 -0.15599,0.16 -0.22799,0.348 l 0,1.068 q 0,0.08 -0.06,0.14 -0.056,0.06 -0.14,0.06 -0.084,0 -0.14,-0.06 -0.06,-0.06 -0.06,-0.14 l 0,-1.108 0,-0.688 q 0,-0.09 0.06,-0.14 0.06,-0.06 0.14,-0.06 0.08,0 0.14,0.06 0.06,0.05 0.06,0.14 l 0,0.05 q 0.11199,-0.104 0.22799,-0.16 0.12801,-0.06 0.28001,-0.08 0.10399,-0.02 0.14799,-0.02 0.052,0 0.148,0.02 0.18001,0.03 0.292,0.09 0.224,0.12 0.32,0.376 0.072,0.188 0.072,0.528 l 0,0.996 z"
         id="path4294" />
      <path
         d="m 11.1973,173.096 q -0.012,0.324 -0.2161,0.576 -0.264,0.308 -0.724,0.368 -0.1,0.01 -0.2079,0.01 -0.36405,0 -0.69605,-0.144 -0.024,-0 -0.064,-0.04 -0.056,-0.06 -0.056,-0.144 0,-0.08 0.056,-0.14 0.068,-0.06 0.144,-0.06 0.028,0 0.076,0.02 0.252,0.112 0.54005,0.112 0.076,0 0.1559,-0.01 0.304,-0.03 0.468,-0.224 0.116,-0.14 0.124,-0.34 0.012,-0.188 -0.088,-0.332 -0.144,-0.2 -0.5081,-0.26 -0.128,-0.02 -0.22395,-0.02 -0.076,0 -0.136,-0.06 -0.06,-0.05 -0.06,-0.14 0,-0.08 0.052,-0.136 l 0.004,-0 0.71995,-0.756 -1.11195,0 q -0.076,0 -0.144,-0.06 -0.056,-0.06 -0.056,-0.14 0,-0.08 0.056,-0.144 0.064,-0.06 0.144,-0.06 l 1.45195,0 q 0.076,0 0.1401,0.06 0.06,0.07 0.06,0.144 l 0,0.136 q 0,0.08 -0.056,0.136 l -0.644,0.676 q 0.4281,0.104 0.6401,0.396 0.1799,0.252 0.16,0.584 z"
         id="path4296" />
      <path
         d="m 12.9639,172.736 -0.64,0 q -0.08,0 -0.144,-0.06 -0.056,-0.06 -0.056,-0.144 l 0,-0.112 q 0,-0.08 0.056,-0.144 0.064,-0.06 0.144,-0.06 l 1.6,0 q 0.084,0 0.14,0.06 0.06,0.06 0.06,0.144 l 0,0.112 q 0,0.08 -0.06,0.144 -0.056,0.06 -0.14,0.06 l -0.64,0 -0.32,0 z"
         id="path4298" />
      <path
         d="m 16.7145,173.632 q 0.06,0.06 0.06,0.14 0,0.08 -0.06,0.14 -0.028,0.03 -0.056,0.04 -0.2,0.1 -0.412,0.1 -0.16,0 -0.304,-0.05 -0.108,-0.04 -0.176,-0.108 -0.124,-0.112 -0.176,-0.304 -0.028,-0.112 -0.028,-0.396 l 0,-0.34 0.01,-0.564 -0.3,0 q -0.084,0 -0.14,-0.06 -0.06,-0.06 -0.06,-0.14 0,-0.08 0.06,-0.14 0.056,-0.06 0.14,-0.06 l 0.308,0 0.01,-0.404 q 0,-0.09 0.056,-0.144 0.064,-0.06 0.144,-0.06 0.084,0 0.14,0.06 0.06,0.06 0.06,0.144 l -0.01,0.404 0.596,0 q 0.084,0 0.14,0.06 0.06,0.06 0.06,0.14 0,0.08 -0.06,0.14 -0.056,0.06 -0.14,0.06 l -0.604,0 -0.01,0.564 0,0.348 q 0,0.228 0.016,0.288 0.024,0.08 0.056,0.108 0.02,0.02 0.052,0.03 0.06,0.02 0.148,0.02 0.14,-0 0.252,-0.06 0.048,-0.02 0.088,-0.02 0.084,0 0.14,0.06 z"
         id="path4300" />
      <path
         d="m 19.9051,172.852 q 0,0.124 -0.012,0.252 -0.028,0.296 -0.124,0.484 -0.112,0.204 -0.296,0.328 -0.272,0.176 -0.588,0.144 -0.296,-0.03 -0.536,-0.224 l 0,0.02 q 0,0.08 -0.056,0.14 -0.06,0.06 -0.144,0.06 -0.088,0 -0.14,-0.06 -0.06,-0.06 -0.06,-0.14 l 0,-0.628 0,-0.572 0,-1.544 q 0,-0.08 0.06,-0.14 0.06,-0.06 0.14,-0.06 0.076,0 0.144,0.06 0.056,0.06 0.056,0.14 l 0,0.964 q 0.124,-0.1 0.248,-0.152 0.152,-0.07 0.296,-0.07 0.132,-0.01 0.288,0.03 0.164,0.04 0.284,0.116 0.188,0.116 0.3,0.308 0.132,0.232 0.14,0.552 z m -1.556,-0.152 0,0.488 q 0.072,0.184 0.228,0.316 0.164,0.144 0.348,0.16 0.168,0.02 0.328,-0.08 0.108,-0.08 0.16,-0.176 0.056,-0.104 0.08,-0.336 0.012,-0.108 0.012,-0.208 -0.01,-0.216 -0.088,-0.36 -0.068,-0.112 -0.16,-0.168 -0.08,-0.05 -0.172,-0.07 -0.088,-0.02 -0.168,-0.02 -0.076,0 -0.16,0.04 -0.092,0.04 -0.18,0.116 -0.136,0.116 -0.228,0.296 z"
         id="path4302" />
      <path
         d="m 22.7957,172.972 q 0,0.216 -0.056,0.396 -0.1,0.364 -0.3801,0.548 -0.1279,0.08 -0.2919,0.12 -0.152,0.03 -0.284,0.03 -0.148,-0.01 -0.296,-0.08 -0.132,-0.06 -0.248,-0.152 l 0,0.7 q 0,0.08 -0.056,0.144 -0.064,0.06 -0.144,0.06 -0.084,0 -0.14,-0.06 -0.06,-0.07 -0.06,-0.144 l 0,-1.312 0,-0.56 0,-0.608 q 0,-0.08 0.06,-0.14 0.06,-0.06 0.14,-0.06 0.076,0 0.144,0.06 0.056,0.06 0.056,0.14 l 0,0.02 q 0.124,-0.1 0.248,-0.152 0.152,-0.07 0.296,-0.07 0.132,-0.01 0.288,0.03 0.16,0.04 0.284,0.112 0.192,0.124 0.3,0.316 0.1399,0.248 0.1399,0.668 z m -1.5559,-0.268 0,0.472 0.044,0.09 q 0.096,0.16 0.188,0.244 0.08,0.08 0.176,0.116 0.084,0.04 0.16,0.04 0.084,0 0.168,-0.02 0.104,-0.02 0.168,-0.06 0.148,-0.1 0.212,-0.32 0.04,-0.136 0.04,-0.288 0,-0.316 -0.088,-0.476 -0.064,-0.108 -0.16,-0.164 -0.08,-0.05 -0.172,-0.07 -0.088,-0.02 -0.168,-0.02 -0.076,0 -0.16,0.04 -0.092,0.04 -0.18,0.116 -0.14,0.12 -0.228,0.3 z"
         id="path4304" />
      <path
         d="m 25.5704,172.536 q 0.116,0.22 0.116,0.548 0,0.328 -0.176,0.576 -0.132,0.184 -0.352,0.292 -0.204,0.1 -0.472,0.1 -0.272,0 -0.476,-0.1 -0.212,-0.104 -0.352,-0.292 -0.172,-0.248 -0.172,-0.568 l 0,-0 0,-0.09 q 0.01,-0.252 0.052,-0.42 0.06,-0.232 0.228,-0.512 0.208,-0.344 0.568,-0.76 l 0.304,-0.328 q 0.06,-0.06 0.144,-0.06 0.084,0 0.14,0.06 0.06,0.05 0.06,0.14 0,0.08 -0.052,0.136 l -0.296,0.316 q -0.236,0.272 -0.396,0.504 0.12,-0.02 0.248,-0.02 0.328,0 0.56,0.144 0.22,0.128 0.324,0.34 z m -1.484,0.548 q 0,0.204 0.1,0.344 0.064,0.1 0.196,0.164 0.132,0.06 0.304,0.06 0.172,0 0.304,-0.06 0.124,-0.06 0.196,-0.164 0.1,-0.148 0.1,-0.344 0,-0.228 -0.068,-0.364 -0.056,-0.104 -0.176,-0.184 -0.152,-0.08 -0.356,-0.08 -0.244,0 -0.384,0.108 -0.144,0.108 -0.2,0.34 -0.016,0.08 -0.016,0.184 z"
         id="path4306" />
      <path
         d="m 27.417,172.736 -0.64,0 q -0.08,0 -0.144,-0.06 -0.056,-0.06 -0.056,-0.144 l 0,-0.112 q 0,-0.08 0.056,-0.144 0.064,-0.06 0.144,-0.06 l 1.6,0 q 0.084,0 0.14,0.06 0.06,0.06 0.06,0.144 l 0,0.112 q 0,0.08 -0.06,0.144 -0.056,0.06 -0.14,0.06 l -0.64,0 -0.32,0 z"
         id="path4308" />
      <path
         d="m 31.4556,172.056 q 0,0.04 -0.012,0.07 l -0.636,1.788 -0,0 q -0.012,0.04 -0.048,0.07 -0.052,0.06 -0.14,0.06 l -0.296,0 q -0.084,0 -0.144,-0.06 -0.028,-0.03 -0.04,-0.06 -0.01,-0 -0.01,-0.02 l -0.636,-1.784 q -0.012,-0.03 -0.012,-0.07 0,-0.08 0.056,-0.14 0.068,-0.06 0.144,-0.06 0.08,0 0.14,0.06 0.028,0.03 0.048,0.08 l 0.592,1.66 0.016,0 0.592,-1.66 q 0.012,-0.05 0.048,-0.08 0.06,-0.06 0.14,-0.06 0.08,0 0.14,0.06 0.06,0.05 0.06,0.14 z"
         id="path4310" />
      <path
         d="m 33.7302,173.84 q 0,0.08 -0.06,0.14 -0.052,0.06 -0.14,0.06 -0.084,0 -0.1441,-0.06 -0.056,-0.06 -0.056,-0.14 l 0,-2.392 -0.516,0.44 q -0.052,0.05 -0.132,0.05 -0.084,0 -0.14,-0.06 -0.06,-0.07 -0.06,-0.144 0,-0.09 0.072,-0.152 l 0.72,-0.616 q 0.016,-0.02 0.048,-0.03 0.032,-0.02 0.08,-0.02 l 0.128,0 q 0.088,0 0.14,0.06 0.06,0.06 0.06,0.14 l 0,2.72 z"
         id="path4312" />
      <path
         d="m 37.1009,173.852 q 0,0.08 -0.06,0.14 -0.052,0.06 -0.14,0.06 -0.084,0 -0.144,-0.06 -0.056,-0.06 -0.056,-0.14 l 0,-0.03 q -0.036,0.03 -0.116,0.08 -0.272,0.18 -0.58,0.16 -0.192,-0.02 -0.356,-0.112 -0.164,-0.1 -0.26,-0.264 -0.084,-0.148 -0.084,-0.304 0,-0.176 0.084,-0.328 0.104,-0.184 0.316,-0.288 0.184,-0.09 0.532,-0.112 l 0.464,-0.01 q -0.024,-0.236 -0.12,-0.324 -0.1,-0.1 -0.332,-0.1 -0.248,0 -0.436,0.152 -0.052,0.04 -0.124,0.04 -0.08,0 -0.144,-0.06 -0.056,-0.06 -0.056,-0.144 0,-0.08 0.056,-0.14 0,-0 0.01,-0 0.01,-0 0.012,-0 0.304,-0.236 0.684,-0.236 0.388,0 0.604,0.2 0.216,0.204 0.244,0.588 0.012,0.1 0,0.216 l 0,0.02 0,0 0,0 0,0.4 0,0.596 z m -0.4,-0.652 0,-0.156 q -0.224,0 -0.444,0.01 -0.26,0.02 -0.38,0.07 -0.096,0.05 -0.14,0.124 -0.032,0.05 -0.032,0.132 0,0.05 0.032,0.104 0.092,0.164 0.296,0.176 0.176,0.01 0.336,-0.1 0.084,-0.06 0.184,-0.168 0.072,-0.08 0.148,-0.2 z"
         id="path4314" />
      <path
         d="m 38.6515,173.84 0,-0.156 0,-0.08 0,-0.156 q 0,-0.08 0.06,-0.14 0.056,-0.06 0.14,-0.06 l 0.572,0 q 0.084,0 0.144,0.06 0.056,0.06 0.056,0.14 l 0,0.388 q 0,0.08 -0.056,0.14 -0.06,0.06 -0.144,0.06 l -0.572,0 q -0.084,0 -0.14,-0.06 -0.06,-0.06 -0.06,-0.14 z"
         id="path4316" />
      <path
         d="m 42.8941,173.404 q 0,0.108 -0.036,0.208 -0.072,0.2 -0.268,0.32 -0.128,0.07 -0.296,0.104 -0.112,0.02 -0.26,0.03 -0.148,0 -0.26,-0.02 -0.164,-0.02 -0.296,-0.09 -0.16,-0.08 -0.26,-0.244 -0.028,-0.04 -0.028,-0.104 0,-0.08 0.056,-0.14 0.06,-0.06 0.144,-0.06 0.084,0 0.14,0.06 0.012,0 0.028,0.03 0.044,0.07 0.108,0.104 0.064,0.03 0.164,0.04 0.064,0.01 0.196,0.01 0.136,-0 0.196,-0.02 0.112,-0.02 0.16,-0.06 0.068,-0.04 0.1,-0.112 0.012,-0.04 0.012,-0.07 0,-0.07 -0.04,-0.112 -0.016,-0.02 -0.056,-0.04 -0.072,-0.04 -0.192,-0.06 l -0.228,-0.06 -0.236,-0.06 q -0.192,-0.06 -0.292,-0.136 -0.104,-0.08 -0.168,-0.204 -0.068,-0.128 -0.068,-0.276 0,-0.196 0.104,-0.34 0.056,-0.08 0.14,-0.14 0.196,-0.14 0.572,-0.14 l 0.124,0 q 0.232,0.01 0.416,0.124 0.184,0.112 0.236,0.308 0.01,0.04 0.01,0.05 0,0.08 -0.06,0.144 -0.064,0.06 -0.14,0.06 -0.08,0 -0.144,-0.06 -0.04,-0.05 -0.052,-0.09 -0.028,-0.12 -0.284,-0.136 l -0.104,0 q -0.248,0 -0.34,0.06 -0.02,0.01 -0.044,0.04 -0.032,0.04 -0.032,0.112 0,0.04 0.02,0.09 0.024,0.04 0.06,0.07 0.048,0.04 0.164,0.07 l 0.224,0.06 0.228,0.06 q 0.192,0.06 0.264,0.1 0.112,0.06 0.172,0.12 0.148,0.152 0.148,0.388 z"
         id="path4318" />
      <path
         d="m 45.9087,172.056 q 0,0.04 -0.012,0.07 l -0.6359,1.788 -0,0 q -0.012,0.04 -0.048,0.07 -0.052,0.06 -0.14,0.06 l -0.296,0 q -0.084,0 -0.1441,-0.06 -0.028,-0.03 -0.04,-0.06 -0.01,-0 -0.01,-0.02 l -0.636,-1.784 q -0.012,-0.03 -0.012,-0.07 0,-0.08 0.056,-0.14 0.068,-0.06 0.144,-0.06 0.08,0 0.14,0.06 0.028,0.03 0.048,0.08 l 0.5921,1.66 0.016,0 0.592,-1.66 q 0.012,-0.05 0.048,-0.08 0.06,-0.06 0.14,-0.06 0.08,0 0.14,0.06 0.06,0.05 0.06,0.14 z"
         id="path4320" />
      <path
         d="m 48.7074,172.696 0,0.424 0,0.64 q 0.048,0.284 -0.076,0.552 -0.092,0.204 -0.256,0.312 -0.116,0.08 -0.3,0.108 -0.156,0.03 -0.264,0.03 -0.124,0 -0.248,-0.01 -0.188,-0.02 -0.292,-0.06 -0.2,-0.09 -0.284,-0.284 -0.016,-0.03 -0.016,-0.08 0,-0.08 0.056,-0.14 0.06,-0.06 0.144,-0.06 0.084,0 0.14,0.06 0.024,0.02 0.044,0.06 0.024,0.06 0.08,0.08 0.036,0.02 0.164,0.03 0.104,0.01 0.208,0.01 0.088,0 0.196,-0.02 0.1,-0.02 0.156,-0.05 0.064,-0.04 0.108,-0.14 0.068,-0.152 0.048,-0.324 -0,-0 -0.01,-0.01 0,-0.01 0,-0.02 l 0,-0.02 0,-0.08 q -0.08,0.08 -0.176,0.128 -0.132,0.06 -0.288,0.09 -0.072,0.01 -0.148,0.01 -0.076,0 -0.148,-0.01 -0.18,-0.04 -0.3,-0.108 -0.184,-0.112 -0.304,-0.356 -0.12,-0.26 -0.12,-0.524 0,-0.384 0.124,-0.616 0.116,-0.212 0.3,-0.328 0.252,-0.156 0.58,-0.132 0.164,0.01 0.296,0.08 0.096,0.04 0.184,0.12 0.01,-0.08 0.06,-0.128 0.06,-0.06 0.14,-0.06 0.08,0 0.14,0.06 0.06,0.05 0.06,0.14 l 0,0.64 z m -0.4,0.368 0,-0.332 q -0.064,-0.164 -0.188,-0.316 -0.084,-0.09 -0.164,-0.132 -0.072,-0.03 -0.16,-0.04 -0.192,-0.01 -0.336,0.07 -0.1,0.06 -0.156,0.176 -0.08,0.148 -0.08,0.432 0,0.18 0.08,0.348 0.076,0.144 0.156,0.192 0.064,0.04 0.156,0.05 0.028,0 0.08,0 0.028,0 0.084,-0 0.108,-0.02 0.168,-0.05 0.076,-0.04 0.168,-0.148 0.1,-0.112 0.192,-0.256 z"
         id="path4322" />
      <path
         d="m 60.2339,173.652 q 0.06,0.06 0.06,0.144 0,0.08 -0.06,0.14 -0.06,0.06 -0.14,0.06 l -1.408,0 q -0.08,0 -0.14,-0.06 -0.06,-0.06 -0.06,-0.14 0,-0.388 0.044,-0.536 0.072,-0.248 0.26,-0.44 0.192,-0.192 0.476,-0.376 0.392,-0.252 0.496,-0.392 0.108,-0.14 0.108,-0.292 0,-0.108 -0.04,-0.188 -0.076,-0.176 -0.288,-0.236 -0.08,-0.03 -0.168,-0.03 -0.1,0 -0.204,0.01 -0.228,0.02 -0.412,0.16 -0.064,0.04 -0.116,0.04 -0.08,0 -0.14,-0.06 -0.06,-0.06 -0.06,-0.14 0,-0.08 0.06,-0.144 0.016,-0.02 0.024,-0.02 0.268,-0.188 0.592,-0.232 0.124,-0.01 0.256,-0.01 0.136,0 0.288,0.04 0.384,0.12 0.532,0.448 0.076,0.164 0.076,0.36 0,0.28 -0.188,0.532 -0.072,0.1 -0.184,0.192 -0.112,0.1 -0.192,0.148 -0.076,0.05 -0.224,0.148 -0.156,0.1 -0.244,0.164 -0.088,0.06 -0.188,0.18 -0.1,0.116 -0.136,0.244 -0.024,0.08 -0.024,0.228 l 1.204,0 q 0.084,0 0.14,0.06 z"
         id="path4324" />
      <path
         d="m 63.2645,172.628 q 0,0.252 -0.036,0.472 -0.036,0.22 -0.116,0.424 -0.08,0.2 -0.228,0.336 -0.148,0.136 -0.352,0.176 -0.048,0.01 -0.096,0.01 -0.012,0 -0.032,0 l -0.048,0 -0.092,0 q -0.192,0 -0.268,-0.02 -0.268,-0.05 -0.44,-0.276 -0.172,-0.228 -0.232,-0.508 -0.06,-0.28 -0.06,-0.624 0,-0.328 0.024,-0.568 0.024,-0.24 0.092,-0.5 0.068,-0.264 0.224,-0.424 0.156,-0.164 0.392,-0.212 0.076,-0.02 0.268,-0.02 0.188,0 0.268,0.02 0.236,0.05 0.392,0.212 0.156,0.16 0.224,0.424 0.068,0.26 0.092,0.5 0.024,0.24 0.024,0.568 z m -1,1.024 0.088,0 q 0.068,0 0.1,-0 0.14,-0.03 0.228,-0.124 0.088,-0.1 0.124,-0.256 0.04,-0.16 0.048,-0.292 0.012,-0.136 0.012,-0.344 0,-0.16 -0,-0.244 0,-0.09 -0.01,-0.24 -0,-0.152 -0.02,-0.24 -0.016,-0.09 -0.048,-0.208 -0.028,-0.116 -0.072,-0.184 -0.04,-0.07 -0.108,-0.124 -0.068,-0.06 -0.152,-0.07 -0.036,-0 -0.188,-0 -0.152,0 -0.192,0 -0.1,0.02 -0.172,0.08 -0.072,0.06 -0.116,0.176 -0.044,0.112 -0.072,0.216 -0.024,0.1 -0.036,0.276 -0.01,0.172 -0.012,0.272 0,0.1 0,0.288 0,0.164 0,0.272 0,0.104 0.024,0.248 0.024,0.144 0.064,0.236 0.044,0.09 0.124,0.164 0.08,0.07 0.192,0.1 0.04,0 0.192,0 z"
         id="path4326" />
      <path
         d="m 65.5271,173.84 q 0,0.08 -0.06,0.14 -0.052,0.06 -0.14,0.06 -0.084,0 -0.144,-0.06 -0.056,-0.06 -0.056,-0.14 l 0,-2.392 -0.516,0.44 q -0.052,0.05 -0.132,0.05 -0.084,0 -0.14,-0.06 -0.06,-0.07 -0.06,-0.144 0,-0.09 0.072,-0.152 l 0.72,-0.616 q 0.016,-0.02 0.048,-0.03 0.032,-0.02 0.08,-0.02 l 0.128,0 q 0.088,0 0.14,0.06 0.06,0.06 0.06,0.14 l 0,2.72 z"
         id="path4328" />
      <path
         d="m 68.9298,172.536 q 0.1159,0.22 0.1159,0.548 0,0.328 -0.176,0.576 -0.1319,0.184 -0.3519,0.292 -0.204,0.1 -0.4721,0.1 -0.2719,0 -0.4759,-0.1 -0.2121,-0.104 -0.3521,-0.292 -0.172,-0.248 -0.172,-0.568 l 0,-0 0,-0.09 q 0.01,-0.252 0.052,-0.42 0.06,-0.232 0.228,-0.512 0.2079,-0.344 0.5679,-0.76 l 0.3041,-0.328 q 0.06,-0.06 0.144,-0.06 0.084,0 0.14,0.06 0.06,0.05 0.06,0.14 0,0.08 -0.052,0.136 l -0.2961,0.316 q -0.2359,0.272 -0.396,0.504 0.12,-0.02 0.248,-0.02 0.3281,0 0.5601,0.144 0.22,0.128 0.324,0.34 z m -1.484,0.548 q 0,0.204 0.1,0.344 0.064,0.1 0.196,0.164 0.1321,0.06 0.304,0.06 0.172,0 0.3041,-0.06 0.1239,-0.06 0.1959,-0.164 0.1001,-0.148 0.1001,-0.344 0,-0.228 -0.068,-0.364 -0.056,-0.104 -0.1759,-0.184 -0.152,-0.08 -0.3561,-0.08 -0.2439,0 -0.384,0.108 -0.1439,0.108 -0.2,0.34 -0.016,0.08 -0.016,0.184 z"
         id="path4330" />
      <path
         d="m 70.7764,172.736 -0.64,0 q -0.08,0 -0.144,-0.06 -0.056,-0.06 -0.056,-0.144 l 0,-0.112 q 0,-0.08 0.056,-0.144 0.064,-0.06 0.144,-0.06 l 1.6,0 q 0.084,0 0.14,0.06 0.06,0.06 0.06,0.144 l 0,0.112 q 0,0.08 -0.06,0.144 -0.056,0.06 -0.14,0.06 l -0.64,0 -0.32,0 z"
         id="path4332" />
      <path
         d="m 74.827,172.628 q 0,0.252 -0.036,0.472 -0.036,0.22 -0.116,0.424 -0.08,0.2 -0.228,0.336 -0.148,0.136 -0.352,0.176 -0.048,0.01 -0.096,0.01 -0.012,0 -0.032,0 l -0.048,0 -0.092,0 q -0.192,0 -0.268,-0.02 -0.268,-0.05 -0.44,-0.276 -0.172,-0.228 -0.232,-0.508 -0.06,-0.28 -0.06,-0.624 0,-0.328 0.024,-0.568 0.024,-0.24 0.092,-0.5 0.068,-0.264 0.224,-0.424 0.156,-0.164 0.392,-0.212 0.076,-0.02 0.268,-0.02 0.188,0 0.268,0.02 0.236,0.05 0.392,0.212 0.156,0.16 0.224,0.424 0.068,0.26 0.092,0.5 0.024,0.24 0.024,0.568 z m -1,1.024 0.088,0 q 0.068,0 0.1,-0 0.14,-0.03 0.228,-0.124 0.088,-0.1 0.124,-0.256 0.04,-0.16 0.048,-0.292 0.012,-0.136 0.012,-0.344 0,-0.16 -0,-0.244 0,-0.09 -0.01,-0.24 -0,-0.152 -0.02,-0.24 -0.016,-0.09 -0.048,-0.208 -0.028,-0.116 -0.072,-0.184 -0.04,-0.07 -0.108,-0.124 -0.068,-0.06 -0.152,-0.07 -0.036,-0 -0.188,-0 -0.152,0 -0.192,0 -0.1,0.02 -0.172,0.08 -0.072,0.06 -0.116,0.176 -0.044,0.112 -0.072,0.216 -0.024,0.1 -0.036,0.276 -0.01,0.172 -0.012,0.272 0,0.1 0,0.288 0,0.164 0,0.272 0,0.104 0.024,0.248 0.024,0.144 0.064,0.236 0.044,0.09 0.124,0.164 0.08,0.07 0.192,0.1 0.04,0 0.192,0 z"
         id="path4334" />
      <path
         d="m 77.7176,173.2 q 0,0.308 -0.212,0.54 -0.208,0.232 -0.524,0.292 -0.12,0.02 -0.22,0.02 -0.016,0 -0.044,0 -0.148,0 -0.272,-0.03 -0.312,-0.07 -0.52,-0.296 -0.208,-0.232 -0.208,-0.532 0,-0.416 0.412,-0.772 0.032,-0.02 0.168,-0.124 -0.184,-0.108 -0.288,-0.24 -0.156,-0.212 -0.156,-0.464 0,-0.292 0.26,-0.5 0.252,-0.192 0.604,-0.192 0.352,0 0.604,0.192 0.26,0.208 0.26,0.5 0,0.252 -0.156,0.464 -0.096,0.124 -0.288,0.24 0.112,0.08 0.164,0.124 0.416,0.352 0.416,0.772 z m -1,-1.124 q 0.32,-0.16 0.388,-0.252 0.076,-0.1 0.076,-0.224 0,-0.104 -0.108,-0.184 -0.136,-0.108 -0.356,-0.108 -0.22,0 -0.356,0.108 -0.108,0.08 -0.108,0.184 0,0.124 0.076,0.224 0.068,0.09 0.388,0.252 z m 0,0.444 q -0.184,0.1 -0.328,0.216 -0.272,0.228 -0.272,0.464 0,0.16 0.116,0.28 0.12,0.12 0.296,0.16 0.104,0.02 0.152,0.02 0.012,-0 0.036,-0 0.108,0 0.192,-0.02 0.172,-0.03 0.288,-0.152 0.12,-0.12 0.12,-0.284 0,-0.236 -0.272,-0.464 -0.144,-0.12 -0.328,-0.216 z"
         id="path4336" />
      <path
         d="m 79.4483,172.736 -0.64,0 q -0.08,0 -0.1441,-0.06 -0.056,-0.06 -0.056,-0.144 l 0,-0.112 q 0,-0.08 0.056,-0.144 0.064,-0.06 0.1441,-0.06 l 1.5999,0 q 0.084,0 0.14,0.06 0.06,0.06 0.06,0.144 l 0,0.112 q 0,0.08 -0.06,0.144 -0.056,0.06 -0.14,0.06 l -0.64,0 -0.3199,0 z"
         id="path4338" />
      <path
         d="m 83.3589,173.652 q 0.06,0.06 0.06,0.144 0,0.08 -0.06,0.14 -0.06,0.06 -0.14,0.06 l -1.408,0 q -0.08,0 -0.14,-0.06 -0.06,-0.06 -0.06,-0.14 0,-0.388 0.044,-0.536 0.072,-0.248 0.26,-0.44 0.192,-0.192 0.476,-0.376 0.392,-0.252 0.496,-0.392 0.108,-0.14 0.108,-0.292 0,-0.108 -0.04,-0.188 -0.076,-0.176 -0.288,-0.236 -0.08,-0.03 -0.168,-0.03 -0.1,0 -0.204,0.01 -0.228,0.02 -0.412,0.16 -0.064,0.04 -0.116,0.04 -0.08,0 -0.14,-0.06 -0.06,-0.06 -0.06,-0.14 0,-0.08 0.06,-0.144 0.016,-0.02 0.024,-0.02 0.268,-0.188 0.592,-0.232 0.124,-0.01 0.256,-0.01 0.136,0 0.288,0.04 0.384,0.12 0.532,0.448 0.076,0.164 0.076,0.36 0,0.28 -0.188,0.532 -0.072,0.1 -0.184,0.192 -0.112,0.1 -0.192,0.148 -0.076,0.05 -0.224,0.148 -0.156,0.1 -0.244,0.164 -0.088,0.06 -0.188,0.18 -0.1,0.116 -0.136,0.244 -0.024,0.08 -0.024,0.228 l 1.204,0 q 0.084,0 0.14,0.06 z"
         id="path4340" />
      <path
         d="m 85.9895,171.944 q 0,-0.224 -0.076,-0.36 -0.076,-0.132 -0.22,-0.204 -0.14,-0.07 -0.304,-0.07 -0.252,0 -0.428,0.188 -0.172,0.188 -0.172,0.448 0,0.164 0.076,0.3 0.076,0.136 0.212,0.204 0.12,0.06 0.312,0.06 0.34,0 0.472,-0.132 0.064,-0.06 0.088,-0.144 0.04,-0.152 0.04,-0.288 z m -0.356,0.948 q -0.108,0.02 -0.244,0.02 -0.292,0 -0.488,-0.1 -0.24,-0.12 -0.376,-0.352 -0.136,-0.236 -0.136,-0.512 0,-0.424 0.292,-0.728 0.292,-0.308 0.708,-0.308 0.272,0 0.508,0.128 0.236,0.124 0.364,0.352 0.128,0.232 0.128,0.556 0,0.2 -0.044,0.352 -0.076,0.308 -0.28,0.664 -0.352,0.592 -0.84,1.028 -0.06,0.05 -0.132,0.05 -0.084,0 -0.144,-0.06 -0.056,-0.06 -0.056,-0.14 0,-0.09 0.064,-0.148 0.396,-0.36 0.676,-0.8 z"
         id="path4342" />
      <path
         d="m 89.1321,173.852 q 0,0.08 -0.06,0.14 -0.052,0.06 -0.14,0.06 -0.084,0 -0.144,-0.06 -0.056,-0.06 -0.056,-0.14 l 0,-0.03 q -0.036,0.03 -0.116,0.08 -0.272,0.18 -0.58,0.16 -0.192,-0.02 -0.356,-0.112 -0.164,-0.1 -0.26,-0.264 -0.084,-0.148 -0.084,-0.304 0,-0.176 0.084,-0.328 0.104,-0.184 0.316,-0.288 0.184,-0.09 0.532,-0.112 l 0.464,-0.01 q -0.024,-0.236 -0.12,-0.324 -0.1,-0.1 -0.332,-0.1 -0.248,0 -0.436,0.152 -0.052,0.04 -0.124,0.04 -0.08,0 -0.144,-0.06 -0.056,-0.06 -0.056,-0.144 0,-0.08 0.056,-0.14 0,-0 0.01,-0 0.01,-0 0.012,-0 0.304,-0.236 0.684,-0.236 0.388,0 0.604,0.2 0.216,0.204 0.244,0.588 0.012,0.1 0,0.216 l 0,0.02 0,0 0,0 0,0.4 0,0.596 z m -0.4,-0.652 0,-0.156 q -0.224,0 -0.444,0.01 -0.26,0.02 -0.38,0.07 -0.096,0.05 -0.14,0.124 -0.032,0.05 -0.032,0.132 0,0.05 0.032,0.104 0.092,0.164 0.296,0.176 0.176,0.01 0.336,-0.1 0.084,-0.06 0.184,-0.168 0.072,-0.08 0.148,-0.2 z"
         id="path4344" />
      <path
         d="m 100.387,173.276 0,-1.928 q 0,-0.08 0.06,-0.14 0.07,-0.06 0.144,-0.06 0.07,0 0.14,0.06 0.06,0.06 0.06,0.14 l 0,2.492 q 0,0.08 -0.06,0.14 -0.06,0.06 -0.14,0.06 l -0.152,0 q -0.08,0 -0.14,-0.06 -0.02,-0.02 -0.04,-0.05 l -0.9564,-2.004 0,1.916 q 0,0.09 -0.06,0.14 -0.056,0.06 -0.14,0.06 -0.084,0 -0.14,-0.06 -0.06,-0.05 -0.06,-0.14 l 0,-2.492 q 0,-0.08 0.06,-0.14 0.06,-0.06 0.14,-0.06 l 0.148,0 q 0.076,0 0.144,0.06 0.028,0.03 0.048,0.08 l 0.9484,1.992 z"
         id="path4346" />
      <path
         d="m 103.733,172.936 q 0,0.08 -0.06,0.144 -0.06,0.06 -0.14,0.06 l -1.6,0 q -0.08,0 -0.144,-0.06 -0.06,-0.06 -0.06,-0.144 0,-0.08 0.06,-0.14 0.07,-0.06 0.144,-0.06 l 1.6,0 q 0.08,0 0.14,0.06 0.06,0.05 0.06,0.14 z m 0,-0.912 q 0,0.09 -0.06,0.14 -0.06,0.06 -0.14,0.06 l -1.6,0 q -0.08,0 -0.144,-0.06 -0.06,-0.06 -0.06,-0.14 0,-0.08 0.06,-0.144 0.06,-0.06 0.144,-0.06 l 1.6,0 q 0.08,0 0.14,0.06 0.06,0.06 0.06,0.144 z"
         id="path4348" />
      <path
         d="m 106.168,173.276 0,-1.928 q 0,-0.08 0.06,-0.14 0.07,-0.06 0.144,-0.06 0.07,0 0.14,0.06 0.06,0.06 0.06,0.14 l 0,2.492 q 0,0.08 -0.06,0.14 -0.06,0.06 -0.14,0.06 l -0.152,0 q -0.08,0 -0.14,-0.06 -0.02,-0.02 -0.04,-0.05 l -0.956,-2.004 0,1.916 q 0,0.09 -0.06,0.14 -0.06,0.06 -0.14,0.06 -0.08,0 -0.14,-0.06 -0.06,-0.05 -0.06,-0.14 l 0,-2.492 q 0,-0.08 0.06,-0.14 0.06,-0.06 0.14,-0.06 l 0.148,0 q 0.08,0 0.144,0.06 0.03,0.03 0.05,0.08 l 0.948,1.992 z"
         id="path4350" />
      <path
         d="m 109.515,172.936 q 0,0.08 -0.06,0.144 -0.05,0.06 -0.14,0.06 l -1.599,0 q -0.08,0 -0.145,-0.06 -0.05,-0.06 -0.05,-0.144 0,-0.08 0.05,-0.14 0.07,-0.06 0.145,-0.06 l 1.599,0 q 0.08,0 0.14,0.06 0.06,0.05 0.06,0.14 z m 0,-0.912 q 0,0.09 -0.06,0.14 -0.05,0.06 -0.14,0.06 l -1.599,0 q -0.08,0 -0.145,-0.06 -0.05,-0.06 -0.05,-0.14 0,-0.08 0.05,-0.144 0.07,-0.06 0.145,-0.06 l 1.599,0 q 0.09,0 0.14,0.06 0.06,0.06 0.06,0.144 z"
         id="path4352" />
      <path
         d="m 111.949,173.276 0,-1.928 q 0,-0.08 0.06,-0.14 0.07,-0.06 0.144,-0.06 0.07,0 0.14,0.06 0.06,0.06 0.06,0.14 l 0,2.492 q 0,0.08 -0.06,0.14 -0.06,0.06 -0.14,0.06 l -0.152,0 q -0.08,0 -0.14,-0.06 -0.02,-0.02 -0.04,-0.05 l -0.956,-2.004 0,1.916 q 0,0.09 -0.06,0.14 -0.06,0.06 -0.14,0.06 -0.08,0 -0.14,-0.06 -0.06,-0.05 -0.06,-0.14 l 0,-2.492 q 0,-0.08 0.06,-0.14 0.06,-0.06 0.14,-0.06 l 0.148,0 q 0.08,0 0.144,0.06 0.03,0.03 0.05,0.08 l 0.948,1.992 z"
         id="path4354" />
    </g>
    <g
       transform="matrix(0,-1,1,0,0,0)"
       style="font-size:5px;font-family:'DejaVu Sans';-inkscape-font-specification:'DejaVu Sans, Normal';fill:none;stroke:#ff0000;stroke-width:0.01"
       id="text12">
      <path
         d="m -162.256,172.35 0,1.65 -0.449,0 0,-1.636 q 0,-0.388 -0.151,-0.581 -0.152,-0.193 -0.455,-0.193 -0.363,0 -0.573,0.232 -0.21,0.232 -0.21,0.633 l 0,1.545 -0.452,0 0,-3.799 0.452,0 0,1.489 q 0.161,-0.246 0.378,-0.368 0.22,-0.122 0.506,-0.122 0.471,0 0.712,0.293 0.242,0.29 0.242,0.857 z"
         id="path4357" />
      <path
         d="m -160.911,170.489 0,0.777 0.926,0 0,0.349 -0.926,0 0,1.484 q 0,0.335 0.09,0.43 0.09,0.09 0.373,0.09 l 0.462,0 0,0.376 -0.462,0 q -0.52,0 -0.718,-0.193 -0.197,-0.195 -0.197,-0.708 l 0,-1.484 -0.33,0 0,-0.349 0.33,0 0,-0.777 0.451,0 z"
         id="path4359" />
      <path
         d="m -158.948,170.489 0,0.777 0.926,0 0,0.349 -0.926,0 0,1.484 q 0,0.335 0.09,0.43 0.09,0.09 0.373,0.09 l 0.462,0 0,0.376 -0.462,0 q -0.52,0 -0.718,-0.193 -0.197,-0.195 -0.197,-0.708 l 0,-1.484 -0.33,0 0,-0.349 0.33,0 0,-0.777 0.451,0 z"
         id="path4361" />
      <path
         d="m -156.995,173.59 0,1.45 -0.451,0 0,-3.774 0.451,0 0,0.415 q 0.142,-0.244 0.357,-0.362 0.217,-0.119 0.517,-0.119 0.498,0 0.809,0.395 0.312,0.396 0.312,1.04 0,0.645 -0.312,1.04 -0.311,0.396 -0.809,0.396 -0.3,0 -0.517,-0.117 -0.215,-0.12 -0.357,-0.364 z m 1.529,-0.955 q 0,-0.495 -0.205,-0.776 -0.203,-0.283 -0.559,-0.283 -0.357,0 -0.562,0.283 -0.203,0.281 -0.203,0.776 0,0.496 0.203,0.779 0.205,0.281 0.562,0.281 0.356,0 0.559,-0.281 0.205,-0.283 0.205,-0.779 z"
         id="path4363" />
      <path
         d="m -154.141,173.38 0.516,0 0,0.62 -0.516,0 0,-0.62 z m 0,-1.965 0.516,0 0,0.62 -0.516,0 0,-0.62 z"
         id="path4365" />
      <path
         d="m -151.768,170.355 0.415,0 -1.269,4.109 -0.415,0 1.269,-4.109 z"
         id="path4367" />
      <path
         d="m -150.078,170.355 0.415,0 -1.27,4.109 -0.415,0 1.27,-4.109 z"
         id="path4369" />
      <path
         d="m -148.674,170.76 0,1.37 0.62,0 q 0.344,0 0.532,-0.178 0.188,-0.179 0.188,-0.508 0,-0.327 -0.188,-0.506 -0.188,-0.178 -0.532,-0.178 l -0.62,0 z m -0.493,-0.405 1.113,0 q 0.613,0 0.925,0.278 0.315,0.276 0.315,0.811 0,0.539 -0.315,0.815 -0.312,0.276 -0.925,0.276 l -0.62,0 0,1.465 -0.493,0 0,-3.645 z"
         id="path4371" />
      <path
         d="m -144.673,171.686 q -0.08,-0.04 -0.166,-0.06 -0.09,-0.02 -0.195,-0.02 -0.381,0 -0.586,0.249 -0.203,0.247 -0.203,0.711 l 0,1.44 -0.451,0 0,-2.734 0.451,0 0,0.424 q 0.142,-0.249 0.369,-0.368 0.227,-0.122 0.552,-0.122 0.05,0 0.102,0 0.06,0 0.125,0.02 l 0,0.462 z"
         id="path4373" />
      <path
         d="m -143.245,171.581 q -0.361,0 -0.571,0.283 -0.21,0.281 -0.21,0.771 0,0.491 0.208,0.774 0.21,0.281 0.573,0.281 0.359,0 0.569,-0.283 0.21,-0.283 0.21,-0.772 0,-0.486 -0.21,-0.769 -0.21,-0.285 -0.569,-0.285 z m 0,-0.381 q 0.586,0 0.921,0.381 0.334,0.38 0.334,1.054 0,0.672 -0.334,1.055 -0.335,0.381 -0.921,0.381 -0.588,0 -0.922,-0.381 -0.333,-0.383 -0.333,-1.055 0,-0.674 0.333,-1.054 0.334,-0.381 0.922,-0.381 z"
         id="path4375" />
      <path
         d="m -141.248,171.266 0.45,0 0,2.783 q 0,0.522 -0.201,0.757 -0.197,0.234 -0.639,0.234 l -0.171,0 0,-0.381 0.12,0 q 0.256,0 0.349,-0.119 0.09,-0.118 0.09,-0.491 l 0,-2.783 z m 0,-1.065 0.45,0 0,0.569 -0.45,0 0,-0.569 z"
         id="path4377" />
      <path
         d="m -137.522,172.521 0,0.219 -2.065,0 q 0.03,0.464 0.278,0.708 0.251,0.242 0.698,0.242 0.259,0 0.501,-0.06 0.244,-0.06 0.483,-0.19 l 0,0.425 q -0.242,0.102 -0.496,0.156 -0.253,0.05 -0.515,0.05 -0.654,0 -1.037,-0.381 -0.381,-0.381 -0.381,-1.03 0,-0.672 0.361,-1.065 0.364,-0.395 0.979,-0.395 0.552,0 0.872,0.356 0.322,0.354 0.322,0.965 z m -0.449,-0.132 q -0,-0.369 -0.208,-0.589 -0.2,-0.219 -0.532,-0.219 -0.376,0 -0.603,0.212 -0.225,0.212 -0.259,0.598 l 1.602,-0 z"
         id="path4379" />
      <path
         d="m -134.817,171.371 0,0.42 q -0.19,-0.105 -0.383,-0.157 -0.191,-0.05 -0.386,-0.05 -0.437,0 -0.679,0.278 -0.241,0.276 -0.241,0.776 0,0.501 0.241,0.779 0.242,0.276 0.679,0.276 0.195,0 0.386,-0.05 0.193,-0.05 0.383,-0.159 l 0,0.415 q -0.188,0.09 -0.391,0.132 -0.2,0.04 -0.427,0.04 -0.617,0 -0.981,-0.388 -0.364,-0.389 -0.364,-1.048 0,-0.669 0.366,-1.052 0.369,-0.383 1.009,-0.383 0.207,0 0.405,0.04 0.198,0.04 0.383,0.127 z"
         id="path4381" />
      <path
         d="m -133.586,170.489 0,0.777 0.925,0 0,0.349 -0.925,0 0,1.484 q 0,0.335 0.09,0.43 0.09,0.09 0.373,0.09 l 0.462,0 0,0.376 -0.462,0 q -0.52,0 -0.717,-0.193 -0.198,-0.195 -0.198,-0.708 l 0,-1.484 -0.33,0 0,-0.349 0.33,0 0,-0.777 0.452,0 z"
         id="path4383" />
      <path
         d="m -130.83,170.841 -0.669,1.814 1.34,0 -0.671,-1.814 z m -0.278,-0.486 0.559,0 1.389,3.645 -0.513,0 -0.332,-0.935 -1.643,0 -0.332,0.935 -0.52,0 1.392,-3.645 z"
         id="path4385" />
      <path
         d="m -128.845,171.266 2.134,0 0,0.41 -1.69,1.965 1.69,0 0,0.359 -2.195,0 0,-0.41 1.689,-1.965 -1.628,0 0,-0.359 z"
         id="path4387" />
      <path
         d="m -126.023,171.266 0.449,0 0,2.734 -0.449,0 0,-2.734 z m 0,-1.065 0.449,0 0,0.569 -0.449,0 0,-0.569 z"
         id="path4389" />
      <path
         d="m -122.837,171.681 0,-1.48 0.449,0 0,3.799 -0.449,0 0,-0.41 q -0.142,0.244 -0.359,0.364 -0.215,0.117 -0.517,0.117 -0.496,0 -0.808,-0.396 -0.311,-0.395 -0.311,-1.04 0,-0.644 0.311,-1.04 0.312,-0.395 0.808,-0.395 0.302,0 0.517,0.119 0.217,0.118 0.359,0.362 z m -1.531,0.954 q 0,0.496 0.203,0.779 0.205,0.281 0.561,0.281 0.357,0 0.562,-0.281 0.205,-0.283 0.205,-0.779 0,-0.495 -0.205,-0.776 -0.205,-0.283 -0.562,-0.283 -0.356,0 -0.561,0.283 -0.203,0.281 -0.203,0.776 z"
         id="path4391" />
      <path
         d="m -119.124,172.521 0,0.219 -2.065,0 q 0.03,0.464 0.278,0.708 0.252,0.242 0.699,0.242 0.258,0 0.5,-0.06 0.244,-0.06 0.483,-0.19 l 0,0.425 q -0.241,0.102 -0.495,0.156 -0.254,0.05 -0.515,0.05 -0.655,0 -1.038,-0.381 -0.381,-0.381 -0.381,-1.03 0,-0.672 0.362,-1.065 0.363,-0.395 0.979,-0.395 0.551,0 0.871,0.356 0.322,0.354 0.322,0.965 z m -0.449,-0.132 q -0,-0.369 -0.207,-0.589 -0.2,-0.219 -0.533,-0.219 -0.375,0 -0.603,0.212 -0.224,0.212 -0.258,0.598 l 1.601,-0 z"
         id="path4393" />
      <path
         d="m -118.323,173.38 0.515,0 0,0.62 -0.515,0 0,-0.62 z"
         id="path4395" />
      <path
         d="m -114.995,172.601 q 0,-0.488 -0.203,-0.757 -0.2,-0.268 -0.564,-0.268 -0.361,0 -0.564,0.268 -0.2,0.269 -0.2,0.757 0,0.486 0.2,0.754 0.203,0.269 0.564,0.269 0.364,0 0.564,-0.269 0.203,-0.268 0.203,-0.754 z m 0.449,1.06 q 0,0.698 -0.31,1.037 -0.31,0.342 -0.95,0.342 -0.236,0 -0.446,-0.04 -0.21,-0.03 -0.408,-0.107 l 0,-0.437 q 0.198,0.107 0.39,0.159 0.193,0.05 0.394,0.05 0.441,0 0.661,-0.232 0.22,-0.229 0.22,-0.696 l 0,-0.222 q -0.139,0.242 -0.357,0.361 -0.217,0.12 -0.52,0.12 -0.503,0 -0.81,-0.383 -0.308,-0.384 -0.308,-1.016 0,-0.635 0.308,-1.018 0.307,-0.383 0.81,-0.383 0.303,0 0.52,0.119 0.218,0.12 0.357,0.362 l 0,-0.415 0.449,0 0,2.395 z"
         id="path4397" />
      <path
         d="m -113.621,171.266 0.45,0 0,2.734 -0.45,0 0,-2.734 z m 0,-1.065 0.45,0 0,0.569 -0.45,0 0,-0.569 z"
         id="path4399" />
      <path
         d="m -111.79,170.489 0,0.777 0.926,0 0,0.349 -0.926,0 0,1.484 q 0,0.335 0.09,0.43 0.09,0.09 0.373,0.09 l 0.462,0 0,0.376 -0.462,0 q -0.52,0 -0.717,-0.193 -0.198,-0.195 -0.198,-0.708 l 0,-1.484 -0.33,0 0,-0.349 0.33,0 0,-0.777 0.451,0 z"
         id="path4401" />
      <path
         d="m -107.998,172.35 0,1.65 -0.449,0 0,-1.636 q 0,-0.388 -0.152,-0.581 -0.151,-0.193 -0.454,-0.193 -0.364,0 -0.573,0.232 -0.21,0.232 -0.21,0.633 l 0,1.545 -0.452,0 0,-3.799 0.452,0 0,1.489 q 0.161,-0.246 0.378,-0.368 0.22,-0.122 0.505,-0.122 0.472,0 0.713,0.293 0.242,0.29 0.242,0.857 z"
         id="path4403" />
      <path
         d="m -107.144,172.921 0,-1.655 0.45,0 0,1.638 q 0,0.388 0.151,0.583 0.151,0.193 0.454,0.193 0.364,0 0.574,-0.232 0.212,-0.232 0.212,-0.632 l 0,-1.55 0.449,0 0,2.734 -0.449,0 0,-0.42 q -0.163,0.249 -0.381,0.371 -0.214,0.12 -0.5,0.12 -0.471,0 -0.715,-0.293 -0.245,-0.293 -0.245,-0.857 z m 1.131,-1.721 0,0 z"
         id="path4405" />
      <path
         d="m -101.96,172.635 q 0,-0.495 -0.206,-0.776 -0.202,-0.283 -0.559,-0.283 -0.356,0 -0.561,0.283 -0.203,0.281 -0.203,0.776 0,0.496 0.203,0.779 0.205,0.281 0.561,0.281 0.357,0 0.559,-0.281 0.206,-0.283 0.206,-0.779 z m -1.529,-0.954 q 0.142,-0.244 0.357,-0.362 0.217,-0.119 0.517,-0.119 0.498,0 0.808,0.395 0.313,0.396 0.313,1.04 0,0.645 -0.313,1.04 -0.31,0.396 -0.808,0.396 -0.3,0 -0.517,-0.117 -0.215,-0.12 -0.357,-0.364 l 0,0.41 -0.451,0 0,-3.799 0.451,0 0,1.48 z"
         id="path4407" />
      <path
         d="m -100.686,173.38 0.515,0 0,0.62 -0.515,0 0,-0.62 z"
         id="path4409" />
      <path
         d="m -99.1577,171.266 0.4492,0 0,2.734 -0.4492,0 0,-2.734 z m 0,-1.065 0.4492,0 0,0.569 -0.4492,0 0,-0.569 z"
         id="path4411" />
      <path
         d="m -96.7114,171.581 q -0.3614,0 -0.5713,0.283 -0.21,0.281 -0.21,0.771 0,0.491 0.2075,0.774 0.21,0.281 0.5738,0.281 0.3589,0 0.5688,-0.283 0.21,-0.283 0.21,-0.772 0,-0.486 -0.21,-0.769 -0.2099,-0.285 -0.5688,-0.285 z m 0,-0.381 q 0.5859,0 0.9204,0.381 0.3345,0.38 0.3345,1.054 0,0.672 -0.3345,1.055 -0.3345,0.381 -0.9204,0.381 -0.5884,0 -0.9229,-0.381 -0.332,-0.383 -0.332,-1.055 0,-0.674 0.332,-1.054 0.3345,-0.381 0.9229,-0.381 z"
         id="path4413" />
      <path
         d="m -93.916,170.355 0.415,0 -1.2695,4.109 -0.415,0 1.2695,-4.109 z"
         id="path4415" />
    </g>
    <g
       style="font-size:4px;font-family:OCRB;-inkscape-font-specification:'OCRB, Normal';text-anchor:middle;fill:none;stroke:#ff0000;stroke-width:0.01"
       id="text16">
      <path
         d="m 28.9827,-0.66 q 0,0.088 -0.06,0.14 -0.056,0.06 -0.14,0.06 -0.084,0 -0.14,-0.06 -0.04,-0.032 -0.052,-0.088 l -0.18,-0.688 -0.808,0 -0.18,0.688 q -0.012,0.048 -0.052,0.088 -0.056,0.06 -0.14,0.06 -0.084,0 -0.144,-0.06 -0.056,-0.056 -0.056,-0.14 0,-0.032 0,-0.052 l 0.64,-2.468 q 0.012,-0.048 0.052,-0.088 0.06,-0.06 0.144,-0.06 l 0.272,0 q 0.084,0 0.14,0.06 0.024,0.024 0.032,0.036 0.024,0.048 0.024,0.076 l 0.412,1.584 q 0,0.012 0.016,0.052 l 0.208,0.808 q 0.01,0.02 0.01,0.052 z m -0.672,-1.036 -0.304,-1.168 -0.304,1.168 0.608,0 z"
         id="path4418" />
    </g>
    <g
       style="font-size:4px;font-family:OCRB;-inkscape-font-specification:'OCRB, Normal';text-anchor:middle;fill:none;stroke:#ff0000;stroke-width:0.01"
       id="text20">
      <path
         d="m 86.0067,-1.348 q 0,0.404 -0.308,0.64 -0.26,0.204 -0.808,0.204 l -0.684,0 q -0.076,0 -0.144,-0.06 -0.056,-0.056 -0.056,-0.14 l 0,-1.26 0,-1.14 q 0,-0.08 0.056,-0.144 0.064,-0.056 0.144,-0.056 l 0.684,0 q 0.46,0 0.672,0.116 0.168,0.096 0.268,0.26 0.104,0.164 0.116,0.356 0.032,0.364 -0.24,0.604 0.292,0.232 0.3,0.62 z m -1,-0.816 q 0.308,0 0.424,-0.092 0.132,-0.108 0.12,-0.288 -0.02,-0.204 -0.184,-0.296 -0.12,-0.064 -0.476,-0.064 l -0.484,0 0,0.74 0.6,0 z m 0,0.4 -0.6,0 0,0.86 0.484,0 q 0.136,0 0.208,-0.004 0.076,-0.004 0.18,-0.032 0.104,-0.028 0.176,-0.084 0.152,-0.116 0.152,-0.32 -0.01,-0.224 -0.184,-0.336 -0.132,-0.084 -0.416,-0.084 z"
         id="path4421" />
    </g>
    <g
       style="font-size:4px;font-family:OCRB;-inkscape-font-specification:'OCRB, Normal';text-anchor:middle;fill:none;stroke:#ff0000;stroke-width:0.01"
       id="text24">
      <path
         d="m 142.823,-1.004 q 0,0.024 -0,0.036 -0.04,0.26 -0.268,0.408 -0.176,0.112 -0.404,0.112 -0.284,0 -0.484,-0.14 -0.236,-0.16 -0.348,-0.512 -0.05,-0.152 -0.08,-0.328 -0.03,-0.208 -0.04,-0.44 0,-0.316 0.04,-0.54 0.04,-0.244 0.128,-0.44 0.132,-0.28 0.356,-0.408 0.18,-0.1 0.392,-0.108 0.276,0 0.472,0.144 0.184,0.144 0.232,0.368 0,0.016 0,0.044 0,0.084 -0.06,0.14 -0.06,0.06 -0.14,0.06 -0.08,0 -0.14,-0.06 -0.04,-0.036 -0.06,-0.096 -0.02,-0.088 -0.08,-0.136 -0.08,-0.064 -0.22,-0.064 -0.116,0.008 -0.2,0.052 -0.12,0.076 -0.192,0.236 -0.06,0.128 -0.1,0.336 -0.03,0.204 -0.03,0.464 0,0.232 0.03,0.384 0.02,0.148 0.06,0.268 0.06,0.216 0.196,0.308 0.1,0.068 0.252,0.068 0.112,0 0.188,-0.048 0.08,-0.048 0.1,-0.144 0.01,-0.06 0.06,-0.104 0.06,-0.06 0.14,-0.06 0.08,0 0.14,0.06 0.06,0.052 0.06,0.14 z"
         id="path4424" />
    </g>
    <g
       style="font-size:4px;font-family:OCRB;-inkscape-font-specification:'OCRB, Normal';text-anchor:middle;fill:none;stroke:#ff0000;stroke-width:0.01"
       id="text28">
      <path
         d="m -1.62131,42.84 q 0,0.08 -0.06,0.14 -0.052,0.06 -0.14,0.06 -0.084,0 -0.144,-0.06 -0.056,-0.056 -0.056,-0.14 l 0,-2.392 -0.516,0.44 q -0.052,0.048 -0.132,0.048 -0.084,0 -0.14,-0.056 -0.06,-0.068 -0.06,-0.144 0,-0.088 0.072,-0.152 l 0.72,-0.616 q 0.016,-0.016 0.048,-0.032 0.032,-0.016 0.08,-0.016 l 0.128,0 q 0.088,0 0.14,0.06 0.06,0.06 0.06,0.14 l 0,2.72 z"
         id="path4427" />
    </g>
    <g
       style="font-size:4px;font-family:OCRB;-inkscape-font-specification:'OCRB, Normal';text-anchor:middle;fill:none;stroke:#ff0000;stroke-width:0.01"
       id="text32">
      <path
         d="m -1.13331,126.652 q 0.06,0.06 0.06,0.144 0,0.08 -0.06,0.14 -0.06,0.06 -0.14,0.06 l -1.408,0 q -0.08,0 -0.14,-0.06 -0.06,-0.06 -0.06,-0.14 0,-0.388 0.044,-0.536 0.072,-0.248 0.26,-0.44 0.192,-0.192 0.476,-0.376 0.392,-0.252 0.496,-0.392 0.108,-0.14 0.108,-0.292 0,-0.108 -0.04,-0.188 -0.076,-0.176 -0.288,-0.236 -0.08,-0.03 -0.168,-0.03 -0.1,0 -0.204,0.01 -0.228,0.02 -0.412,0.16 -0.064,0.04 -0.116,0.04 -0.08,0 -0.14,-0.06 -0.06,-0.06 -0.06,-0.14 0,-0.08 0.06,-0.144 0.016,-0.02 0.024,-0.02 0.268,-0.188 0.592,-0.232 0.124,-0.01 0.256,-0.01 0.136,0 0.288,0.04 0.384,0.12 0.532,0.448 0.076,0.164 0.076,0.36 0,0.28 -0.188,0.532 -0.072,0.1 -0.184,0.192 -0.112,0.1 -0.192,0.148 -0.076,0.05 -0.224,0.148 -0.156,0.1 -0.244,0.164 -0.088,0.06 -0.188,0.18 -0.1,0.116 -0.136,0.244 -0.024,0.08 -0.024,0.228 l 1.204,0 q 0.084,0 0.14,0.06 z"
         id="path4430" />
    </g>
  </g>
  <g
     inkscape:groupmode="layer"
     inkscape:label="node detail"
     id="g36">
    <path
       style="fill:none;fill-rule:evenodd;stroke:#0000ff;stroke-width:0.01"
       d="M 169.92,1.62 171.54,0 169.92,-1.62 168.3,0 Z"
       id="path38"
       inkscape:connector-curvature="0" />
    <path
       style="fill:none;fill-rule:evenodd;stroke:#0000ff;stroke-width:0.01"
       d="m 169.92,86.68 1.62,-1.62 -1.62,-1.62 -1.62,1.62 z"
       id="path40"
       inkscape:connector-curvature="0" />
    <path
       style="fill:none;fill-rule:evenodd;stroke:#0000ff;stroke-width:0.01"
       d="M 0,171.74 1.62,170.12 0,168.5 l -1.62,1.62 z"
       id="path42"
       inkscape:connector-curvature="0" />
    <path
       style="fill:none;fill-rule:evenodd;stroke:#0000ff;stroke-width:0.01"
       d="m 56.64,171.74 1.62,-1.62 -1.62,-1.62 -1.62,1.62 z"
       id="path44"
       inkscape:connector-curvature="0" />
    <path
       style="fill:none;fill-rule:evenodd;stroke:#0000ff;stroke-width:0.01"
       d="m 113.28,171.74 1.62,-1.62 -1.62,-1.62 -1.62,1.62 z"
       id="path46"
       inkscape:connector-curvature="0" />
    <path
       style="fill:none;fill-rule:evenodd;stroke:#0000ff;stroke-width:0.01"
       d="m 169.92,171.74 1.62,-1.62 -1.62,-1.62 -1.62,1.62 z"
       id="path48"
       inkscape:connector-curvature="0" />
    <g
       id="g50">
      <rect
         style="fill:none;stroke:#0000ff;stroke-width:0.01"
         width="2.5"
         height="2.5"
         x="2.25"
         y="2.25"
         id="rect52" />
      <rect
         style="fill:none;stroke:#0000ff;stroke-width:0.01"
         width="2.5"
         height="2.5"
         x="25.25"
         y="2.25"
         id="rect54" />
      <rect
         style="fill:none;stroke:#0000ff;stroke-width:0.01"
         width="2.5"
         height="2.5"
         x="51.25"
         y="2.25"
         id="rect56" />
      <rect
         style="fill:none;stroke:#0000ff;stroke-width:0.01"
         width="2.5"
         height="2.5"
         x="2.25"
         y="60.25"
         id="rect58" />
      <rect
         style="fill:none;stroke:#0000ff;stroke-width:0.01"
         width="2.5"
         height="2.5"
         x="51.25"
         y="60.25"
         id="rect60" />
      <rect
         style="fill:none;stroke:#0000ff;stroke-width:0.01"
         x="3"
         y="82.06"
         width="40"
         height="3"
         id="rect92" />
      <path
         style="fill:none;fill-rule:evenodd;stroke:#0000ff;stroke-width:0.01"
         d="M 0,1.62 1.62,0 0,-1.62 -1.62,0 Z"
         id="path94"
         inkscape:connector-curvature="0" />
    </g>
    <g
       transform="translate(56.64,0)"
       id="g64">
      <rect
         style="fill:none;stroke:#0000ff;stroke-width:0.01"
         width="2.5"
         height="2.5"
         x="2.25"
         y="2.25"
         id="rect66" />
      <rect
         style="fill:none;stroke:#0000ff;stroke-width:0.01"
         width="2.5"
         height="2.5"
         x="25.25"
         y="2.25"
         id="rect68" />
      <rect
         style="fill:none;stroke:#0000ff;stroke-width:0.01"
         width="2.5"
         height="2.5"
         x="51.25"
         y="2.25"
         id="rect70" />
      <rect
         style="fill:none;stroke:#0000ff;stroke-width:0.01"
         width="2.5"
         height="2.5"
         x="2.25"
         y="60.25"
         id="rect72" />
      <rect
         style="fill:none;stroke:#0000ff;stroke-width:0.01"
         width="2.5"
         height="2.5"
         x="51.25"
         y="60.25"
         id="rect74" />
      <rect
         style="fill:none;stroke:#0000ff;stroke-width:0.01"
         x="3"
         y="82.06"
         width="40"
         height="3"
         id="rect76" />
      <path
         style="fill:none;fill-rule:evenodd;stroke:#0000ff;stroke-width:0.01"
         d="M 0,1.62 1.62,0 0,-1.62 -1.62,0 Z"
         id="path78"
         inkscape:connector-curvature="0" />
    </g>
    <g
       transform="translate(113.28,0)"
       id="g80">
      <rect
         style="fill:none;stroke:#0000ff;stroke-width:0.01"
         width="2.5"
         height="2.5"
         x="2.25"
         y="2.25"
         id="rect82" />
      <rect
         style="fill:none;stroke:#0000ff;stroke-width:0.01"
         width="2.5"
         height="2.5"
         x="25.25"
         y="2.25"
         id="rect84" />
      <rect
         style="fill:none;stroke:#0000ff;stroke-width:0.01"
         width="2.5"
         height="2.5"
         x="51.25"
         y="2.25"
         id="rect86" />
      <rect
         style="fill:none;stroke:#0000ff;stroke-width:0.01"
         width="2.5"
         height="2.5"
         x="2.25"
         y="60.25"
         id="rect88" />
      <rect
         style="fill:none;stroke:#0000ff;stroke-width:0.01"
         width="2.5"
         height="2.5"
         x="51.25"
         y="60.25"
         id="rect90" />
      <rect
         style="fill:none;stroke:#0000ff;stroke-width:0.01"
         x="3"
         y="82.06"
         width="40"
         height="3"
         id="rect93" />
      <path
         style="fill:none;fill-rule:evenodd;stroke:#0000ff;stroke-width:0.01"
         d="M 0,1.62 1.62,0 0,-1.62 -1.62,0 Z"
         id="path95"
         inkscape:connector-curvature="0" />
    </g>
    <g
       transform="translate(0,85.06)"
       id="g97">
      <rect
         style="fill:none;stroke:#0000ff;stroke-width:0.01"
         width="2.5"
         height="2.5"
         x="2.25"
         y="2.25"
         id="rect99" />
      <rect
         style="fill:none;stroke:#0000ff;stroke-width:0.01"
         width="2.5"
         height="2.5"
         x="25.25"
         y="2.25"
         id="rect101" />
      <rect
         style="fill:none;stroke:#0000ff;stroke-width:0.01"
         width="2.5"
         height="2.5"
         x="51.25"
         y="2.25"
         id="rect103" />
      <rect
         style="fill:none;stroke:#0000ff;stroke-width:0.01"
         width="2.5"
         height="2.5"
         x="2.25"
         y="60.25"
         id="rect105" />
      <rect
         style="fill:none;stroke:#0000ff;stroke-width:0.01"
         width="2.5"
         height="2.5"
         x="51.25"
         y="60.25"
         id="rect107" />
      <rect
         style="fill:none;stroke:#0000ff;stroke-width:0.01"
         x="3"
         y="82.06"
         width="40"
         height="3"
         id="rect109" />
      <path
         style="fill:none;fill-rule:evenodd;stroke:#0000ff;stroke-width:0.01"
         d="M 0,1.62 1.62,0 0,-1.62 -1.62,0 Z"
         id="path111"
         inkscape:connector-curvature="0" />
    </g>
    <g
       transform="translate(56.64,85.06)"
       id="g113">
      <rect
         style="fill:none;stroke:#0000ff;stroke-width:0.01"
         width="2.5"
         height="2.5"
         x="2.25"
         y="2.25"
         id="rect115" />
      <rect
         style="fill:none;stroke:#0000ff;stroke-width:0.01"
         width="2.5"
         height="2.5"
         x="25.25"
         y="2.25"
         id="rect117" />
      <rect
         style="fill:none;stroke:#0000ff;stroke-width:0.01"
         width="2.5"
         height="2.5"
         x="51.25"
         y="2.25"
         id="rect119" />
      <rect
         style="fill:none;stroke:#0000ff;stroke-width:0.01"
         width="2.5"
         height="2.5"
         x="2.25"
         y="60.25"
         id="rect121" />
      <rect
         style="fill:none;stroke:#0000ff;stroke-width:0.01"
         width="2.5"
         height="2.5"
         x="51.25"
         y="60.25"
         id="rect123" />
      <rect
         style="fill:none;stroke:#0000ff;stroke-width:0.01"
         x="3"
         y="82.06"
         width="40"
         height="3"
         id="rect125" />
      <path
         style="fill:none;fill-rule:evenodd;stroke:#0000ff;stroke-width:0.01"
         d="M 0,1.62 1.62,0 0,-1.62 -1.62,0 Z"
         id="path127"
         inkscape:connector-curvature="0" />
    </g>
    <g
       transform="translate(113.28,85.06)"
       id="g129">
      <rect
         style="fill:none;stroke:#0000ff;stroke-width:0.01"
         width="2.5"
         height="2.5"
         x="2.25"
         y="2.25"
         id="rect131" />
      <rect
         style="fill:none;stroke:#0000ff;stroke-width:0.01"
         width="2.5"
         height="2.5"
         x="25.25"
         y="2.25"
         id="rect133" />
      <rect
         style="fill:none;stroke:#0000ff;stroke-width:0.01"
         width="2.5"
         height="2.5"
         x="51.25"
         y="2.25"
         id="rect135" />
      <rect
         style="fill:none;stroke:#0000ff;stroke-width:0.01"
         width="2.5"
         height="2.5"
         x="2.25"
         y="60.25"
         id="rect137" />
      <rect
         style="fill:none;stroke:#0000ff;stroke-width:0.01"
         width="2.5"
         height="2.5"
         x="51.25"
         y="60.25"
         id="rect139" />
      <rect
         style="fill:none;stroke:#0000ff;stroke-width:0.01"
         x="3"
         y="82.06"
         width="40"
         height="3"
         id="rect141" />
      <path
         style="fill:none;fill-rule:evenodd;stroke:#0000ff;stroke-width:0.01"
         d="M 0,1.62 1.62,0 0,-1.62 -1.62,0 Z"
         id="path143"
         inkscape:connector-curvature="0" />
    </g>
  </g>
  <g
     inkscape:groupmode="layer"
     inkscape:label="tbp outline"
     id="g161">
    <rect
       style="fill:none;stroke:#0000ff;stroke-width:0.01"
       x="-4.5"
       y="-4.5"
       width="180"
       height="180"
       id="rect163" />
  </g>
</svg>
